<?xml version="1.0" standalone="no"?>
<!DOCTYPE svg PUBLIC "-//W3C//DTD SVG 20010904//EN"
 "http://www.w3.org/TR/2001/REC-SVG-20010904/DTD/svg10.dtd">
<svg version="1.0" xmlns="http://www.w3.org/2000/svg"
 width="640.000000pt" height="1280.000000pt" viewBox="0 0 640.000000 1280.000000"
 preserveAspectRatio="xMidYMid meet">
<metadata>
Created by potrace 1.15, written by Peter Selinger 2001-2017
</metadata>
<g transform="translate(0.000000,1280.000000) scale(0.100000,-0.100000)"
fill="#000000" stroke="none">
<path d="M1885 12790 c-66 -6 -91 -17 -425 -189 -313 -162 -373 -189 -505
-230 -134 -42 -170 -58 -326 -149 l-176 -102 -33 -86 -34 -86 13 -115 c14
-131 28 -185 65 -246 25 -43 27 -44 108 -61 46 -9 105 -16 131 -16 137 0 396
142 439 241 11 25 27 43 44 49 31 12 47 1 184 -121 41 -37 89 -71 107 -76 22
-6 181 -150 550 -499 285 -269 615 -581 733 -691 189 -177 260 -250 260 -267
0 -3 -19 -10 -42 -16 -24 -6 -48 -13 -54 -15 -9 -2 -6 -34 7 -112 19 -105 20
-109 64 -151 52 -50 63 -48 115 18 28 35 37 40 74 40 l42 0 344 -355 345 -355
183 -357 c101 -197 282 -553 404 -792 l221 -434 13 -381 c11 -321 81 -1345
100 -1463 4 -29 9 -34 44 -39 l38 -6 6 -57 c3 -31 74 -1262 158 -2736 83
-1474 153 -2682 154 -2684 5 -6 338 -82 349 -79 7 2 -9 274 -57 908 -37 498
-130 1760 -208 2805 -150 2026 -167 2252 -176 2330 -4 28 -4 48 -1 45 3 -3 20
-100 37 -215 17 -116 65 -410 105 -655 77 -463 240 -1654 275 -2010 11 -113
35 -365 55 -560 37 -375 306 -2813 311 -2818 1 -2 21 -1 43 3 37 6 40 9 35 33
-13 75 -271 2439 -324 2967 -71 723 -208 1772 -310 2386 -39 229 -81 492 -95
585 -48 326 -84 502 -164 819 -12 44 -21 100 -21 125 0 39 -29 320 -45 437
l-6 42 -57 3 c-55 3 -57 4 -80 46 -20 36 -27 73 -42 235 -10 106 -33 266 -50
356 -17 90 -29 165 -27 168 8 8 462 -400 695 -625 174 -168 244 -228 284 -247
55 -26 116 -32 148 -15 25 13 40 62 40 129 l0 57 -479 507 c-264 279 -536 570
-606 647 -218 241 -337 347 -550 490 l-190 127 -265 270 -265 270 -130 224
c-71 123 -152 269 -180 324 -136 266 -345 734 -517 1155 -129 317 -202 476
-290 630 -130 227 -257 404 -386 536 -32 33 -62 72 -66 87 -7 30 -7 30 -141
17z m238 -263 c84 -99 214 -295 293 -437 83 -151 141 -279 271 -595 215 -524
502 -1146 629 -1365 42 -73 44 -75 -1041 1038 -512 524 -540 555 -545 595 -3
23 -31 89 -62 147 -30 58 -70 138 -88 178 l-33 72 163 158 c138 133 323 291
340 291 3 0 36 -37 73 -82z m2371 -3927 l73 -95 57 -300 c31 -165 56 -304 56
-310 0 -5 -66 118 -146 275 -80 157 -208 409 -286 560 l-140 275 157 -155 c86
-85 189 -198 229 -250z"/>
</g>
</svg>
