<?xml version="1.0" standalone="no"?>
<!DOCTYPE svg PUBLIC "-//W3C//DTD SVG 20010904//EN"
 "http://www.w3.org/TR/2001/REC-SVG-20010904/DTD/svg10.dtd">
<svg version="1.0" xmlns="http://www.w3.org/2000/svg"
 width="1143.000000pt" height="1280.000000pt" viewBox="0 0 1143.000000 1280.000000"
 preserveAspectRatio="xMidYMid meet">
<metadata>
Created by potrace 1.15, written by Peter Selinger 2001-2017
</metadata>
<g transform="translate(0.000000,1280.000000) scale(0.100000,-0.100000)"
fill="#000000" stroke="none">
<path d="M5209 12790 c-37 -6 -156 -27 -265 -49 -110 -22 -230 -43 -269 -47
-76 -7 -115 -24 -239 -103 -44 -28 -96 -56 -115 -62 -20 -7 -60 -35 -89 -63
-29 -28 -69 -59 -90 -70 -84 -42 -372 -217 -372 -226 0 -5 -19 -39 -42 -75
-24 -37 -58 -89 -75 -117 -18 -27 -33 -62 -33 -77 0 -30 -28 -90 -65 -140 -14
-19 -25 -48 -25 -66 0 -19 -8 -39 -20 -50 -37 -33 -80 -111 -80 -144 0 -17
-11 -48 -24 -69 -14 -20 -34 -75 -46 -122 -11 -47 -30 -98 -42 -114 -23 -32
-52 -156 -69 -291 -13 -107 -6 -275 22 -499 11 -87 24 -215 29 -285 7 -87 17
-141 31 -175 39 -91 29 -167 -56 -421 -26 -77 -27 -126 -5 -230 40 -195 42
-205 31 -253 -8 -40 -6 -53 12 -92 12 -27 23 -73 25 -114 4 -58 11 -80 41
-130 21 -34 43 -75 50 -93 7 -17 21 -33 31 -36 10 -2 32 -24 49 -48 17 -23 55
-56 84 -72 69 -40 122 -81 239 -185 88 -78 98 -91 98 -122 1 -57 27 -211 45
-260 8 -25 27 -62 40 -82 14 -21 25 -49 25 -62 0 -14 10 -41 23 -60 56 -89 67
-108 67 -122 0 -8 11 -32 25 -52 14 -20 25 -44 25 -53 0 -8 12 -26 26 -40 15
-13 35 -43 45 -66 10 -24 25 -43 32 -43 8 0 34 -31 59 -68 68 -102 173 -224
205 -237 15 -7 63 -37 106 -68 42 -31 86 -59 97 -62 13 -4 20 -15 20 -31 0
-18 11 -29 48 -48 26 -13 97 -51 157 -85 61 -34 146 -75 190 -92 44 -17 89
-39 100 -49 34 -30 98 -58 211 -91 60 -17 127 -41 149 -51 44 -22 322 -93 405
-104 43 -6 53 -11 66 -36 23 -45 62 -36 91 20 39 78 108 97 240 66 53 -13 95
-15 193 -10 151 8 312 36 338 59 10 10 56 31 101 47 110 40 124 51 161 123 18
34 38 74 46 88 27 50 54 181 54 259 0 72 2 79 30 108 28 29 30 37 30 105 0 63
7 92 51 212 29 81 59 186 70 250 11 60 28 123 38 140 25 41 38 102 56 248 10
90 21 137 39 173 13 27 35 87 49 134 13 47 32 102 41 124 9 21 16 56 16 77 0
21 10 54 22 74 19 33 21 52 22 173 0 129 -2 142 -31 222 -17 47 -36 125 -43
174 -9 62 -20 99 -36 124 -16 22 -24 49 -24 75 0 28 -7 48 -22 65 -23 23 -23
28 -23 276 0 199 3 256 14 269 9 11 11 28 7 51 -4 22 -1 48 9 72 25 59 19 91
-25 146 -55 70 -64 109 -56 258 5 105 3 135 -14 195 -12 45 -23 129 -29 240
l-10 170 -62 134 -62 135 18 49 c35 96 8 245 -54 301 -12 11 -21 29 -21 42 0
12 -9 44 -21 71 -11 26 -22 64 -23 84 -1 22 -11 46 -28 64 -14 15 -34 46 -44
67 -15 33 -28 44 -82 69 -36 16 -71 29 -79 29 -8 0 -78 61 -156 136 -78 75
-155 147 -172 160 -56 42 -394 114 -540 114 -27 0 -68 14 -130 45 -56 28 -104
45 -126 45 -20 0 -42 7 -49 15 -7 8 -37 22 -68 31 -30 9 -73 25 -96 35 -23 10
-54 19 -69 19 -16 0 -49 12 -74 27 -41 24 -56 26 -167 29 -66 1 -151 -1 -187
-6z m399 -209 c62 -21 116 -41 119 -45 14 -14 -13 -21 -101 -26 -70 -4 -99 -9
-113 -22 -14 -13 -38 -18 -89 -19 -38 -1 -79 -4 -91 -7 -13 -4 -59 -56 -106
-117 -80 -106 -84 -110 -128 -116 -59 -9 -106 -34 -199 -105 -41 -31 -94 -65
-117 -75 -28 -12 -48 -29 -59 -51 -9 -18 -23 -40 -31 -49 -12 -15 -11 -25 12
-80 34 -81 67 -116 119 -127 l41 -9 -60 -18 c-33 -9 -88 -30 -122 -45 -34 -16
-90 -33 -125 -39 -35 -6 -96 -20 -137 -31 -41 -11 -105 -20 -143 -20 -57 0
-75 4 -107 26 -93 61 -213 70 -408 28 -21 -4 -33 -3 -33 4 0 6 14 14 31 17 18
4 54 18 81 32 42 21 61 25 119 21 55 -3 73 -8 89 -26 12 -13 33 -22 50 -22 16
0 59 -7 97 -16 77 -18 183 -15 229 7 18 9 40 35 57 67 16 29 39 60 53 68 25
17 30 44 18 116 -7 41 -26 54 -133 92 -89 31 -94 42 -43 103 23 27 42 55 42
61 0 7 13 12 30 12 21 0 34 8 47 28 10 15 39 47 65 73 40 37 48 51 48 81 0 33
3 36 33 42 19 3 45 18 58 32 41 45 171 104 227 104 34 0 79 12 147 40 101 41
175 51 215 30 13 -7 28 -5 52 5 60 26 142 19 266 -24z m832 -201 c12 -8 9 -10
-12 -10 -16 0 -28 5 -28 10 0 13 20 13 40 0z m140 -68 l75 -38 5 -54 c5 -49
10 -57 55 -97 45 -40 54 -44 90 -40 22 3 48 8 58 12 27 11 22 -32 -7 -50 -13
-9 -27 -22 -29 -29 -8 -21 29 -94 84 -163 29 -35 58 -83 66 -105 13 -38 12
-43 -10 -77 -33 -50 -39 -73 -22 -94 12 -17 18 -18 49 -7 20 6 38 16 41 21 12
18 36 9 45 -17 9 -23 14 -26 42 -20 44 9 68 33 68 70 1 42 16 15 23 -40 4 -37
2 -43 -19 -53 -13 -6 -24 -19 -24 -29 0 -50 67 -228 106 -279 13 -17 24 -43
24 -56 0 -14 7 -30 16 -38 34 -28 46 -69 39 -136 -5 -52 -3 -71 14 -106 13
-27 23 -79 29 -148 6 -58 15 -115 20 -125 13 -24 36 -315 27 -343 -5 -18 -15
-21 -63 -22 -31 -1 -64 -1 -73 0 -8 1 -42 -14 -75 -34 -55 -33 -139 -65 -171
-65 -8 0 -23 -19 -33 -42 -10 -24 -50 -99 -87 -168 -85 -155 -109 -210 -129
-297 -8 -37 -22 -79 -30 -91 -13 -20 -14 -32 -3 -75 15 -68 58 -182 104 -282
24 -54 43 -116 56 -190 32 -182 73 -288 138 -358 31 -34 78 -60 91 -52 22 14
9 82 -30 159 -22 43 -40 91 -40 105 0 15 -7 36 -15 48 -34 49 -85 188 -85 234
0 45 -57 189 -80 204 -6 4 -10 67 -10 155 l0 149 40 62 c22 34 40 68 40 75 0
7 22 25 49 41 90 52 151 96 151 108 0 7 14 15 31 19 17 3 49 24 71 46 48 47
66 49 150 15 34 -14 67 -25 75 -25 9 0 13 -16 13 -55 0 -30 -4 -55 -9 -55 -18
0 -30 -59 -35 -175 -3 -66 -10 -135 -17 -153 -10 -30 -8 -37 25 -87 28 -43 36
-65 36 -102 1 -33 8 -61 25 -88 14 -22 25 -50 25 -63 0 -12 7 -33 15 -45 7
-12 23 -62 35 -110 11 -49 27 -101 35 -117 35 -67 13 -224 -50 -357 -35 -74
-48 -93 -65 -93 -26 0 -77 -25 -108 -54 l-23 -21 -66 35 c-63 34 -65 34 -79
16 -26 -36 -17 -71 37 -142 28 -36 55 -78 58 -93 7 -25 11 -26 84 -29 42 -2
77 -6 77 -11 0 -4 -9 -16 -20 -26 -17 -15 -20 -31 -20 -96 0 -61 -5 -86 -21
-113 -14 -24 -22 -58 -24 -103 -2 -38 -13 -97 -24 -133 -12 -36 -21 -84 -21
-107 0 -25 -10 -60 -25 -89 -14 -26 -25 -57 -25 -69 0 -12 -9 -30 -20 -40 -10
-9 -24 -34 -31 -54 -6 -20 -20 -52 -29 -71 -12 -22 -20 -67 -24 -122 -3 -48
-21 -167 -41 -265 -41 -201 -36 -192 -160 -286 -74 -57 -87 -63 -180 -84 -192
-43 -358 -41 -506 8 -35 12 -90 21 -122 21 -46 0 -64 5 -85 23 -17 14 -47 25
-82 30 -78 10 -133 39 -209 110 -36 34 -83 73 -104 87 -25 17 -47 44 -61 75
-14 30 -51 74 -95 116 l-73 68 -19 92 c-10 51 -19 134 -19 187 0 73 -5 105
-21 140 -19 42 -19 46 -3 75 15 29 15 33 -1 65 -12 22 -19 66 -23 125 -2 49
-9 96 -14 102 -6 7 -22 45 -37 85 -22 61 -32 76 -58 88 -24 11 -34 24 -39 48
-4 23 -12 32 -25 32 -29 0 -152 118 -164 156 -6 18 -22 45 -36 61 -56 61 -88
110 -94 146 -4 20 -16 48 -26 61 -16 21 -19 42 -19 148 0 67 3 153 6 189 l7
67 50 5 c58 5 73 20 83 83 3 24 8 44 11 44 3 0 43 -12 90 -26 75 -24 89 -25
124 -15 37 11 40 14 34 40 -5 22 0 36 20 59 14 16 25 37 25 47 0 27 -53 72
-100 85 -51 14 -65 4 -50 -34 5 -15 7 -32 4 -37 -8 -14 -94 0 -124 21 -87 60
-150 9 -85 -68 37 -44 32 -52 -30 -52 -50 0 -56 2 -70 30 -13 26 -21 30 -55
30 -31 0 -48 -8 -85 -40 -25 -22 -50 -40 -55 -40 -15 0 -30 36 -30 72 0 38
-25 79 -119 201 -34 43 -61 85 -61 93 0 30 75 -17 160 -101 95 -94 134 -115
214 -115 84 0 99 18 164 205 19 54 52 223 52 266 0 27 -9 58 -26 87 l-26 44
26 50 c14 27 26 58 26 69 0 12 7 19 20 19 37 0 47 64 15 100 -9 10 -41 36 -71
56 -45 31 -54 42 -59 78 -4 22 -24 111 -45 196 -22 86 -43 203 -49 263 -13
149 -35 181 -112 158 -33 -10 -39 -16 -39 -39 0 -54 -21 -100 -75 -162 -31
-35 -59 -78 -63 -94 -7 -28 -16 -33 -85 -54 -91 -28 -152 -24 -195 13 l-27 23
28 11 c25 10 27 15 27 64 0 93 -34 107 -181 77 -52 -11 -101 -20 -109 -20 -8
0 -25 23 -37 50 l-22 50 38 0 c21 0 65 -12 96 -26 54 -25 62 -26 116 -16 32 6
86 23 119 38 l60 27 0 84 c0 57 -5 96 -16 118 -14 31 -14 36 1 59 9 13 40 42
68 63 29 22 78 59 109 82 32 24 68 59 80 79 l21 35 -22 18 c-31 25 -71 24
-164 -6 -81 -26 -151 -32 -162 -15 -4 6 8 10 28 10 21 0 48 10 73 28 23 17 59
31 87 35 65 9 91 24 181 106 74 67 81 71 126 71 27 0 97 15 160 35 61 19 127
35 146 35 40 0 80 18 108 49 28 31 117 29 182 -4 56 -29 100 -27 130 6 15 16
19 36 19 86 0 73 -4 78 -69 88 -28 5 -36 9 -28 17 18 18 81 11 109 -12 14 -11
41 -20 59 -20 18 0 39 -7 46 -15 33 -39 41 -45 62 -45 25 0 37 -11 90 -88 40
-57 41 -85 4 -80 -17 2 -23 -2 -23 -16 0 -18 13 -29 48 -40 12 -4 17 -16 17
-41 0 -23 6 -38 15 -41 21 -9 45 14 45 42 0 13 5 24 10 24 6 0 10 -7 10 -15 0
-25 80 -105 104 -105 12 0 32 7 44 16 22 15 25 15 45 -4 36 -33 64 -43 89 -33
13 5 46 12 75 16 46 6 53 4 65 -14 24 -39 127 -22 175 30 37 41 44 71 29 141
-8 40 -10 85 -6 123 4 33 4 70 -1 81 -4 12 -38 54 -76 92 -52 54 -78 73 -112
82 -65 17 -112 5 -156 -40 l-37 -38 7 -84 c10 -121 -7 -134 -129 -92 -46 17
-56 12 -56 -27 0 -16 -4 -29 -9 -29 -5 0 -45 40 -89 88 -49 53 -97 96 -121
106 -21 10 -41 27 -44 37 -3 10 -17 23 -31 29 -15 5 -26 17 -26 29 0 12 -9 21
-27 25 -187 41 -280 56 -350 56 -65 0 -83 3 -83 14 0 15 55 66 71 66 5 0 46
35 92 79 94 89 98 91 259 92 113 0 121 4 133 51 10 39 39 42 298 33 l221 -7
45 -50 c25 -28 54 -66 64 -85 10 -20 27 -37 37 -40 12 -3 32 -42 64 -123 63
-161 78 -232 85 -390 l6 -134 35 -8 c49 -10 67 14 75 100 3 37 11 76 16 87 7
14 5 33 -6 64 -8 24 -15 65 -15 90 0 38 -13 73 -64 177 -36 71 -68 143 -72
159 -4 18 -35 58 -79 100 -39 39 -77 78 -84 88 -23 30 27 21 109 -21z m-2587
-194 c-38 -41 -53 -69 -53 -101 0 -38 -80 -107 -125 -107 -33 0 -35 1 -29 28
11 47 43 107 73 136 33 32 117 75 145 76 17 0 16 -4 -11 -32z m1218 -322 c-12
-13 -21 -36 -21 -54 0 -26 5 -33 26 -38 39 -10 14 -26 -43 -27 -156 -4 -242
11 -165 29 15 4 32 11 39 16 18 14 4 38 -23 38 -45 0 -24 17 49 38 150 45 181
44 138 -2z m-275 -145 c-7 -11 -56 -20 -73 -14 -28 11 -11 23 33 23 25 0 43
-4 40 -9z m-1218 -43 c-3 -7 -13 -15 -24 -17 -16 -3 -17 -1 -5 13 16 19 34 21
29 4z m2572 -8 c0 -11 -4 -20 -10 -20 -5 0 -10 9 -10 20 0 11 5 20 10 20 6 0
10 -9 10 -20z m-324 -45 c4 -8 4 -22 0 -30 -7 -19 -36 -8 -36 14 0 32 26 43
36 16z m-2424 -497 c19 -34 31 -44 71 -55 26 -8 50 -20 54 -28 3 -9 19 -15 39
-15 28 0 47 -12 108 -67 l73 -68 -21 -24 c-27 -30 -76 -51 -119 -51 -25 0 -41
8 -60 30 -18 20 -37 30 -55 30 -23 0 -37 12 -74 63 -42 58 -46 67 -52 145 -4
50 -3 82 3 82 5 0 20 -19 33 -42z m1032 -778 c22 -8 26 -16 26 -47 0 -47 -10
-84 -20 -78 -16 10 -69 -17 -76 -38 -19 -61 -59 -129 -85 -144 -23 -13 -29
-25 -29 -50 0 -38 -35 -137 -62 -176 -19 -26 -19 -39 -13 -220 4 -120 3 -201
-3 -217 l-10 -25 -12 30 c-9 21 -11 73 -7 173 l6 143 -26 10 c-28 10 -28 21
-2 140 11 47 10 60 -3 87 -16 31 -16 32 18 62 19 16 45 32 59 36 17 4 32 22
50 61 14 31 25 63 25 72 0 10 -14 39 -32 66 -18 27 -28 50 -23 52 6 2 44 19
85 38 81 37 95 40 134 25z m-950 -501 c24 -7 40 -18 43 -30 4 -15 14 -19 50
-19 36 0 46 -4 50 -20 3 -11 14 -20 24 -20 24 0 99 -99 99 -132 0 -26 -18 -47
-58 -67 -28 -15 -49 -2 -54 32 -2 14 -14 24 -37 30 -37 9 -151 102 -151 122 0
7 -17 15 -37 19 -30 4 -44 1 -63 -14 -14 -12 -33 -23 -42 -27 -11 -3 -18 -15
-18 -32 0 -15 -11 -42 -25 -61 -29 -39 -31 -70 -15 -214 7 -58 7 -101 1 -117
l-9 -24 -11 28 c-6 16 -11 85 -11 153 l0 125 41 87 c67 145 69 147 109 175 28
20 59 21 114 6z m31 -489 c10 -11 27 -22 38 -26 18 -6 19 -12 14 -68 -3 -33
-18 -99 -32 -145 -36 -122 -34 -164 12 -214 28 -32 43 -41 64 -39 43 5 100
-15 153 -53 52 -37 93 -45 102 -20 5 13 9 13 22 3 24 -20 40 -69 56 -167 8
-49 22 -103 30 -120 11 -21 16 -58 16 -123 l0 -94 -35 -12 c-30 -12 -36 -11
-54 7 -11 11 -34 27 -50 36 -20 10 -31 23 -31 36 0 19 -36 57 -66 69 -7 3 -23
21 -36 40 -13 19 -61 64 -107 99 -46 36 -92 79 -103 97 -12 20 -29 34 -47 37
-18 4 -42 22 -63 48 -18 23 -45 55 -60 70 -24 23 -28 35 -28 84 0 63 19 73 31
16 4 -17 14 -40 22 -49 8 -9 21 -31 29 -48 15 -36 135 -146 184 -169 38 -18
91 -19 122 -2 l22 13 -28 45 c-32 50 -85 95 -149 127 -30 16 -43 29 -48 52 -4
16 -16 37 -28 45 -21 15 -22 22 -22 213 0 108 3 205 7 215 10 23 41 22 63 -3z
m383 -352 c1 -104 -1 -188 -6 -188 -17 0 -32 25 -32 55 0 23 -14 50 -51 96
-44 56 -49 69 -46 100 3 20 17 58 32 83 26 44 30 47 64 44 l36 -3 3 -187z
m-608 58 c-1 -105 -18 -80 -26 36 -5 77 -4 81 10 64 12 -15 16 -42 16 -100z
m1804 -1108 c3 -40 15 -125 26 -188 10 -63 22 -150 25 -192 5 -51 12 -78 21
-82 10 -4 14 -23 14 -59 0 -31 11 -88 25 -131 14 -42 25 -85 25 -95 0 -10 9
-26 21 -37 12 -10 35 -45 51 -78 16 -32 57 -89 91 -126 72 -79 87 -97 87 -105
0 -18 -138 41 -139 60 -1 12 -71 75 -84 75 -16 0 -107 63 -107 74 0 6 -21 42
-45 80 -25 38 -45 77 -45 86 0 10 -6 23 -14 29 -7 6 -16 29 -19 52 -3 22 -17
55 -31 73 -19 25 -28 54 -37 121 -6 49 -24 136 -40 194 l-28 106 22 82 c15 57
27 83 37 83 8 1 35 12 60 25 72 38 76 36 84 -47z"/>
<path d="M5140 11528 c-87 -11 -210 -50 -253 -80 -25 -18 -28 -25 -23 -56 6
-42 14 -48 78 -56 28 -4 67 -14 88 -22 35 -14 41 -14 72 3 29 16 59 18 263 18
198 0 234 2 261 17 35 19 44 35 44 78 0 38 -9 60 -25 60 -8 0 -27 11 -43 25
-30 25 -32 25 -208 24 -99 -1 -213 -6 -254 -11z"/>
<path d="M4866 11245 c-44 -23 -126 -95 -158 -139 -30 -42 -38 -108 -18 -147
16 -29 64 -49 116 -49 42 0 50 4 78 37 17 20 44 49 59 65 50 49 46 141 -10
216 -28 37 -28 37 -67 17z"/>
<path d="M6284 10487 c-55 -66 -29 -77 181 -77 72 0 147 3 168 6 36 6 37 8 37
50 0 43 -1 44 -32 44 -18 1 -100 2 -182 3 l-148 2 -24 -28z"/>
<path d="M6993 10470 c-13 -5 -23 -13 -23 -18 0 -5 -21 -17 -47 -27 -26 -10
-82 -42 -125 -72 -43 -29 -89 -53 -101 -53 -12 0 -42 -10 -67 -21 -69 -32
-130 -33 -293 -9 -136 20 -266 24 -282 8 -4 -3 -3 -26 2 -50 l9 -43 119 -5
c88 -4 131 -11 160 -25 52 -24 185 -25 275 -1 111 29 129 37 135 57 4 11 19
22 34 25 16 3 51 24 80 45 28 21 60 39 70 39 10 0 47 19 81 41 62 42 92 81 74
98 -15 15 -77 21 -101 11z"/>
<path d="M5875 10330 c-10 -16 15 -80 31 -80 21 0 46 61 32 78 -13 15 -54 16
-63 2z"/>
<path d="M5750 10286 c0 -44 1 -46 28 -46 41 0 54 13 50 51 -3 31 -6 34 -40
37 l-38 3 0 -45z"/>
<path d="M5355 10194 c-62 -32 -85 -74 -49 -88 46 -18 150 8 181 46 10 11 9
19 -3 36 -19 27 -83 30 -129 6z"/>
<path d="M5465 10000 c-5 -16 -11 -19 -23 -13 -28 13 -127 9 -145 -6 -11 -8
-17 -29 -17 -54 0 -28 -7 -48 -22 -64 -14 -15 -30 -57 -44 -116 -11 -51 -30
-124 -41 -163 l-21 -72 24 -12 c36 -20 69 0 100 62 55 109 69 125 131 148 32
12 69 31 81 43 22 20 34 22 150 21 81 0 155 -6 205 -17 116 -26 215 -32 292
-17 72 14 85 28 85 89 0 58 -104 135 -193 144 -32 3 -71 14 -85 24 -24 16 -55
18 -249 21 -219 4 -221 4 -228 -18z"/>
<path d="M7101 9800 c-24 -17 -50 -30 -56 -30 -14 0 -30 -64 -20 -80 3 -6 15
-10 25 -10 35 0 31 -18 -14 -65 -64 -66 -112 -205 -71 -205 21 0 115 87 150
140 17 25 44 52 61 61 18 8 47 28 65 43 39 33 78 30 119 -8 21 -20 29 -22 48
-13 20 9 23 16 18 40 -3 16 -6 37 -6 47 0 38 -134 70 -198 47 -21 -8 -23 -7
-17 13 5 15 1 26 -12 35 -27 21 -43 18 -92 -15z"/>
<path d="M6053 9680 c-19 -8 -23 -17 -23 -50 0 -22 4 -40 8 -40 4 0 27 -29 50
-64 47 -71 90 -113 129 -122 20 -5 30 -1 47 21 l22 28 21 -34 21 -33 -28 -56
c-15 -31 -48 -80 -73 -109 -44 -54 -44 -54 -32 -95 7 -23 18 -40 25 -38 6 1
31 8 55 14 32 9 58 9 95 2 45 -10 52 -8 69 10 11 12 30 44 42 71 12 28 29 59
39 70 15 17 17 29 10 76 -10 72 -36 122 -111 211 -34 40 -66 80 -73 89 -6 9
-24 17 -40 17 -18 0 -37 8 -47 21 -15 18 -27 21 -101 20 -45 0 -93 -4 -105 -9z"/>
<path d="M5738 9570 c-14 -11 -34 -20 -45 -20 -21 0 -72 -30 -128 -75 -22 -18
-55 -40 -72 -49 -36 -18 -43 -49 -23 -100 9 -23 12 -24 41 -14 18 6 60 39 94
73 44 43 79 68 121 85 70 28 116 66 112 95 -4 29 -65 33 -100 5z"/>
<path d="M7194 9560 c-14 -6 -23 -21 -28 -47 -3 -21 -21 -57 -41 -82 -24 -30
-35 -54 -35 -77 0 -40 22 -49 110 -48 54 0 56 2 123 66 72 69 81 96 53 148
-20 36 -132 61 -182 40z"/>
<path d="M5840 9484 c-25 -7 -56 -14 -68 -14 -16 0 -26 -7 -29 -20 -3 -12 -18
-27 -33 -35 -15 -8 -59 -41 -98 -73 -83 -70 -126 -98 -164 -107 -22 -6 -28
-13 -28 -34 0 -50 25 -71 83 -71 l52 0 140 135 140 135 77 0 c42 0 83 -3 92
-6 10 -4 17 -25 22 -64 6 -54 8 -58 35 -64 33 -6 59 1 59 18 0 6 -11 35 -25
64 -14 30 -25 62 -25 71 0 10 -23 30 -53 49 -59 36 -103 40 -177 16z"/>
<path d="M5860 9320 c-61 -15 -101 -80 -116 -193 -6 -44 -6 -45 24 -51 19 -5
49 0 88 14 33 12 79 27 103 34 49 14 61 30 64 85 1 47 -16 71 -53 71 -19 0
-33 8 -44 25 -9 14 -20 25 -24 24 -4 -1 -23 -5 -42 -9z"/>
<path d="M7153 9261 c-53 -25 -74 -59 -47 -78 20 -15 42 -17 134 -13 36 1 67
6 68 11 2 6 15 23 29 40 35 41 22 51 -69 56 -57 3 -82 0 -115 -16z"/>
<path d="M6579 9148 c-7 -18 -14 -67 -14 -108 l0 -75 77 -78 c42 -42 84 -77
92 -77 41 0 45 94 6 143 -11 14 -20 38 -20 54 0 15 -12 61 -27 101 -27 71 -28
72 -64 72 -32 0 -38 -4 -50 -32z"/>
<path d="M7233 9090 c-18 -7 -23 -17 -23 -44 0 -56 8 -66 50 -66 63 0 90 45
53 88 -22 25 -51 33 -80 22z"/>
<path d="M5560 9031 c-5 -11 -10 -33 -10 -50 0 -25 5 -31 34 -41 19 -6 47 -20
61 -32 55 -43 253 -5 283 55 35 71 13 93 -58 56 -49 -26 -114 -22 -218 11 -78
25 -79 25 -92 1z"/>
<path d="M5015 8900 c-9 -15 6 -61 19 -57 18 6 19 54 2 60 -9 3 -18 2 -21 -3z"/>
<path d="M5002 8758 c-23 -23 -13 -38 23 -38 22 0 35 5 35 13 0 16 -20 37 -35
37 -6 0 -16 -5 -23 -12z"/>
<path d="M6463 8628 c-28 -14 -29 -29 -3 -53 11 -10 20 -24 20 -32 0 -9 15
-13 53 -13 51 0 55 2 81 38 l26 37 -21 18 c-24 20 -119 23 -156 5z"/>
<path d="M7167 8518 c-9 -36 -104 -189 -139 -225 -31 -32 -34 -33 -115 -33
-74 0 -88 3 -131 30 -96 59 -189 76 -248 45 -16 -8 -52 -15 -80 -15 l-51 0 -7
48 c-4 26 -20 72 -35 102 l-28 54 -31 -30 c-39 -39 -52 -88 -52 -196 0 -83 1
-87 28 -106 38 -28 97 -42 172 -42 58 0 71 -4 120 -36 30 -20 69 -50 86 -66
38 -35 114 -46 186 -26 39 11 57 25 115 92 41 49 80 83 98 89 42 13 70 41 127
125 48 71 49 74 46 140 -3 64 -4 67 -29 70 -21 2 -28 -2 -32 -20z"/>
<path d="M6730 8475 c-14 -17 -6 -62 17 -87 20 -22 71 -23 94 -2 34 31 -12
104 -66 104 -18 0 -38 -7 -45 -15z"/>
<path d="M5986 8317 c-23 -23 -57 -53 -76 -66 -19 -14 -71 -57 -115 -96 -44
-39 -97 -84 -117 -99 -21 -16 -38 -36 -38 -46 0 -10 -7 -23 -15 -30 -22 -18
-15 -49 16 -73 23 -17 31 -18 62 -8 40 14 97 72 97 100 0 11 12 24 31 31 17 7
49 37 71 67 23 30 48 53 59 53 10 0 25 13 34 29 8 16 30 39 49 50 28 18 35 29
41 68 11 77 -36 87 -99 20z"/>
<path d="M5492 8112 c-7 -5 -16 -23 -21 -40 -8 -27 -7 -34 9 -42 40 -21 90 -8
90 24 0 47 -12 66 -39 66 -14 0 -32 -4 -39 -8z"/>
<path d="M7143 8051 c-23 -16 -53 -46 -68 -65 -15 -20 -34 -36 -43 -36 -8 0
-35 -12 -59 -26 -44 -25 -48 -26 -355 -36 -331 -10 -544 -2 -648 27 -94 25
-136 19 -189 -29 -29 -27 -43 -61 -35 -91 7 -28 23 -33 87 -24 26 3 50 2 52
-2 11 -17 149 -79 165 -74 10 3 23 19 30 35 23 56 14 55 409 55 362 0 367 0
439 24 94 32 108 21 50 -41 -24 -26 -56 -50 -72 -54 -16 -4 -45 -17 -63 -30
-46 -31 -104 -38 -242 -30 -242 13 -274 18 -291 38 -17 21 -84 34 -125 24 -24
-6 -26 -10 -23 -54 l3 -47 61 -15 c33 -8 69 -23 79 -33 12 -13 26 -16 42 -12
19 4 31 0 48 -19 30 -32 94 -40 300 -34 149 4 167 6 212 29 57 30 155 148 205
247 18 35 49 81 70 103 21 21 38 47 38 57 1 9 14 41 30 71 16 30 27 58 24 63
-3 4 -24 8 -48 8 -32 0 -54 -8 -83 -29z"/>
<path d="M7097 7582 c-3 -15 -22 -50 -41 -77 -20 -28 -43 -60 -51 -71 -9 -12
-19 -39 -22 -59 -7 -44 5 -55 59 -55 34 0 38 3 62 53 41 84 52 188 24 225 -16
19 -25 14 -31 -16z"/>
<path d="M6142 7514 c-12 -8 -27 -24 -33 -36 -9 -16 -6 -25 14 -47 13 -14 30
-36 36 -48 6 -12 35 -33 63 -47 29 -15 85 -47 123 -71 123 -79 179 -93 226
-56 18 14 46 19 109 23 70 3 99 10 153 36 60 28 67 34 58 50 -16 31 -53 49
-81 41 -47 -13 -135 -9 -259 14 -109 21 -126 26 -143 50 -11 15 -26 27 -33 27
-7 0 -51 18 -96 40 -92 45 -105 47 -137 24z"/>
<path d="M8745 11430 c-10 -11 -26 -20 -36 -20 -11 0 -28 -19 -46 -52 -19 -36
-35 -54 -50 -56 -13 -2 -23 -10 -23 -18 0 -17 -103 -101 -150 -121 -19 -8 -86
-67 -148 -131 -108 -111 -113 -119 -108 -151 3 -19 9 -38 14 -43 10 -10 105
65 277 216 61 54 158 139 217 189 107 92 107 92 108 138 0 40 -13 69 -30 69
-4 0 -15 -9 -25 -20z"/>
<path d="M9385 11245 c-39 -36 -93 -78 -121 -95 -29 -16 -80 -61 -115 -99 -35
-39 -70 -71 -77 -71 -8 0 -25 -9 -39 -20 -14 -11 -33 -20 -42 -20 -10 0 -27
-13 -39 -29 -12 -16 -46 -43 -77 -61 -31 -17 -68 -47 -83 -66 -15 -19 -35 -34
-45 -34 -10 0 -36 -18 -58 -40 -22 -22 -47 -40 -56 -40 -8 0 -31 -13 -50 -30
-18 -16 -42 -30 -52 -30 -10 0 -23 -11 -29 -24 -6 -14 -29 -35 -52 -48 -22
-13 -42 -30 -45 -39 -3 -9 -23 -30 -45 -48 -40 -32 -51 -66 -29 -88 15 -15 69
1 91 27 9 11 23 20 30 20 8 0 25 12 39 26 34 37 227 194 247 201 9 3 35 20 57
38 22 18 54 39 71 48 18 9 44 37 58 62 23 38 32 45 58 45 22 0 41 11 71 41 23
22 66 54 97 69 34 18 64 42 78 65 14 22 39 43 65 54 23 10 53 31 67 46 14 15
45 41 70 57 58 39 70 55 70 91 0 25 -22 56 -40 57 -3 0 -37 -29 -75 -65z"/>
<path d="M1858 11253 c-17 -4 -42 -69 -32 -84 3 -5 37 -27 76 -50 39 -23 87
-57 108 -75 21 -19 48 -34 61 -34 13 0 37 -13 54 -29 16 -16 82 -61 145 -99
78 -47 125 -82 145 -110 19 -26 38 -41 52 -41 12 -1 37 -14 55 -29 53 -45 81
-62 105 -62 12 0 27 -9 33 -19 10 -20 154 -111 174 -111 6 1 21 6 34 13 l23
13 -23 35 c-13 18 -61 59 -106 89 -46 30 -88 63 -93 73 -6 10 -22 17 -38 17
-21 0 -38 10 -60 35 -17 20 -31 39 -31 44 0 5 -20 16 -46 26 -25 9 -59 32 -77
49 -18 18 -58 45 -89 59 -32 14 -79 46 -106 71 -27 25 -58 46 -69 46 -11 0
-28 9 -39 21 -10 12 -49 41 -86 64 -37 24 -74 55 -84 69 -16 25 -41 31 -86 19z"/>
<path d="M2390 11211 c0 -31 4 -41 20 -46 11 -4 67 -50 123 -102 56 -53 120
-104 142 -114 52 -24 135 -26 135 -3 0 16 -55 74 -71 74 -5 0 -15 13 -23 29
-10 18 -26 30 -44 34 -17 3 -63 36 -105 71 -70 62 -127 96 -162 96 -11 0 -15
-11 -15 -39z"/>
<path d="M9420 10629 c-6 -11 -44 -41 -83 -66 -40 -25 -83 -56 -97 -68 -14
-12 -37 -25 -51 -28 -14 -4 -63 -31 -108 -62 -46 -30 -98 -59 -117 -64 -18 -5
-47 -25 -63 -44 -17 -19 -44 -37 -60 -40 -16 -3 -52 -29 -81 -57 -37 -36 -59
-50 -79 -50 -16 0 -34 -7 -41 -15 -7 -9 -44 -32 -83 -52 -61 -33 -107 -77
-107 -105 0 -12 69 -9 93 3 12 7 48 34 80 60 32 27 64 49 70 49 6 0 27 11 47
25 20 14 49 26 64 27 16 2 31 9 34 18 10 24 67 77 93 85 13 4 76 34 139 66 64
33 121 59 127 59 6 0 13 9 16 20 4 14 14 20 34 20 15 0 43 9 61 20 18 11 44
20 57 20 14 0 25 4 25 10 0 20 63 79 95 90 33 11 35 14 35 56 l0 44 -45 0
c-35 0 -47 -5 -55 -21z"/>
<path d="M1842 10158 c-27 -27 -14 -56 41 -86 28 -16 79 -45 112 -66 33 -20
77 -39 98 -43 24 -3 46 -16 62 -34 13 -16 29 -29 36 -29 32 0 91 -26 121 -53
18 -17 43 -31 55 -32 12 0 33 -11 46 -23 13 -13 36 -22 54 -22 17 0 37 -8 48
-20 10 -11 31 -20 46 -20 16 0 34 -8 41 -18 30 -43 102 -56 131 -24 10 10 17
23 16 28 0 17 -81 74 -103 74 -13 0 -33 11 -45 24 -13 14 -46 33 -74 43 -27
10 -59 28 -71 40 -15 17 -33 23 -63 23 -36 0 -43 3 -43 20 0 21 -27 40 -58 40
-10 0 -27 9 -36 19 -10 11 -32 23 -48 26 -17 4 -38 15 -47 24 -10 10 -33 20
-52 24 -19 3 -70 26 -114 51 -80 46 -130 57 -153 34z"/>
<path d="M9135 10123 c-16 -8 -39 -24 -50 -33 -11 -10 -44 -27 -73 -38 -29
-12 -68 -32 -85 -45 -18 -13 -47 -28 -65 -32 -21 -4 -36 -15 -41 -29 -6 -14
-24 -25 -54 -33 -26 -7 -86 -35 -134 -63 -48 -28 -105 -55 -126 -61 -37 -10
-38 -11 -35 -52 3 -38 5 -42 28 -40 14 1 108 45 210 96 102 52 201 100 221
106 22 7 39 20 42 31 4 15 14 20 37 20 23 0 44 10 69 33 21 18 58 42 84 53 48
20 54 31 41 82 -7 26 -27 27 -69 5z"/>
<path d="M1842 9698 c-7 -7 -12 -22 -12 -35 0 -17 11 -27 50 -44 28 -12 50
-25 50 -30 0 -5 17 -9 38 -9 20 0 51 -9 67 -20 17 -11 43 -20 58 -20 16 0 49
-9 75 -19 26 -11 62 -22 80 -25 19 -3 42 -16 52 -28 15 -19 26 -22 70 -20 39
2 59 -3 81 -19 17 -12 49 -23 72 -26 23 -3 49 -11 57 -19 8 -7 36 -18 62 -24
26 -7 57 -20 68 -30 11 -10 48 -23 81 -29 34 -6 67 -15 74 -21 15 -13 25 7 25
50 0 24 -5 29 -36 35 -20 3 -46 17 -58 31 -16 18 -34 25 -77 28 -31 3 -74 14
-95 25 -22 12 -57 21 -81 21 -23 0 -45 5 -49 11 -12 20 -128 69 -163 69 -20 0
-68 17 -115 40 -51 25 -102 43 -136 46 -37 5 -63 14 -80 29 -14 12 -35 28 -47
34 -29 15 -96 14 -111 -1z"/>
<path d="M1738 9549 c-9 -5 -21 -23 -28 -40 -11 -26 -11 -32 1 -40 24 -16 169
-59 197 -59 15 0 56 -14 92 -31 36 -17 127 -53 202 -79 75 -27 155 -58 177
-69 22 -12 54 -21 70 -21 17 0 79 -16 138 -36 114 -38 199 -51 222 -35 23 15
-5 91 -33 91 -12 0 -50 10 -86 21 -36 12 -90 25 -120 29 -30 4 -80 17 -110 28
-30 12 -88 30 -127 42 -43 12 -87 32 -105 49 -25 21 -47 29 -88 34 -32 3 -108
26 -180 55 -140 57 -200 73 -222 61z"/>
<path d="M10310 9165 c-11 -13 -57 -15 -305 -15 l-293 0 -30 -25 -29 -24 -39
19 c-21 11 -57 20 -80 20 -33 0 -45 -5 -58 -25 -22 -34 -59 -33 -85 3 -17 24
-21 25 -34 12 -24 -24 -30 -85 -11 -101 9 -7 38 -45 64 -84 26 -38 59 -81 74
-94 l26 -24 0 -174 0 -173 25 -6 c32 -8 39 -36 31 -127 -7 -83 6 -182 29 -207
12 -14 15 -50 15 -203 0 -177 1 -186 20 -192 18 -6 20 -15 20 -110 0 -100 1
-105 25 -121 l25 -16 0 -303 c0 -289 1 -303 20 -320 18 -16 20 -31 20 -160 0
-129 -2 -144 -20 -160 -18 -17 -20 -31 -20 -177 0 -146 -2 -161 -21 -187 -12
-16 -24 -50 -26 -75 -4 -32 -12 -50 -24 -57 -29 -15 -23 -52 16 -89 19 -19 35
-38 35 -42 0 -4 -16 -8 -35 -8 l-35 0 0 -50 c0 -32 -8 -66 -21 -91 -20 -39
-20 -56 -22 -657 -1 -339 2 -636 7 -659 9 -49 19 -53 53 -21 18 16 26 19 32
10 12 -19 122 -72 152 -72 14 0 32 6 38 14 8 9 12 91 14 259 1 135 5 249 9
253 4 4 18 -5 30 -21 46 -58 139 -73 191 -29 28 24 37 25 126 24 134 -2 129
-4 136 29 3 17 20 48 36 70 25 36 29 49 29 111 0 67 -1 70 -30 85 -16 9 -30
22 -30 31 0 9 25 42 57 75 l56 59 227 0 c208 0 230 2 251 19 20 16 21 21 10
35 -12 14 -49 16 -303 16 -286 0 -290 0 -317 -22 -26 -23 -32 -23 -288 -23
-144 0 -264 3 -268 6 -3 4 20 32 52 63 l58 56 172 0 c94 0 178 3 187 6 11 4
16 19 16 49 l0 42 -46 7 c-26 3 -118 6 -205 6 l-159 0 -16 -25 -17 -26 -19 21
c-11 12 -25 19 -32 16 -6 -3 -37 -15 -69 -28 l-58 -23 2 -45 c1 -25 1 -61 -1
-80 -2 -33 -3 -33 -10 -10 -10 31 -12 132 -4 183 l7 37 129 0 c102 0 136 4
166 18 33 15 89 18 552 22 l514 5 7 32 c3 17 16 48 28 68 18 31 21 52 21 144
0 82 4 111 14 120 8 7 22 35 32 62 10 27 26 57 36 66 17 15 18 15 18 -7 0 -12
14 -38 30 -57 17 -18 30 -45 30 -58 0 -22 -4 -25 -38 -25 -56 0 -62 -11 -62
-120 0 -84 -2 -97 -20 -108 -20 -12 -20 -23 -20 -686 0 -370 -3 -721 -7 -779
l-6 -107 -30 0 c-41 0 -126 56 -120 79 11 42 -18 101 -77 160 -33 32 -60 64
-60 70 0 7 -28 11 -79 11 -71 0 -80 -2 -86 -20 -3 -11 -15 -25 -26 -30 -17 -9
-19 -22 -19 -98 l0 -87 50 -40 c37 -29 50 -46 50 -66 0 -14 9 -34 20 -44 10
-9 24 -34 31 -54 6 -20 18 -47 27 -61 22 -35 26 -145 9 -290 -10 -84 -11 -145
-6 -185 5 -36 5 -70 -1 -85 -5 -14 -23 -77 -39 -142 -16 -64 -41 -135 -55
-157 -15 -23 -33 -61 -41 -85 -8 -24 -35 -79 -60 -122 -25 -44 -52 -101 -60
-127 -8 -27 -26 -62 -39 -78 -23 -27 -56 -113 -56 -146 0 -8 -10 -17 -22 -22
-18 -6 -25 -24 -40 -92 l-18 -84 21 -17 c41 -35 54 -24 112 90 30 59 65 136
77 171 13 39 37 82 61 109 86 98 218 373 248 515 22 107 46 167 65 167 7 0 25
-9 39 -20 14 -11 31 -20 39 -20 7 1 27 32 44 69 28 61 36 69 65 75 47 9 153
101 156 135 1 14 11 32 23 40 14 10 20 24 20 54 0 26 6 44 18 53 16 11 17 36
15 300 -2 240 -5 289 -17 303 -14 15 -14 19 1 34 21 20 20 88 -2 99 -13 8 -15
75 -15 545 l0 537 27 28 c15 15 35 28 45 28 11 0 18 7 18 19 0 10 7 25 16 32
30 25 35 61 28 201 l-7 138 -49 36 c-27 19 -65 42 -84 51 -31 15 -34 20 -34
62 0 92 -27 116 -76 70 l-22 -20 -6 25 c-7 30 9 112 30 143 20 31 20 276 0
315 -13 24 -13 29 1 36 23 13 15 217 -10 255 -14 22 -17 51 -17 185 l0 159
-38 41 c-37 40 -38 42 -20 58 25 23 23 59 -7 122 -25 55 -25 72 1 72 20 0 17
27 -6 50 -17 17 -20 33 -20 100 l0 80 -34 0 c-50 0 -54 18 -6 26 l40 7 0 86
c0 108 -13 156 -54 197 -29 29 -30 33 -14 37 16 5 18 18 18 162 0 142 -2 159
-20 182 -16 20 -20 41 -20 98 0 70 -1 73 -25 79 -18 5 -27 15 -31 36 -4 16
-14 32 -24 35 -26 8 -99 91 -116 130 -19 46 -18 55 6 55 17 0 20 -7 20 -40 0
-22 5 -40 11 -40 6 0 41 -29 77 -64 37 -36 79 -67 95 -71 26 -7 27 -5 27 28 0
40 -17 61 -66 82 -19 8 -34 18 -33 22 5 29 -6 51 -46 90 -25 24 -45 50 -45 58
0 11 -12 15 -37 15 -21 0 -47 7 -57 15 -29 22 -398 22 -416 0z m300 -117 c0
-11 11 -36 25 -54 32 -42 45 -77 38 -103 -5 -21 -9 -21 -298 -21 l-294 0 -21
-30 c-17 -24 -28 -29 -56 -28 -28 1 -38 7 -50 30 -13 26 -19 28 -77 30 -98 3
-111 0 -132 -26 -17 -21 -30 -26 -76 -27 -64 -2 -79 4 -79 32 0 37 57 51 185
43 l113 -7 25 27 c24 25 47 92 47 135 0 21 4 21 325 21 l325 0 0 -22z m95
-268 c-3 -5 -17 -10 -31 -10 -13 0 -24 5 -24 10 0 6 14 10 31 10 17 0 28 -4
24 -10z m-175 -20 c0 -11 -4 -20 -9 -20 -5 0 -11 9 -14 20 -3 13 0 20 9 20 8
0 14 -9 14 -20z m-750 -20 c0 -5 -11 -10 -25 -10 -14 0 -25 5 -25 10 0 6 11
10 25 10 14 0 25 -4 25 -10z m415 -45 c0 -5 -10 -11 -22 -13 -16 -2 -23 2 -23
13 0 11 7 15 23 13 12 -2 22 -7 22 -13z m410 0 c0 -5 -10 -11 -22 -13 -16 -2
-23 2 -23 13 0 11 7 15 23 13 12 -2 22 -7 22 -13z m-165 -26 c0 -10 -4 -19
-10 -19 -5 0 -10 12 -10 26 0 14 4 23 10 19 6 -3 10 -15 10 -26z m-565 -19
c-3 -5 -17 -10 -31 -10 -13 0 -24 5 -24 10 0 6 14 10 31 10 17 0 28 -4 24 -10z
m243 -14 c5 -25 -16 -45 -27 -27 -11 17 -2 53 13 48 6 -2 13 -12 14 -21z
m-158 -29 c0 -7 -9 -13 -20 -14 -11 -1 -20 4 -20 13 0 8 9 14 20 14 11 0 20
-6 20 -13z m430 -2 c21 -25 -3 -65 -39 -65 -34 0 -46 28 -24 59 17 25 45 27
63 6z m-602 -31 c-5 -28 -28 -29 -28 -1 0 13 3 27 7 31 10 10 25 -10 21 -30z
m232 -39 c0 -14 -4 -25 -10 -25 -5 0 -10 11 -10 25 0 14 5 25 10 25 6 0 10
-11 10 -25z m600 0 c0 -28 -15 -34 -24 -9 -10 25 -7 34 9 34 9 0 15 -9 15 -25z
m260 -24 c0 -5 -9 -11 -20 -14 -13 -3 -20 0 -20 9 0 8 9 14 20 14 11 0 20 -4
20 -9z m-583 -35 c-4 -9 -11 -16 -17 -16 -11 0 -14 33 -3 44 11 10 26 -11 20
-28z m-321 -36 c0 -11 -6 -20 -13 -20 -7 0 -13 9 -13 20 0 11 6 20 13 20 7 0
13 -9 13 -20z m234 -39 c0 -23 -16 -36 -25 -21 -9 14 1 40 15 40 5 0 10 -9 10
-19z m270 -51 c0 -11 -4 -20 -10 -20 -5 0 -10 9 -10 20 0 11 5 20 10 20 6 0
10 -9 10 -20z m-316 -35 c6 -18 -2 -45 -15 -45 -5 0 -9 14 -9 30 0 32 14 40
24 15z m-334 -25 c13 -9 13 -11 0 -20 -8 -5 -19 -10 -25 -10 -5 0 -17 5 -25
10 -13 9 -13 11 0 20 8 5 20 10 25 10 6 0 17 -5 25 -10z m601 0 c17 0 9 -19
-11 -25 -23 -7 -60 2 -60 15 0 10 30 19 48 14 8 -2 18 -4 23 -4z m139 -5 c0
-8 -4 -15 -10 -15 -5 0 -10 7 -10 15 0 8 5 15 10 15 6 0 10 -7 10 -15z m-460
-55 c0 -5 -13 -10 -30 -10 -16 0 -30 5 -30 10 0 6 14 10 30 10 17 0 30 -4 30
-10z m403 -45 c-4 -15 -36 -12 -41 3 -3 9 3 13 19 10 13 -1 23 -7 22 -13z
m-173 -20 c0 -14 -4 -25 -10 -25 -5 0 -10 11 -10 25 0 14 5 25 10 25 6 0 10
-11 10 -25z m420 0 c0 -14 -4 -25 -10 -25 -5 0 -10 11 -10 25 0 14 5 25 10 25
6 0 10 -11 10 -25z m-560 -25 c0 -5 -11 -10 -25 -10 -14 0 -25 5 -25 10 0 6
11 10 25 10 14 0 25 -4 25 -10z m-180 -20 c0 -11 -4 -20 -10 -20 -5 0 -10 9
-10 20 0 11 5 20 10 20 6 0 10 -9 10 -20z m-140 -19 c0 -12 -37 -24 -50 -16
-20 12 -10 25 20 25 17 0 30 -4 30 -9z m590 -1 c0 -5 -11 -10 -25 -10 -14 0
-25 5 -25 10 0 6 11 10 25 10 14 0 25 -4 25 -10z m370 0 c0 -5 -11 -10 -25
-10 -14 0 -25 5 -25 10 0 6 11 10 25 10 14 0 25 -4 25 -10z m-880 -50 c0 -5
-9 -10 -20 -10 -11 0 -20 5 -20 10 0 6 9 10 20 10 11 0 20 -4 20 -10z m932
-12 c6 -17 -1 -38 -13 -38 -5 0 -9 11 -9 25 0 26 14 34 22 13z m-504 -35 c2
-9 -8 -13 -32 -13 -34 0 -44 8 -29 24 11 11 56 2 61 -11z m217 -54 c-8 -12
-45 -12 -45 0 0 10 30 20 43 14 4 -3 5 -9 2 -14z m245 -19 c0 -11 -4 -20 -10
-20 -5 0 -10 9 -10 20 0 11 5 20 10 20 6 0 10 -9 10 -20z m-153 -25 c-11 -7
-25 -11 -33 -8 -25 10 -15 23 19 23 30 -1 31 -2 14 -15z m-167 -14 c0 -20 -13
-35 -23 -25 -7 8 4 44 14 44 5 0 9 -9 9 -19z m258 -20 c8 -4 12 -19 10 -32
l-3 -24 -22 23 c-13 12 -23 27 -23 32 0 12 20 13 38 1z m-890 -74 c20 -21 21
-37 1 -37 -13 0 -39 31 -39 46 0 20 13 17 38 -9z m582 3 c0 -5 -11 -26 -26
-47 -16 -25 -23 -45 -19 -60 5 -21 2 -23 -31 -23 -35 0 -36 1 -22 18 9 9 26
37 38 62 12 25 27 51 32 57 11 13 28 9 28 -7z m-150 -20 c0 -5 -12 -10 -26
-10 -14 0 -23 4 -19 10 3 6 15 10 26 10 10 0 19 -4 19 -10z m388 -17 c5 -31
-18 -29 -49 3 l-24 26 35 -4 c27 -2 36 -8 38 -25z m162 17 c0 -5 -9 -10 -20
-10 -11 0 -20 5 -20 10 0 6 9 10 20 10 11 0 20 -4 20 -10z m-720 -25 c0 -14
-4 -25 -10 -25 -5 0 -10 11 -10 25 0 14 5 25 10 25 6 0 10 -11 10 -25z m-320
-50 c0 -24 -5 -35 -15 -35 -15 0 -22 50 -8 63 15 15 23 5 23 -28z m170 25 c0
-5 -11 -10 -25 -10 -14 0 -25 5 -25 10 0 6 11 10 25 10 14 0 25 -4 25 -10z
m99 -39 c11 -7 10 -10 -4 -18 -19 -11 -65 -5 -65 7 0 18 47 25 69 11z m559
-19 c7 -49 -6 -56 -38 -22 -34 36 -31 53 8 48 19 -2 28 -10 30 -26z m-468 -82
c0 -5 -11 -10 -25 -10 -14 0 -25 5 -25 10 0 6 11 10 25 10 14 0 25 -4 25 -10z
m-180 -25 c0 -14 -4 -25 -10 -25 -5 0 -10 11 -10 25 0 14 5 25 10 25 6 0 10
-11 10 -25z m550 0 c0 -14 -4 -25 -10 -25 -5 0 -10 11 -10 25 0 14 5 25 10 25
6 0 10 -11 10 -25z m270 -25 c0 -5 -11 -10 -25 -10 -14 0 -25 5 -25 10 0 6 11
10 25 10 14 0 25 -4 25 -10z m-540 -20 c0 -11 -7 -20 -15 -20 -8 0 -15 9 -15
20 0 11 7 20 15 20 8 0 15 -9 15 -20z m590 -45 c0 -14 -4 -25 -10 -25 -5 0
-10 11 -10 25 0 14 5 25 10 25 6 0 10 -11 10 -25z m-410 -85 c0 -36 -9 -38
-38 -7 -25 26 -20 37 15 37 19 0 23 -5 23 -30z m225 -29 c7 -12 -31 -25 -45
-16 -5 3 -10 10 -10 16 0 12 47 12 55 0z m-729 -28 c-4 -24 -26 -29 -26 -5 0
10 3 22 6 25 11 10 22 -2 20 -20z m184 2 c0 -14 -4 -25 -10 -25 -5 0 -10 11
-10 25 0 14 5 25 10 25 6 0 10 -11 10 -25z m-50 -64 c0 -12 -37 -24 -50 -16
-20 12 -10 25 20 25 17 0 30 -4 30 -9z m-180 -26 c0 -14 -4 -25 -10 -25 -5 0
-10 11 -10 25 0 14 5 25 10 25 6 0 10 -11 10 -25z m960 0 c0 -14 -4 -25 -10
-25 -5 0 -10 11 -10 25 0 14 5 25 10 25 6 0 10 -11 10 -25z m-560 -25 c0 -5
-9 -10 -19 -10 -11 0 -23 5 -26 10 -4 6 5 10 19 10 14 0 26 -4 26 -10z m240
-20 c0 -11 -4 -20 -10 -20 -5 0 -10 9 -10 20 0 11 5 20 10 20 6 0 10 -9 10
-20z m-684 -35 c10 -40 -4 -42 -39 -7 l-32 32 33 0 c26 0 33 -5 38 -25z m544
15 c0 -5 -13 -10 -30 -10 -16 0 -30 5 -30 10 0 6 14 10 30 10 17 0 30 -4 30
-10z m563 -12 c5 -18 -3 -48 -14 -48 -5 0 -9 14 -9 30 0 30 15 41 23 18z
m-326 -41 c-6 -20 -27 -19 -27 2 0 14 5 19 15 14 9 -3 14 -10 12 -16z m-539
-22 l22 -35 -28 0 c-37 0 -39 4 -34 40 6 38 12 38 40 -5z m952 -1 c0 -13 -4
-24 -10 -24 -5 0 -10 14 -10 31 0 17 4 28 10 24 6 -3 10 -17 10 -31z m-140
-24 c0 -5 -13 -10 -30 -10 -16 0 -30 5 -30 10 0 6 14 10 30 10 17 0 30 -4 30
-10z m-180 -19 c0 -11 -4 -23 -10 -26 -6 -4 -10 5 -10 19 0 14 5 26 10 26 6 0
10 -9 10 -19z m-155 -26 c0 -5 -10 -11 -22 -13 -16 -2 -23 2 -23 13 0 11 7 15
23 13 12 -2 22 -7 22 -13z m-165 -26 c0 -10 -4 -19 -10 -19 -5 0 -10 12 -10
26 0 14 4 23 10 19 6 -3 10 -15 10 -26z m278 -41 c-2 -18 -10 -24 -38 -26
l-35 -2 30 25 c37 31 47 31 43 3z m-340 -20 c-3 -7 -13 -13 -23 -13 -10 0 -20
6 -22 13 -3 7 5 12 22 12 17 0 25 -5 23 -12z m-313 -73 c0 -10 -6 -20 -12 -22
-8 -3 -13 5 -13 22 0 17 5 25 13 23 6 -3 12 -13 12 -23z m550 0 c0 -10 -6 -20
-12 -22 -8 -3 -13 5 -13 22 0 17 5 25 13 23 6 -3 12 -13 12 -23z m-287 -14
c11 -6 7 -13 -14 -30 -31 -25 -44 -27 -44 -7 0 41 26 58 58 37z m152 -12 c0
-5 -4 -9 -10 -9 -5 0 -10 7 -10 16 0 8 5 12 10 9 6 -3 10 -10 10 -16z m414 -4
c6 -18 -2 -45 -15 -45 -5 0 -9 14 -9 30 0 32 14 40 24 15z m-144 -45 c0 -5 -9
-10 -19 -10 -11 0 -23 5 -26 10 -4 6 5 10 19 10 14 0 26 -4 26 -10z m240 -20
c0 -11 -4 -20 -10 -20 -5 0 -10 9 -10 20 0 11 5 20 10 20 6 0 10 -9 10 -20z
m-560 -19 c0 -13 -27 -21 -45 -15 -25 10 -17 24 15 24 17 0 30 -4 30 -9z m650
-88 c0 -55 -12 -70 -44 -55 -33 15 -33 29 1 64 35 37 43 35 43 -9z m-290 -148
c0 -8 -9 -15 -20 -15 -11 0 -20 7 -20 15 0 8 9 15 20 15 11 0 20 -7 20 -15z
m190 6 c0 -6 -5 -13 -10 -16 -14 -9 -52 4 -45 16 8 12 55 12 55 0z m-683 -35
c-4 -9 -11 -16 -17 -16 -11 0 -14 33 -3 43 11 11 26 -10 20 -27z m553 -41 c0
-14 -4 -25 -10 -25 -5 0 -10 11 -10 25 0 14 5 25 10 25 6 0 10 -11 10 -25z
m-463 -17 c20 -34 1 -62 -39 -56 -23 3 -34 27 -24 54 7 17 52 19 63 2z m558
-69 c0 -20 -6 -25 -34 -27 l-34 -3 24 30 c28 35 44 35 44 0z m-185 -4 c0 -22
-5 -25 -32 -25 l-33 0 25 24 c32 32 40 32 40 1z m-470 -15 c11 -7 12 -15 4
-37 -13 -37 -57 -40 -62 -5 -7 47 20 66 58 42z m703 -86 c-10 -25 -23 -15 -23
19 1 30 2 31 15 14 7 -11 11 -25 8 -33z m-793 -14 c0 -5 -11 -10 -25 -10 -14
0 -25 5 -25 10 0 6 11 10 25 10 14 0 25 -4 25 -10z m320 0 c0 -5 -11 -10 -25
-10 -14 0 -25 5 -25 10 0 6 11 10 25 10 14 0 25 -4 25 -10z m150 0 c0 -5 -4
-10 -9 -10 -6 0 -13 5 -16 10 -3 6 1 10 9 10 9 0 16 -4 16 -10z m170 0 c0 -5
-11 -10 -25 -10 -14 0 -25 5 -25 10 0 6 11 10 25 10 14 0 25 -4 25 -10z m-725
-70 c0 -13 -6 -25 -12 -27 -9 -3 -13 6 -13 27 0 21 4 30 13 28 6 -3 12 -15 12
-28z m455 5 c0 -14 -4 -25 -10 -25 -5 0 -10 11 -10 25 0 14 5 25 10 25 6 0 10
-11 10 -25z m160 -5 l21 -30 -24 0 c-24 0 -37 16 -37 46 0 23 17 16 40 -16z
m160 5 c0 -14 -4 -25 -10 -25 -5 0 -10 11 -10 25 0 14 5 25 10 25 6 0 10 -11
10 -25z m-1010 -64 c0 -12 -37 -24 -50 -16 -20 12 -10 25 20 25 17 0 30 -4 30
-9z m1100 0 c0 -6 -5 -13 -10 -16 -14 -9 -52 4 -45 16 8 12 55 12 55 0z m-960
-26 c0 -14 -4 -25 -10 -25 -5 0 -10 11 -10 25 0 14 5 25 10 25 6 0 10 -11 10
-25z m460 0 c0 -14 -4 -25 -10 -25 -5 0 -10 11 -10 25 0 14 5 25 10 25 6 0 10
-11 10 -25z m844 -25 c14 -27 26 -63 26 -80 0 -25 -4 -30 -24 -30 -16 0 -26 7
-30 23 -6 24 -8 137 -2 137 2 0 16 -22 30 -50z m-1550 -36 c9 -3 13 -10 10
-15 -7 -11 -64 -12 -64 -1 0 21 24 28 54 16z m330 0 c24 -9 9 -24 -24 -24 -29
0 -45 12 -33 24 8 8 37 8 57 0z m464 -11 c2 -9 -7 -13 -27 -13 -30 0 -39 9
-24 24 11 10 46 3 51 -11z m-178 -3 c0 -5 -4 -10 -10 -10 -5 0 -10 5 -10 10 0
6 5 10 10 10 6 0 10 -4 10 -10z m-230 -70 c0 -11 -4 -20 -10 -20 -5 0 -10 9
-10 20 0 11 5 20 10 20 6 0 10 -9 10 -20z m-320 -20 c0 -5 -7 -10 -15 -10 -8
0 -15 5 -15 10 0 6 7 10 15 10 8 0 15 -4 15 -10z m170 0 c0 -5 -11 -10 -25
-10 -14 0 -25 5 -25 10 0 6 11 10 25 10 14 0 25 -4 25 -10z m780 0 c0 -5 -9
-10 -20 -10 -11 0 -20 5 -20 10 0 6 9 10 20 10 11 0 20 -4 20 -10z m-890 -70
l21 -30 -24 0 c-24 0 -37 16 -37 46 0 23 17 16 40 -16z m160 5 c0 -14 -4 -25
-10 -25 -11 0 -14 33 -3 43 11 11 13 8 13 -18z m150 -6 c0 -10 -7 -19 -15 -19
-15 0 -21 31 -9 43 11 10 24 -3 24 -24z m183 19 c5 -18 -3 -48 -14 -48 -13 0
-22 27 -15 45 7 18 23 20 29 3z m327 -19 c0 -10 -7 -19 -15 -19 -15 0 -21 31
-9 43 11 10 24 -3 24 -24z m-572 -61 c-3 -7 -13 -13 -23 -13 -10 0 -20 6 -22
13 -3 7 5 12 22 12 17 0 25 -5 23 -12z m-173 -28 c0 -13 -6 -25 -12 -27 -9 -3
-13 6 -13 27 0 21 4 30 13 28 6 -3 12 -15 12 -28z m735 -1309 c0 -5 27 -37 60
-70 44 -45 63 -72 71 -106 8 -32 16 -45 29 -45 12 0 19 -11 23 -36 4 -20 16
-47 27 -59 12 -13 28 -40 35 -61 16 -48 29 -53 51 -20 9 14 20 26 25 26 5 0 9
-31 9 -70 0 -71 -14 -94 -26 -42 -10 42 -23 53 -45 41 -31 -16 -23 -99 9 -99
12 0 12 -4 -4 -21 -16 -18 -20 -42 -24 -174 -3 -85 -8 -156 -11 -160 -3 -3
-12 2 -20 11 -10 13 -13 39 -10 103 10 195 8 227 -17 254 -19 20 -23 32 -17
55 4 21 -2 54 -19 104 -14 41 -26 87 -26 102 0 21 -17 47 -65 98 -36 39 -65
77 -65 84 0 8 -13 17 -30 21 -26 5 -30 10 -30 39 0 32 2 34 35 34 19 0 35 -4
35 -9z m515 -233 c3 -106 3 -107 25 -125 27 -23 25 -65 -4 -127 -14 -28 -27
-59 -30 -69 -4 -13 -14 -17 -33 -15 -36 4 -44 45 -13 73 18 16 20 30 20 120 0
78 -4 105 -15 115 -12 10 -12 16 -1 39 7 14 16 39 20 55 12 50 29 13 31 -66z"/>
<path d="M9187 9012 c-29 -21 -36 -34 -37 -60 0 -18 -11 -55 -25 -82 -17 -35
-25 -66 -25 -103 0 -34 -8 -73 -21 -102 -11 -26 -21 -68 -22 -94 0 -30 -7 -56
-21 -74 -18 -25 -21 -46 -25 -152 -3 -115 -5 -125 -27 -146 -18 -17 -24 -33
-24 -65 0 -24 -11 -65 -25 -96 -22 -48 -25 -65 -24 -174 1 -98 -2 -127 -17
-155 -12 -24 -19 -65 -22 -139 -3 -80 -9 -113 -23 -137 -16 -26 -21 -58 -25
-185 -6 -150 -5 -156 20 -216 24 -57 26 -73 26 -206 0 -127 3 -152 22 -198 19
-47 22 -69 20 -196 -2 -129 0 -147 20 -185 17 -34 22 -65 26 -157 4 -96 8
-117 23 -128 44 -31 44 -132 -1 -132 -24 0 -45 30 -60 90 -15 56 -26 70 -56
70 -30 0 -49 -35 -64 -120 -14 -78 -6 -162 22 -239 33 -91 48 -101 140 -101
76 0 79 -1 107 -32 l29 -33 4 -736 c3 -684 4 -737 21 -753 9 -10 17 -24 17
-32 0 -8 11 -36 25 -62 14 -26 25 -59 25 -74 0 -21 10 -34 44 -58 28 -18 49
-43 57 -64 9 -24 23 -38 51 -51 21 -9 51 -32 66 -51 15 -19 35 -34 45 -34 11
0 31 -8 45 -19 43 -30 97 -41 262 -51 172 -12 246 -28 277 -62 21 -23 21 -28
25 -700 2 -437 7 -681 13 -687 6 -6 27 -8 46 -5 28 5 40 14 53 38 9 17 32 53
51 80 39 54 43 85 18 142 -15 33 -17 72 -18 239 0 267 14 545 29 546 6 1 62 6
125 13 l113 11 16 38 c23 60 6 71 -122 75 -99 4 -104 5 -115 28 -17 37 -14 52
14 70 21 14 40 16 101 10 81 -6 100 -1 147 42 50 48 24 82 -62 82 -21 0 -40 3
-43 6 -4 3 10 39 29 81 20 41 38 96 41 123 l4 47 -70 7 c-39 4 -132 4 -206 0
-124 -6 -136 -5 -142 11 -13 33 9 50 67 53 84 4 99 10 111 42 13 39 40 39 86
-1 l35 -31 20 26 c24 33 57 33 95 1 53 -44 92 -28 92 37 0 32 -4 39 -26 44
-75 19 -526 -21 -574 -51 -13 -8 -13 -131 1 -156 27 -51 -61 -74 -229 -60
-110 9 -113 10 -160 48 -25 21 -51 37 -57 35 -15 -5 -144 61 -144 75 -1 6 -9
14 -20 18 -12 3 -21 18 -24 40 -3 20 -15 48 -26 64 -14 19 -21 45 -21 74 0 39
-4 47 -22 53 -29 9 -36 20 -30 49 2 14 13 26 28 29 l24 6 1 608 c1 334 4 645
7 692 l7 85 13 -57 c7 -31 20 -62 28 -68 12 -11 14 -104 14 -635 l0 -623 40
-36 c22 -19 71 -51 110 -71 84 -43 110 -44 371 -15 101 12 227 20 279 19 82
-2 100 1 132 20 33 20 48 22 161 19 111 -3 127 -1 146 16 25 23 26 30 5 51
-15 15 -48 16 -296 13 -154 -2 -283 -5 -287 -8 -5 -3 -13 -15 -20 -27 -11 -22
-16 -23 -179 -23 -92 0 -177 3 -190 6 -23 7 -23 8 -20 138 3 113 0 136 -15
159 -37 57 -50 27 -51 -120 -1 -61 -4 -115 -8 -119 -4 -4 -21 7 -38 24 l-30
32 0 778 c0 766 0 779 20 797 18 16 20 31 20 136 l0 118 30 23 c29 21 30 24
30 103 0 61 5 90 20 120 16 32 20 59 20 147 0 98 2 108 21 122 20 14 22 26 26
161 4 145 4 148 -21 186 l-26 39 0 229 c0 220 -1 231 -20 241 -19 10 -20 21
-20 180 l0 169 -30 21 -30 21 0 186 c0 170 -2 187 -20 210 -18 23 -20 41 -20
164 0 137 0 139 -25 155 -25 16 -25 18 -25 150 0 123 -2 138 -25 181 -13 27
-27 56 -29 66 -3 9 -14 17 -24 17 -10 0 -27 9 -38 21 -10 12 -31 27 -46 35
-16 8 -28 23 -28 33 0 38 -24 43 -63 13z m-19 -3072 c32 -48 31 -118 -4 -151
-23 -22 -25 -28 -19 -85 8 -68 -4 -104 -34 -104 -11 0 -22 7 -25 16 -11 29 -7
349 5 361 17 17 51 1 77 -37z m957 -2410 c-3 -5 -10 -10 -16 -10 -5 0 -9 5 -9
10 0 6 7 10 16 10 8 0 12 -4 9 -10z m43 -43 c2 -12 -1 -15 -12 -11 -19 7 -22
38 -3 32 6 -3 13 -12 15 -21z"/>
<path d="M1643 8713 c-2 -6 -3 -26 -1 -45 l3 -33 85 -7 c47 -4 348 -9 670 -12
461 -5 590 -3 610 7 34 17 33 54 -3 81 -28 21 -33 21 -694 21 -494 0 -667 -3
-670 -12z"/>
<path d="M11045 8720 c-3 -5 -6 -89 -6 -187 0 -168 2 -179 21 -192 18 -12 20
-24 20 -139 0 -110 3 -131 23 -171 20 -43 22 -58 20 -208 l-3 -163 25 -16 c24
-16 25 -20 25 -135 0 -115 1 -119 25 -135 l25 -16 0 -169 0 -169 25 -16 25
-16 0 -200 c0 -188 -1 -200 -22 -228 -29 -40 -36 -125 -14 -168 9 -18 21 -32
26 -32 5 0 17 26 25 58 9 31 22 72 30 90 10 22 15 69 15 145 0 62 5 167 10
235 11 142 0 256 -30 314 -17 33 -20 58 -20 176 0 121 -3 142 -23 182 -19 40
-21 59 -19 171 l2 125 -29 28 c-28 27 -30 33 -30 110 0 45 -10 128 -22 186
-11 58 -22 145 -24 193 -2 74 -6 92 -24 111 -20 21 -22 33 -19 119 1 67 -2
100 -11 111 -15 18 -37 21 -46 6z"/>
<path d="M3125 8112 c-16 -10 -50 -22 -75 -26 -25 -4 -63 -15 -85 -25 -22 -11
-57 -21 -79 -24 -21 -4 -66 -24 -101 -47 -46 -30 -77 -42 -116 -47 -30 -3 -59
-9 -65 -14 -32 -25 -153 -79 -179 -79 -42 0 -111 -23 -215 -70 -52 -23 -121
-45 -163 -52 -39 -6 -81 -19 -92 -29 -11 -9 -46 -33 -77 -54 -62 -41 -66 -50
-43 -96 l16 -29 104 55 c67 35 122 57 155 61 41 5 54 12 62 30 8 16 25 27 52
34 93 23 153 43 191 65 22 12 60 26 85 30 63 9 433 136 442 151 5 6 34 15 67
19 46 5 60 11 64 25 3 12 20 23 48 30 24 6 56 16 71 21 27 11 55 60 43 78 -10
17 -77 13 -110 -7z"/>
<path d="M3701 7680 c-40 -52 -143 -197 -228 -322 -92 -134 -234 -324 -350
-465 -107 -131 -241 -299 -298 -374 -149 -193 -225 -249 -537 -395 -97 -45
-209 -102 -248 -126 -40 -24 -84 -50 -98 -58 -161 -91 -231 -159 -322 -317
-117 -201 -201 -286 -515 -514 -71 -52 -186 -141 -255 -196 -69 -56 -195 -157
-280 -224 -185 -147 -388 -346 -455 -448 -126 -193 -145 -361 -59 -535 52
-103 111 -173 320 -381 171 -170 221 -228 481 -560 384 -492 481 -620 663
-875 187 -263 258 -349 419 -510 159 -158 299 -276 676 -571 165 -129 369
-292 454 -362 298 -245 494 -351 765 -412 490 -109 1004 40 1776 515 184 113
562 353 665 423 305 204 485 405 631 702 112 230 177 457 238 830 68 417 72
430 231 834 181 460 223 665 180 886 -46 242 -183 344 -462 345 l-93 0 0 28
c0 74 -150 222 -225 222 -15 0 -16 -2 -4 -17 13 -15 12 -16 -6 -8 -121 51
-233 69 -375 62 -121 -6 -196 -29 -245 -77 l-33 -32 -50 26 c-69 35 -304 193
-397 267 -67 53 -76 64 -71 85 6 22 3 24 -30 24 -31 0 -50 12 -138 88 -150
130 -488 471 -680 687 -326 366 -380 433 -388 477 -4 23 -18 62 -32 87 -13 26
-29 82 -36 126 -9 67 -24 106 -90 240 -43 88 -129 243 -190 345 -168 278 -201
352 -224 495 l-12 80 -73 -95z"/>
<path d="M7410 6911 c0 -41 24 -78 96 -152 41 -42 74 -81 74 -86 0 -5 20 -31
44 -58 27 -29 48 -64 55 -89 17 -69 91 -200 195 -346 l99 -140 124 -40 c153
-50 255 -61 331 -36 49 17 51 19 54 59 l3 41 69 13 c80 14 222 50 236 58 6 3
10 15 10 25 0 11 7 37 16 59 14 37 14 42 0 63 -21 29 -21 111 0 172 l16 47
-43 49 c-48 53 -48 53 -168 69 -46 6 -94 17 -107 26 -14 9 -34 12 -51 9 -17
-3 -60 5 -108 20 -44 14 -118 28 -165 32 -47 4 -104 15 -128 26 -24 10 -67 18
-97 18 -30 0 -57 5 -60 10 -13 21 -68 41 -163 61 -53 10 -107 21 -119 24 -12
3 -25 14 -28 25 -4 12 -15 20 -28 20 -12 0 -37 9 -55 20 -44 27 -102 27 -102
1z"/>
<path d="M10634 5630 c-58 -23 -88 -121 -42 -136 39 -12 372 -8 396 5 l22 12
-25 49 c-14 27 -25 56 -25 65 0 13 -22 15 -152 14 -84 0 -163 -4 -174 -9z"/>
<path d="M8495 5451 c-11 -5 -29 -18 -39 -30 -11 -11 -25 -21 -33 -21 -8 0
-64 -21 -125 -46 -61 -25 -142 -54 -180 -63 -38 -10 -74 -25 -81 -33 -6 -9
-24 -18 -38 -22 -14 -3 -56 -26 -95 -51 -38 -25 -86 -50 -107 -56 -21 -5 -35
-14 -32 -19 3 -6 -5 -15 -19 -22 -23 -10 -26 -17 -26 -65 l0 -53 46 0 c37 0
53 6 81 30 49 43 111 72 256 120 80 26 138 52 152 66 14 14 36 24 53 24 18 0
55 17 94 43 36 23 88 54 116 69 47 25 51 31 58 74 5 34 3 48 -7 55 -17 11 -47
10 -74 0z"/>
<path d="M10430 4588 c-23 -22 -34 -39 -32 -54 5 -33 -66 -78 -89 -58 -23 20
-31 18 -67 -19 -31 -32 -42 -67 -22 -67 6 0 20 -16 31 -35 18 -30 26 -35 59
-35 32 0 39 4 49 29 7 15 23 34 37 41 17 9 24 22 24 41 0 18 7 32 20 39 12 6
20 21 20 36 0 14 9 39 21 55 21 30 20 59 -3 59 -7 0 -29 -15 -48 -32z"/>
<path d="M9387 3963 c-4 -3 -7 -23 -7 -44 0 -30 6 -42 26 -55 14 -10 36 -33
50 -53 18 -27 32 -36 55 -37 17 -1 45 -12 61 -24 28 -20 31 -21 46 -6 14 14
14 18 -6 39 -12 13 -22 31 -22 39 0 9 -10 20 -22 24 -12 3 -45 28 -72 54 -44
41 -85 70 -99 70 -2 0 -7 -3 -10 -7z"/>
</g>
</svg>
