<?xml version="1.0" standalone="no"?>
<!DOCTYPE svg PUBLIC "-//W3C//DTD SVG 20010904//EN"
 "http://www.w3.org/TR/2001/REC-SVG-20010904/DTD/svg10.dtd">
<svg version="1.0" xmlns="http://www.w3.org/2000/svg"
 width="845.000000pt" height="1280.000000pt" viewBox="0 0 845.000000 1280.000000"
 preserveAspectRatio="xMidYMid meet">
<metadata>
Created by potrace 1.15, written by Peter Selinger 2001-2017
</metadata>
<g transform="translate(0.000000,1280.000000) scale(0.100000,-0.100000)"
fill="#000000" stroke="none">
<path d="M3835 11803 c-285 -18 -506 -54 -863 -143 -305 -77 -392 -111 -466
-186 -64 -63 -79 -119 -66 -233 6 -47 43 -657 82 -1355 l71 -1269 -34 -28 -34
-28 -7 -293 c-8 -305 -5 -339 32 -373 19 -17 20 -31 19 -269 -1 -138 -5 -325
-8 -416 -6 -154 -6 -160 -13 -88 -18 183 -62 319 -115 354 -31 20 -328 73
-410 74 -50 0 -200 -47 -231 -72 -32 -27 -40 -68 -51 -258 l-12 -195 -251
-420 c-139 -230 -270 -440 -293 -465 -22 -25 -49 -58 -61 -74 l-20 -28 -155
-5 c-129 -5 -162 -9 -204 -28 -68 -30 -114 -71 -136 -121 -27 -59 -42 -413
-43 -974 l-1 -455 33 -47 c36 -53 81 -90 133 -112 19 -8 138 -23 279 -36 135
-12 245 -23 246 -23 0 -1 91 -209 201 -462 l200 -460 11 -183 c15 -257 28
-277 217 -333 l91 -27 204 29 c112 16 218 37 237 46 43 20 82 70 104 136 16
46 18 48 19 22 1 -16 5 -68 9 -115 l7 -85 198 -285 c109 -157 213 -303 231
-325 47 -58 138 -107 259 -141 l106 -28 0 -41 c0 -23 8 -52 17 -65 22 -30 22
-124 3 -835 -11 -443 -13 -472 -33 -510 -23 -44 -24 -62 -19 -382 l2 -193 615
0 615 0 0 38 c0 20 7 133 15 251 11 165 11 224 3 257 -18 65 8 1233 27 1254 9
10 12 29 8 55 -4 35 -1 44 26 69 27 26 30 34 24 71 l-5 41 73 14 c40 7 97 21
127 31 115 40 114 38 371 405 l241 343 0 140 0 139 86 7 c74 6 90 11 116 34
29 26 31 32 39 136 5 59 14 114 21 122 6 8 82 79 167 157 167 153 330 279 386
299 19 7 112 78 207 159 233 197 221 185 214 220 -8 40 31 72 90 74 23 1 56
10 73 20 17 10 71 76 121 146 97 137 108 170 60 176 -21 2 -36 -10 -87 -72
-57 -71 -61 -74 -67 -51 -9 35 -47 57 -101 57 l-45 1 0 244 c0 234 1 243 19
243 18 0 19 -4 10 -28 -12 -35 2 -76 30 -91 11 -6 84 -14 164 -17 l144 -7 6
-79 c8 -114 8 -114 177 -121 76 -3 145 -9 152 -13 7 -5 38 -7 68 -6 l55 3 74
-70 74 -70 28 19 c15 11 30 20 33 20 3 0 6 -109 6 -242 l0 -243 -33 -15 -32
-15 3 -404 c3 -436 3 -437 58 -480 15 -12 40 -21 56 -21 54 0 68 -15 68 -75 0
-42 -4 -57 -20 -68 -11 -7 -44 -65 -73 -128 -47 -100 -58 -116 -90 -131 -32
-15 -37 -22 -37 -52 0 -94 -20 -913 -24 -993 -5 -82 -3 -94 17 -124 18 -28 37
-38 117 -63 l95 -31 8 -745 c5 -529 11 -752 19 -767 11 -23 12 -23 275 -23
l263 0 -2 2912 -3 2913 -490 8 c-306 5 -492 12 -496 19 -4 6 -65 7 -173 2
-146 -6 -168 -9 -176 -25 -6 -10 -10 -54 -10 -98 l0 -81 -135 0 c-145 0 -183
-10 -206 -51 -6 -12 -8 -35 -5 -51 5 -24 3 -29 -12 -26 -13 2 -18 15 -20 58
-1 30 -11 141 -22 246 -25 238 -25 227 -1 214 48 -25 106 8 117 65 3 19 9 35
13 34 3 0 31 -31 61 -69 53 -66 86 -90 109 -75 22 13 8 38 -81 141 -156 180
-148 174 -208 174 -55 0 -84 18 -195 121 -22 20 -141 91 -265 157 -332 176
-327 174 -348 161 -14 -9 -33 -1 -108 47 l-91 58 -7 125 c-10 184 -31 210
-181 221 l-80 5 -3 326 -2 326 39 26 39 26 7 307 7 308 -47 45 -48 45 68 1300
c37 714 65 1335 63 1380 -7 132 -65 234 -165 288 -50 28 -322 98 -548 142
-336 65 -735 96 -1010 79z m-1739 -4388 c157 -22 173 -30 198 -90 22 -52 62
-335 48 -335 -9 0 -142 111 -142 118 0 4 9 21 20 37 24 36 26 68 5 85 -13 10
-28 10 -80 -5 -36 -9 -67 -21 -70 -25 -5 -8 -134 -8 -136 0 -1 3 1 56 5 118 7
97 10 112 25 112 10 0 67 -7 127 -15z m112 -580 c129 -106 152 -130 158 -159
3 -19 3 -40 -1 -46 -4 -6 -145 -80 -313 -164 -169 -84 -345 -173 -392 -198
-137 -72 -210 -102 -221 -91 -9 9 56 123 252 438 38 61 93 154 124 207 52 92
58 97 103 112 26 8 63 17 82 19 19 2 40 5 46 5 7 1 80 -54 162 -123z m3517
-219 c79 -46 142 -96 102 -82 -10 3 -23 6 -28 6 -5 0 -9 6 -9 14 0 24 -32 30
-175 32 -190 1 -175 -2 -175 38 0 34 2 35 43 39 103 11 158 0 242 -47z m269
-181 c33 -21 103 -58 155 -83 53 -25 115 -58 139 -75 24 -16 60 -34 80 -39 35
-10 108 -61 184 -129 l38 -34 26 -268 c15 -147 24 -270 21 -273 -3 -4 -147 -1
-319 5 -172 6 -404 14 -515 17 l-203 7 0 40 c0 33 3 38 18 32 9 -4 103 -9 209
-12 184 -5 192 -4 212 16 12 12 21 30 21 42 0 51 -29 68 -145 84 -90 12 -86
-9 -79 374 3 185 7 346 10 359 l4 22 43 -23 c23 -13 69 -41 101 -62z m-3620
-27 c12 -71 9 -322 -5 -352 l-14 -29 -230 6 c-126 4 -296 7 -377 7 -82 0 -148
3 -148 8 0 4 82 49 183 99 100 51 268 137 372 192 105 54 195 99 201 100 7 1
14 -14 18 -31z m-176 -534 l192 -6 0 -147 0 -147 -442 -11 c-244 -6 -444 -9
-446 -8 -2 2 -6 78 -9 169 l-6 166 259 -5 c142 -3 346 -8 452 -11z m-1098 -4
c19 0 73 3 119 6 l84 6 -6 -50 c-3 -27 -11 -104 -18 -170 -12 -112 -15 -122
-34 -122 -58 0 -298 -22 -348 -32 -101 -19 -100 -16 -101 -227 -1 -162 1 -184
16 -192 9 -5 116 -9 237 -9 l220 0 5 -52 c3 -29 8 -98 10 -153 3 -55 9 -135
12 -177 l7 -77 -34 -14 c-33 -14 -35 -14 -74 23 -66 63 -111 76 -147 43 -34
-31 -13 -106 58 -206 19 -27 33 -51 31 -54 -8 -7 -307 17 -350 28 -27 7 -41
18 -49 37 -27 65 -16 1198 13 1333 10 45 13 49 47 54 20 4 44 8 52 10 8 2 60
1 115 -1 55 -2 116 -4 135 -4z m1276 -804 c7 -3 9 -105 7 -338 -2 -183 -6
-339 -8 -345 -6 -19 -642 -6 -670 13 -11 7 -54 39 -96 71 -42 32 -88 67 -103
78 l-26 20 12 252 c11 243 12 252 32 255 30 4 839 -2 852 -6z m4267 -152 c4
-92 7 -220 7 -284 l0 -118 -74 -66 c-41 -36 -83 -66 -94 -66 -11 0 -48 -22
-82 -50 -34 -27 -66 -50 -71 -50 -26 0 -305 -266 -332 -316 -13 -24 -108 -104
-124 -104 -10 0 -23 351 -23 575 1 137 5 144 95 155 78 10 105 29 105 76 0 55
-25 64 -170 63 -69 0 -157 -3 -196 -7 l-72 -8 -4 176 c-3 96 -3 178 -1 182 2
4 234 7 517 8 l513 1 6 -167z m-4986 -709 c14 -10 150 -110 302 -224 152 -113
287 -214 300 -223 l24 -17 -64 -73 c-35 -40 -71 -79 -80 -88 -9 -8 -46 -50
-84 -92 -44 -51 -75 -78 -89 -78 -11 0 -51 9 -88 21 l-66 22 -32 71 c-18 39
-79 172 -135 296 -56 124 -121 264 -144 313 -22 48 -41 90 -41 94 0 14 171 -5
197 -22z m709 0 c8 -2 10 -47 7 -157 -3 -84 -7 -154 -8 -156 -2 -2 -43 28 -91
67 -159 125 -286 222 -305 234 -10 6 -19 14 -19 17 0 6 399 2 416 -5z m3274
-460 c77 -2 85 -4 88 -23 2 -14 -9 -29 -34 -48 -33 -26 -44 -28 -103 -26 -36
1 -83 5 -104 8 -38 6 -38 6 -35 47 2 34 7 42 28 48 14 4 36 5 50 2 14 -4 63
-7 110 -8z m-3290 -381 c-19 -251 -40 -352 -83 -393 -18 -16 -56 -27 -171 -46
-81 -14 -158 -25 -171 -25 -28 0 -33 15 -41 148 l-7 100 36 0 c19 0 44 3 55 6
12 4 52 -3 91 -14 85 -26 113 -24 125 11 7 20 3 34 -18 67 -14 23 -26 46 -26
50 0 16 210 246 217 238 2 -2 -1 -66 -7 -142z"/>
</g>
</svg>
