<?xml version="1.0" standalone="no"?>
<!DOCTYPE svg PUBLIC "-//W3C//DTD SVG 20010904//EN"
 "http://www.w3.org/TR/2001/REC-SVG-20010904/DTD/svg10.dtd">
<svg version="1.0" xmlns="http://www.w3.org/2000/svg"
 width="702.000000pt" height="1280.000000pt" viewBox="0 0 702.000000 1280.000000"
 preserveAspectRatio="xMidYMid meet">
<metadata>
Created by potrace 1.15, written by Peter Selinger 2001-2017
</metadata>
<g transform="translate(0.000000,1280.000000) scale(0.100000,-0.100000)"
fill="#000000" stroke="none">
<path d="M2231 12784 c-154 -41 -283 -168 -331 -323 -20 -62 -20 -101 -20
-1655 0 -1748 -3 -1651 60 -1760 33 -58 116 -142 177 -180 l42 -26 3 -150 3
-150 -60 -20 c-149 -49 -318 -175 -411 -305 -225 -316 -216 -727 22 -1036 103
-134 279 -250 444 -294 l45 -11 7 -215 c3 -118 11 -414 17 -659 6 -245 16
-614 21 -820 9 -350 14 -530 40 -1582 27 -1073 29 -1123 44 -1166 23 -64 71
-127 121 -159 l44 -28 1 -472 0 -472 24 -28 24 -28 684 -3 c481 -2 694 0 721
8 68 20 67 19 67 538 l-1 457 23 14 c39 25 79 65 104 104 47 72 52 123 63 627
7 261 16 642 21 845 5 204 14 555 20 780 6 226 15 577 20 780 5 204 14 582 20
840 6 259 13 502 16 542 l6 72 54 21 c277 103 470 314 545 595 17 61 22 110
22 210 1 140 -14 218 -69 347 -77 183 -249 355 -439 439 l-75 33 0 110 c0 61
3 141 6 177 6 63 8 67 42 85 20 10 64 47 98 82 75 74 119 160 134 258 13 95
13 3094 0 3189 -27 185 -180 353 -361 394 -28 7 -394 10 -1014 10 -815 0 -979
-3 -1024 -15z"/>
<path d="M5985 5534 c-379 -306 -702 -567 -717 -581 -55 -52 -44 -96 41 -176
57 -54 162 -107 261 -134 97 -26 332 -23 467 5 206 44 419 131 590 241 100 64
245 212 300 306 67 113 88 191 87 320 -1 134 -29 229 -103 353 -56 94 -144
207 -167 216 -51 20 -61 12 -759 -550z"/>
<path d="M4353 5338 c6 -238 22 -328 77 -439 88 -174 247 -240 468 -195 75 15
271 71 280 80 6 7 -41 146 -50 146 -5 0 -61 -16 -126 -37 -100 -31 -131 -36
-218 -37 -93 -1 -103 1 -141 26 -91 60 -133 217 -133 499 l0 169 -81 0 -81 0
5 -212z"/>
<path d="M1858 5289 c-74 -12 -154 -53 -217 -114 -209 -199 -180 -486 75 -725
67 -62 224 -171 297 -206 20 -10 37 -20 37 -23 0 -3 -69 -38 -153 -77 -83 -39
-446 -210 -806 -380 -753 -356 -705 -324 -657 -436 107 -246 284 -420 482
-473 92 -25 239 -21 359 10 325 83 701 406 872 750 99 198 117 394 51 546 -21
49 -67 87 -88 74 -17 -10 -11 11 15 56 14 24 25 47 25 51 0 4 -22 19 -48 32
-92 46 -234 148 -302 217 -151 151 -181 323 -76 445 36 42 111 88 163 99 40 8
105 -9 128 -35 18 -19 18 -19 57 13 22 17 50 40 62 49 l21 17 -34 35 c-60 62
-164 92 -263 75z"/>
<path d="M2027 2393 c-31 -131 -129 -535 -216 -899 -88 -363 -162 -676 -166
-696 l-7 -35 73 -17 c40 -9 74 -14 77 -12 2 3 54 209 114 458 59 249 156 651
215 893 58 242 109 455 113 473 6 23 4 35 -3 37 -15 5 -134 35 -139 35 -2 0
-29 -107 -61 -237z"/>
<path d="M4398 2608 c-32 -11 -58 -24 -58 -30 0 -5 48 -161 106 -346 58 -186
134 -427 169 -537 34 -110 109 -348 166 -530 56 -181 104 -332 106 -334 7 -9
153 43 150 54 -3 6 -50 154 -105 330 -349 1110 -442 1405 -442 1410 0 10 -35
3 -92 -17z"/>
<path d="M664 949 c-195 -18 -341 -78 -456 -188 -129 -122 -193 -280 -205
-502 -7 -142 -1 -184 34 -206 29 -19 15 -19 1193 -3 765 11 712 4 718 101 19
306 -343 628 -848 754 -160 40 -313 55 -436 44z"/>
<path d="M5699 905 c-267 -43 -517 -143 -711 -282 -181 -131 -292 -301 -305
-468 -5 -65 -4 -73 20 -100 l25 -30 439 -6 c241 -4 660 -8 931 -10 l494 -4 20
25 c19 23 20 35 15 175 -9 246 -57 375 -192 510 -92 92 -175 139 -315 175
-110 28 -301 35 -421 15z"/>
</g>
</svg>
