<?xml version="1.0" standalone="no"?>
<!DOCTYPE svg PUBLIC "-//W3C//DTD SVG 20010904//EN"
 "http://www.w3.org/TR/2001/REC-SVG-20010904/DTD/svg10.dtd">
<svg version="1.0" xmlns="http://www.w3.org/2000/svg"
 width="1280.000000pt" height="955.000000pt" viewBox="0 0 1280.000000 955.000000"
 preserveAspectRatio="xMidYMid meet">
<metadata>
Created by potrace 1.15, written by Peter Selinger 2001-2017
</metadata>
<g transform="translate(0.000000,955.000000) scale(0.100000,-0.100000)"
fill="#000000" stroke="none">
<path d="M6880 9533 c-129 -45 -208 -156 -198 -278 l5 -53 -80 -79 c-192 -189
-290 -391 -342 -706 -6 -36 -10 -40 -82 -73 -349 -158 -658 -436 -836 -747
-191 -336 -247 -744 -152 -1117 54 -214 167 -434 315 -615 74 -90 216 -226
302 -290 38 -28 68 -52 68 -55 -1 -3 -24 -16 -52 -30 -71 -35 -150 -116 -187
-193 -53 -112 -57 -170 -32 -532 28 -405 40 -890 30 -1203 l-8 -243 -59 -97
c-33 -53 -73 -125 -91 -160 -24 -48 -36 -62 -54 -62 -89 1 -505 23 -652 35
-462 39 -1024 127 -1289 201 -565 159 -918 482 -1137 1042 -71 183 -105 237
-173 277 -53 31 -103 39 -153 26 -139 -38 -211 -196 -169 -373 47 -200 168
-360 531 -698 44 -41 89 -93 99 -114 23 -49 17 -124 -14 -187 -50 -99 -153
-260 -164 -256 -6 3 -125 80 -264 171 -224 147 -253 170 -249 189 24 99 15
285 -20 392 -58 181 -185 330 -353 415 -208 105 -485 99 -747 -16 -157 -69
-357 -236 -463 -385 -138 -197 -205 -394 -204 -609 0 -238 81 -424 244 -559
197 -164 481 -208 768 -119 75 23 205 86 269 129 l42 29 185 -97 c102 -53 186
-99 186 -103 0 -13 -231 -97 -478 -175 -231 -73 -408 -139 -456 -170 -20 -14
-38 -12 -172 16 -104 22 -180 32 -251 33 -94 1 -103 -1 -127 -23 -31 -29 -35
-82 -8 -123 43 -65 157 -131 347 -202 15 -6 0 -14 -63 -32 -140 -41 -220 -94
-242 -160 -15 -43 -8 -73 26 -114 48 -56 127 -84 339 -117 138 -21 511 -24
665 -4 260 33 557 108 771 196 265 109 378 185 519 353 l45 53 815 -425 c907
-473 852 -450 960 -400 30 14 66 36 80 50 l26 24 94 -61 c132 -85 270 -198
330 -270 158 -190 138 -326 -59 -386 -79 -25 -296 -22 -467 6 -186 29 -307 57
-803 180 -523 131 -650 155 -821 155 -106 1 -132 -3 -171 -20 -60 -28 -113
-84 -150 -160 -79 -160 -32 -326 135 -482 37 -34 71 -62 76 -62 5 0 27 26 48
58 l40 57 -40 29 c-51 37 -112 114 -133 170 -25 64 -17 139 20 194 40 61 67
72 179 72 136 0 318 -36 811 -160 656 -166 856 -203 1090 -203 207 0 307 29
402 116 124 115 131 276 19 447 -57 86 -111 143 -223 234 -119 97 -275 200
-303 200 -14 0 -16 6 -10 36 5 19 11 58 14 86 l6 52 -780 512 -780 512 51 59
c94 109 196 196 257 221 51 20 78 23 247 26 343 7 473 -18 1010 -195 390 -128
690 -210 945 -257 114 -21 285 -72 308 -92 2 -1 -26 -92 -62 -201 -192 -584
-331 -1113 -406 -1554 -21 -124 -50 -337 -50 -371 0 -17 60 -18 1339 -18
l1338 0 6 38 c11 66 46 550 57 772 19 398 12 904 -16 1203 l-7 67 61 0 c121 0
204 45 248 136 25 51 27 64 26 170 -3 302 -103 784 -248 1191 l-45 128 57 -55
c157 -153 386 -406 404 -446 15 -34 29 -49 60 -63 31 -14 53 -36 93 -97 29
-43 90 -131 135 -194 45 -63 111 -173 148 -245 79 -153 110 -201 178 -273 102
-109 233 -162 395 -162 182 1 271 37 271 110 0 50 -43 86 -178 151 -69 33
-139 70 -154 81 l-28 20 19 27 c50 70 132 288 165 438 56 252 71 469 60 863
-5 168 -9 458 -8 645 0 308 2 349 21 438 62 282 190 391 458 389 129 -1 231
-20 495 -92 480 -132 821 -211 1085 -251 44 -7 152 -13 240 -13 133 0 175 4
248 22 160 40 326 132 445 246 135 129 140 201 34 465 -82 205 -310 334 -689
390 -236 35 -370 42 -973 51 -719 11 -798 19 -960 98 -138 68 -237 194 -275
353 -8 35 -20 150 -25 254 -12 226 -24 313 -56 412 -90 275 -235 421 -439 440
-142 13 -249 -63 -249 -176 0 -61 34 -132 145 -307 49 -77 89 -144 89 -147 0
-4 -55 -7 -123 -7 l-123 0 -65 129 -65 129 7 68 c31 327 -186 600 -495 621
-76 6 -81 8 -173 69 -112 75 -294 169 -415 214 l-88 33 29 36 c95 119 261 238
412 294 l67 25 33 -34 c40 -41 117 -81 175 -90 106 -16 224 42 278 136 27 48
31 65 31 130 0 62 -5 85 -28 132 -31 63 -86 116 -156 150 -36 18 -63 23 -126
23 -71 0 -86 -4 -135 -31 -39 -22 -66 -47 -93 -87 -37 -55 -40 -57 -82 -57
-24 0 -76 -7 -115 -15 -271 -57 -501 -200 -696 -435 l-62 -75 -203 -2 c-120 0
-241 -7 -292 -15 l-89 -14 7 55 c13 109 87 296 156 397 l28 42 64 -5 c171 -14
312 95 324 251 12 138 -67 249 -206 290 -68 20 -133 20 -191 -1z m2401 -2413
c46 0 55 -11 105 -133 47 -116 72 -218 89 -367 19 -162 19 -251 -2 -377 -19
-119 -12 -161 37 -217 l29 -33 -24 -69 c-30 -87 -45 -214 -45 -374 0 -228 -33
-451 -141 -950 -39 -179 -79 -377 -89 -440 -20 -120 -55 -448 -65 -610 -11
-181 -7 -178 -76 -65 -43 69 -57 101 -50 108 6 6 11 27 11 47 0 64 -62 143
-241 306 -266 242 -337 312 -438 439 -148 185 -216 308 -321 590 -29 77 -64
166 -79 198 l-28 58 61 37 c34 20 95 64 136 97 41 33 102 71 135 85 309 122
582 347 728 598 181 311 199 687 51 1066 -7 18 -3 19 86 13 51 -4 110 -7 131
-7z"/>
<path d="M5294 155 c-3 -8 -4 -18 -1 -22 3 -4 -7 -8 -21 -9 -75 -2 -142 -10
-142 -16 0 -5 41 -8 90 -8 l90 0 0 35 c0 37 -7 45 -16 20z"/>
</g>
</svg>
