<?xml version="1.0" standalone="no"?>
<!DOCTYPE svg PUBLIC "-//W3C//DTD SVG 20010904//EN"
 "http://www.w3.org/TR/2001/REC-SVG-20010904/DTD/svg10.dtd">
<svg version="1.0" xmlns="http://www.w3.org/2000/svg"
 width="1280.000000pt" height="985.000000pt" viewBox="0 0 1280.000000 985.000000"
 preserveAspectRatio="xMidYMid meet">
<metadata>
Created by potrace 1.15, written by Peter Selinger 2001-2017
</metadata>
<g transform="translate(0.000000,985.000000) scale(0.100000,-0.100000)"
fill="#000000" stroke="none">
<path d="M2337 9830 c-3 -14 -20 -104 -38 -200 -42 -232 -56 -252 -253 -391
-76 -53 -169 -126 -205 -161 -103 -100 -86 -96 -205 -48 l-103 43 -13 70 c-9
52 -10 136 -5 324 4 139 5 253 3 253 -3 0 -36 -39 -74 -86 l-69 -85 -21 -167
-22 -167 41 -166 41 -166 65 -34 65 -34 -3 -65 c-1 -35 -4 -68 -7 -71 -2 -4
-88 28 -191 72 -103 43 -193 79 -200 79 -7 0 -13 -6 -13 -13 0 -17 180 -193
268 -262 l63 -50 -6 -54 c-3 -29 -8 -57 -10 -61 -3 -5 -99 49 -213 118 l-208
126 -84 183 c-47 101 -90 183 -97 183 -18 0 -17 -6 17 -165 17 -77 30 -140 30
-141 0 0 -57 -1 -127 0 -71 1 -130 -3 -133 -8 -3 -6 54 -28 125 -51 79 -25
161 -59 209 -87 86 -50 86 -52 -17 -64 -32 -3 -107 -25 -167 -48 l-109 -41
-120 -168 c-67 -92 -121 -175 -121 -185 0 -9 9 -48 20 -87 11 -38 20 -75 20
-81 0 -6 -81 -68 -179 -138 -106 -75 -178 -133 -175 -140 4 -9 37 -7 147 10
206 33 191 36 183 -38 -11 -96 -34 -189 -59 -232 -16 -28 -54 -61 -133 -115
-150 -103 -246 -180 -241 -194 6 -15 -6 -18 191 42 92 29 169 51 171 49 1 -2
-16 -71 -40 -155 l-42 -151 14 -169 13 -168 66 -165 c54 -136 91 -207 210
-405 80 -132 163 -261 186 -287 l41 -47 -132 -222 c-72 -122 -130 -224 -128
-226 2 -2 68 31 147 72 78 41 144 75 145 75 2 0 5 -20 7 -45 l3 -46 -73 -50
c-40 -28 -71 -53 -69 -55 2 -2 30 -9 63 -14 114 -20 104 -10 104 -102 l0 -82
56 -57 c52 -52 57 -62 70 -129 7 -40 15 -74 17 -76 1 -2 20 1 42 6 22 5 41 8
42 6 2 -1 -10 -20 -27 -42 -16 -21 -30 -42 -30 -46 0 -5 35 -8 78 -9 l77 0
121 -137 c108 -122 281 -328 342 -406 13 -17 22 -43 22 -65 0 -70 8 -81 55
-81 40 0 43 -2 49 -31 3 -17 6 -47 6 -67 0 -34 0 -35 38 -28 20 3 46 9 58 12
18 5 30 -10 84 -103 35 -59 65 -109 66 -111 1 -2 37 -7 81 -11 69 -7 85 -5
138 16 l60 23 -80 -78 c-106 -103 -145 -128 -356 -233 l-178 -88 -54 -73 c-29
-40 -88 -127 -129 -193 -122 -193 -136 -205 -279 -241 -88 -23 -128 -45 -201
-112 -35 -32 -128 -101 -208 -154 -159 -106 -700 -510 -713 -533 -15 -27 22
-17 92 25 38 22 83 45 102 51 19 6 130 19 246 28 242 19 292 17 546 -29 92
-17 177 -28 188 -25 29 10 49 -12 49 -54 0 -52 10 -80 29 -86 19 -6 303 88
466 153 271 109 667 306 765 381 36 28 121 105 190 172 69 67 139 127 155 135
39 16 154 4 193 -21 15 -10 53 -46 84 -80 72 -78 110 -101 272 -159 159 -58
225 -91 307 -154 35 -27 140 -92 232 -146 329 -189 405 -246 517 -385 115
-143 667 -854 710 -914 40 -56 109 -105 161 -113 36 -6 41 -12 225 -310 170
-273 214 -333 214 -290 0 85 69 1939 73 1942 1 1 79 -67 172 -152 94 -85 199
-174 235 -198 95 -65 461 -249 471 -239 6 6 -63 113 -170 266 -289 411 -282
393 -558 1344 -30 103 -112 164 -263 199 -81 18 -132 46 -424 231 -98 63 -181
112 -183 109 -3 -3 2 -89 11 -193 9 -103 16 -194 16 -201 0 -7 -40 23 -88 68
l-89 82 27 121 c21 91 31 175 40 327 7 130 16 210 24 220 90 110 293 328 467
500 210 208 461 490 480 539 15 38 12 115 -10 251 -26 163 -59 260 -103 299
l-33 29 29 23 28 22 -4 124 -3 124 -48 42 -48 42 45 45 46 44 0 105 c0 87 -5
119 -27 190 -25 76 -35 93 -91 151 -58 60 -63 68 -58 100 3 19 6 70 6 112 l0
77 75 83 c42 46 93 95 115 108 22 14 40 29 40 34 0 6 -12 51 -26 102 l-26 91
-96 97 -97 96 -244 119 -245 119 -24 54 c-42 93 -140 348 -133 344 4 -3 68
-93 141 -200 115 -168 160 -221 160 -188 0 5 -138 376 -199 537 l-12 30 29
-30 c16 -16 99 -107 184 -200 l155 -170 293 -153 c201 -105 296 -150 303 -143
6 6 9 12 6 14 -107 85 -366 309 -534 461 -121 110 -222 201 -224 203 -2 2 -2
5 0 7 15 16 208 -136 518 -408 79 -69 116 -95 123 -88 7 7 -29 54 -120 154
l-131 143 -41 115 -41 116 -126 62 c-69 35 -124 65 -121 67 2 2 77 14 166 26
110 15 162 26 162 34 0 15 -54 22 -245 31 -77 4 -150 10 -163 13 -20 6 -31 24
-58 101 -19 52 -30 97 -26 101 4 4 80 31 170 60 89 29 162 56 162 59 0 3 -85
21 -190 39 -104 19 -188 36 -186 39 4 3 114 29 357 83 47 10 88 33 79 43 -3 3
-116 10 -250 16 -135 6 -249 12 -254 14 -7 1 671 514 738 558 8 5 8 10 0 18
-7 7 -134 -53 -429 -205 l-418 -216 -24 23 c-29 27 -69 93 -78 128 -5 19 10
52 65 144 38 65 70 119 70 121 0 1 -66 -22 -147 -51 -82 -30 -155 -55 -163
-56 -8 -1 -64 27 -123 61 l-108 63 -267 34 c-254 33 -277 34 -471 28 l-204 -7
-159 -86 -160 -87 -120 13 c-110 12 -125 16 -181 51 -57 35 -65 37 -140 36
l-79 -1 89 89 c74 75 101 95 176 130 48 23 87 47 87 54 0 18 5 18 -127 -14
l-111 -28 -110 -97 c-61 -53 -132 -124 -158 -157 -53 -68 -36 -65 -194 -37
l-65 12 -57 160 c-31 88 -59 164 -61 170 -2 5 -6 -1 -10 -15z m722 -2155 c11
-14 7 -12 -12 4 -15 14 -27 32 -27 40 1 12 3 11 12 -4 6 -11 18 -29 27 -40z
m160 -162 c17 -25 31 -54 31 -62 0 -9 -18 12 -40 47 -22 34 -40 65 -40 68 0
12 20 -10 49 -53z m-613 -1388 c-5 -29 -12 -45 -22 -45 -17 0 -17 -3 2 54 20
57 29 53 20 -9z m-770 24 c19 -22 19 -22 -3 -8 -13 8 -23 17 -23 21 0 12 6 9
26 -13z m207 -257 c22 -30 40 -42 97 -61 38 -13 68 -26 66 -29 -3 -2 -41 8
-86 23 -73 24 -82 30 -95 62 -24 57 -19 59 18 5z m724 -554 c-3 -8 -6 -5 -6 6
-1 11 2 17 5 13 3 -3 4 -12 1 -19z"/>
<path d="M11470 7179 c-385 -59 -980 -148 -1995 -299 -297 -44 -628 -94 -736
-110 -223 -34 -230 -35 -226 -18 2 14 -199 77 -353 110 -140 31 -406 33 -486
5 -148 -51 -251 -183 -305 -387 -27 -108 -37 -345 -19 -473 11 -77 17 -93 51
-136 44 -55 139 -131 209 -166 120 -61 377 -128 485 -126 107 1 285 77 379
161 l51 46 250 38 c138 20 440 68 672 106 l422 69 110 -21 110 -20 143 -104
143 -104 38 -113 c20 -61 71 -272 113 -467 41 -195 76 -356 77 -357 3 -3 657
134 662 139 2 2 -29 110 -70 240 l-75 236 -13 177 -12 177 66 100 c66 98 96
126 263 243 18 13 18 15 1 59 -10 26 -16 48 -14 50 2 1 34 15 70 30 47 20 145
41 345 75 263 45 284 50 362 90 l82 41 -5 38 c-8 55 -24 236 -22 238 1 1 123
23 271 48 148 25 270 47 271 48 1 2 6 44 9 95 l7 92 -33 -4 c-72 -9 -629 -37
-634 -32 -3 3 -11 37 -17 77 l-11 71 -58 35 c-55 34 -144 65 -178 63 -8 -1
-188 -28 -400 -60z"/>
</g>
</svg>
