<?xml version="1.0" standalone="no"?>
<!DOCTYPE svg PUBLIC "-//W3C//DTD SVG 20010904//EN"
 "http://www.w3.org/TR/2001/REC-SVG-20010904/DTD/svg10.dtd">
<svg version="1.0" xmlns="http://www.w3.org/2000/svg"
 width="640.000000pt" height="1280.000000pt" viewBox="0 0 640.000000 1280.000000"
 preserveAspectRatio="xMidYMid meet">
<metadata>
Created by potrace 1.15, written by Peter Selinger 2001-2017
</metadata>
<g transform="translate(0.000000,1280.000000) scale(0.100000,-0.100000)"
fill="#000000" stroke="none">
<path d="M3935 12783 c-38 -8 -96 -29 -128 -46 -57 -30 -137 -107 -137 -132 0
-7 109 -75 242 -151 133 -77 256 -154 274 -171 97 -96 43 -222 -90 -211 -44 4
-87 25 -305 151 -140 81 -255 147 -256 147 -2 0 -19 -27 -38 -59 -26 -44 -32
-62 -24 -69 7 -5 115 -69 241 -141 126 -73 237 -138 248 -145 70 -50 91 -150
41 -200 -32 -32 -60 -40 -118 -34 -33 4 -102 39 -277 140 -128 74 -243 140
-255 147 -20 10 -25 6 -58 -50 -21 -33 -36 -62 -34 -63 2 -2 112 -65 244 -141
132 -75 253 -149 268 -164 65 -59 75 -130 28 -183 -27 -31 -34 -33 -93 -33
l-63 0 -258 149 c-142 81 -259 147 -261 145 -13 -17 -67 -121 -65 -123 2 -2
112 -66 244 -142 132 -76 257 -154 277 -174 64 -63 63 -144 -2 -188 -29 -19
-44 -23 -87 -20 -45 4 -86 24 -309 152 -140 81 -257 146 -258 144 -16 -22 -66
-110 -66 -116 0 -4 108 -70 239 -145 132 -76 251 -147 266 -159 29 -23 65 -87
65 -118 0 -60 -58 -110 -127 -110 -51 1 -79 15 -345 168 -125 73 -229 132
-232 132 -6 0 -66 -108 -66 -118 0 -5 109 -72 243 -148 133 -76 256 -153 274
-172 99 -102 29 -234 -111 -208 -19 4 -148 72 -287 152 -139 79 -256 141 -260
137 -4 -5 -21 -31 -37 -60 -23 -38 -28 -54 -19 -61 7 -5 109 -64 227 -132 118
-68 234 -136 256 -151 77 -52 97 -143 45 -201 -27 -31 -34 -33 -93 -33 l-63 0
-254 147 c-140 81 -257 145 -262 143 -9 -6 -71 -116 -67 -119 2 -1 111 -65
243 -140 132 -76 253 -150 268 -165 81 -74 74 -175 -13 -211 -64 -26 -104 -11
-362 138 -135 78 -251 144 -259 147 -30 11 -54 -68 -54 -175 0 -118 19 -181
93 -303 l53 -89 -70 -122 c-39 -68 -71 -131 -71 -140 0 -36 46 -104 121 -178
l77 -77 -21 -53 c-30 -76 -29 -194 3 -266 l22 -52 -86 -498 c-47 -273 -120
-693 -161 -932 -42 -239 -118 -682 -171 -985 -52 -302 -126 -730 -164 -950
-38 -220 -110 -634 -159 -920 -50 -286 -163 -938 -251 -1450 -185 -1070 -323
-1870 -380 -2198 -46 -261 -48 -304 -19 -363 79 -164 328 -216 460 -97 75 68
48 -62 314 1478 35 204 96 552 134 775 39 223 111 641 161 930 50 289 122 705
160 925 38 220 110 634 159 920 50 286 124 716 165 955 42 239 118 680 170
980 52 300 125 721 162 935 l67 390 36 45 c19 25 38 49 42 53 3 5 49 -3 100
-17 112 -31 178 -33 209 -8 13 10 53 70 90 133 l67 114 75 -3 c149 -7 297 29
381 93 38 29 87 90 87 108 0 3 -96 60 -212 128 -306 176 -312 179 -338 234
-20 41 -21 52 -11 84 18 60 42 76 120 76 l66 0 255 -147 254 -148 33 53 c18
28 32 58 30 66 -1 7 -110 76 -242 152 -276 159 -315 191 -315 264 0 26 5 55
10 66 18 33 68 52 125 47 45 -4 86 -24 301 -148 137 -78 252 -144 255 -146 7
-4 82 116 77 121 -2 1 -106 62 -233 135 -126 73 -245 144 -263 157 -125 93
-81 245 66 231 44 -4 90 -27 299 -147 136 -79 252 -143 257 -144 9 -2 81 112
74 118 -1 2 -113 67 -248 145 -135 78 -256 151 -269 163 -29 27 -51 77 -51
118 0 22 10 41 34 65 30 30 40 34 85 34 62 0 66 -2 359 -172 123 -71 225 -128
226 -126 24 31 66 122 60 127 -5 4 -110 65 -234 136 -269 153 -285 165 -312
220 -25 52 -19 101 18 136 22 20 36 24 92 24 l67 0 254 -148 c139 -81 255
-146 256 -145 10 11 65 111 65 117 0 5 -100 67 -222 137 -289 165 -301 174
-328 230 -20 40 -21 50 -11 85 17 57 59 81 131 76 50 -3 79 -17 304 -148 138
-79 253 -145 257 -147 7 -3 69 101 69 117 0 5 -96 64 -212 132 -270 155 -299
174 -326 213 -46 68 -18 164 53 182 66 17 108 0 362 -146 136 -79 251 -145
255 -147 7 -3 82 117 76 122 -2 1 -111 64 -243 140 -132 76 -253 149 -268 164
-68 62 -76 134 -23 187 29 29 41 34 83 34 61 0 79 -9 353 -168 174 -101 228
-128 237 -119 21 23 43 108 43 171 0 78 -29 179 -77 264 l-35 64 -31 -48 c-42
-63 -88 -94 -142 -94 -52 0 -89 27 -105 76 -17 50 -5 97 46 186 24 42 44 83
43 90 0 7 -23 32 -51 56 l-50 43 -59 -100 c-62 -105 -97 -139 -154 -148 -77
-12 -129 38 -128 124 0 44 9 67 59 155 32 56 60 106 62 109 3 7 -102 69 -117
69 -5 0 -36 -47 -70 -105 -49 -84 -69 -109 -104 -130 -76 -44 -142 -26 -171
46 -24 59 -14 100 49 211 29 51 51 96 49 100 -2 3 -28 14 -57 24 -28 9 -57 19
-63 21 -6 2 -31 -31 -56 -75 -73 -125 -147 -173 -214 -140 -73 35 -89 121 -40
216 l26 52 -67 -1 c-38 0 -99 -7 -138 -16z"/>
</g>
</svg>
