<?xml version="1.0" standalone="no"?>
<!DOCTYPE svg PUBLIC "-//W3C//DTD SVG 20010904//EN"
 "http://www.w3.org/TR/2001/REC-SVG-20010904/DTD/svg10.dtd">
<svg version="1.0" xmlns="http://www.w3.org/2000/svg"
 width="1280.000000pt" height="766.000000pt" viewBox="0 0 1280.000000 766.000000"
 preserveAspectRatio="xMidYMid meet">
<metadata>
Created by potrace 1.15, written by Peter Selinger 2001-2017
</metadata>
<g transform="translate(0.000000,766.000000) scale(0.100000,-0.100000)"
fill="#000000" stroke="none">
<path d="M1630 7653 c-87 -9 -244 -48 -337 -84 -268 -105 -499 -301 -643 -548
-68 -118 -552 -1173 -586 -1279 -169 -524 14 -1096 455 -1428 110 -82 140 -98
721 -367 267 -124 676 -313 910 -422 471 -218 504 -232 640 -266 84 -21 118
-24 290 -24 172 0 206 3 290 24 310 78 569 248 752 494 73 100 76 102 50 52
-84 -169 -383 -829 -391 -865 -28 -122 -2 -261 69 -368 74 -110 80 -114 571
-341 325 -150 508 -234 1654 -766 740 -343 669 -313 750 -324 148 -21 285 26
394 136 64 66 71 77 186 326 66 142 123 261 127 263 4 2 382 -156 840 -352
1784 -763 2710 -1159 3108 -1331 l415 -178 75 0 c65 1 83 5 137 34 82 44 152
120 201 217 107 214 463 997 477 1049 20 80 19 150 -5 228 -41 133 143 32
-2225 1218 -1166 584 -2121 1063 -2122 1063 -1 1 55 123 124 271 147 317 165
379 145 497 -23 133 -94 247 -198 318 -22 16 -380 186 -795 378 -415 192
-1026 476 -1359 630 -333 154 -623 285 -645 291 -22 6 -74 11 -116 11 -173 0
-327 -88 -407 -234 -16 -28 -109 -225 -208 -438 -98 -213 -180 -386 -181 -384
-2 1 6 38 17 81 79 311 25 673 -144 959 -113 191 -281 357 -471 465 -125 72
-1927 902 -2031 936 -161 53 -366 76 -534 58z"/>
</g>
</svg>
