<?xml version="1.0" standalone="no"?>
<!DOCTYPE svg PUBLIC "-//W3C//DTD SVG 20010904//EN"
 "http://www.w3.org/TR/2001/REC-SVG-20010904/DTD/svg10.dtd">
<svg version="1.0" xmlns="http://www.w3.org/2000/svg"
 width="1280.000000pt" height="1103.000000pt" viewBox="0 0 1280.000000 1103.000000"
 preserveAspectRatio="xMidYMid meet">
<metadata>
Created by potrace 1.15, written by Peter Selinger 2001-2017
</metadata>
<g transform="translate(0.000000,1103.000000) scale(0.100000,-0.100000)"
fill="#000000" stroke="none">
<path d="M7265 11023 c-22 -5 -534 -152 -1089 -313 -192 -55 -371 -112 -398
-127 -87 -47 -151 -138 -178 -251 -17 -73 -10 -115 61 -358 182 -632 355
-1230 470 -1629 71 -247 139 -476 151 -509 38 -105 155 -207 263 -230 30 -7
30 -7 162 -424 130 -414 521 -1647 627 -1981 l55 -174 -69 -64 c-159 -147
-290 -345 -352 -528 -19 -58 -23 -91 -23 -190 0 -135 12 -183 71 -281 l35 -58
-28 -26 c-15 -15 -254 -226 -530 -469 -462 -406 -503 -444 -503 -473 0 -26 15
-46 93 -122 138 -137 244 -186 397 -186 147 1 273 58 408 185 174 164 312 408
358 634 31 154 7 314 -61 415 -20 30 -21 37 -9 47 20 16 19 18 -25 77 -130
173 -113 394 49 640 65 98 218 268 230 255 4 -4 71 -208 148 -453 77 -245 220
-697 317 -1005 97 -308 188 -579 202 -603 27 -48 93 -101 136 -109 16 -3 33
-15 38 -27 5 -12 47 -156 94 -321 47 -165 93 -319 101 -343 20 -53 46 -61 132
-38 35 9 65 16 67 14 1 -2 6 -55 9 -120 l7 -116 -28 -6 c-15 -3 -271 -42 -568
-86 -297 -44 -613 -91 -702 -105 -89 -14 -164 -25 -168 -25 -4 0 -4 -14 -1
-30 20 -101 14 -93 60 -86 297 42 1532 229 1535 232 3 2 -1 88 -8 189 -8 102
-11 188 -9 191 3 2 182 56 399 119 396 115 419 124 419 168 0 10 -29 118 -65
240 -36 122 -65 227 -65 233 0 7 6 14 13 17 6 3 264 112 572 242 349 147 565
233 573 228 6 -4 127 -206 268 -448 140 -242 259 -443 262 -447 4 -4 31 6 59
22 l52 30 -27 48 c-16 26 -145 247 -287 492 -141 245 -263 451 -269 458 -10
10 -138 -41 -631 -248 -340 -144 -621 -257 -625 -253 -4 4 -12 28 -19 52 -11
39 -11 45 8 65 33 35 61 108 61 161 0 31 -34 178 -89 390 -295 1126 -352 1347
-348 1351 2 2 37 11 78 19 164 31 336 89 497 167 69 33 102 55 98 63 -11 29
-57 96 -64 93 -89 -47 -219 -104 -299 -132 -97 -33 -340 -93 -347 -85 -2 2
-44 159 -93 349 l-90 345 33 28 c19 16 55 58 80 93 94 131 137 308 115 463
-25 171 -28 173 -228 126 -82 -19 -155 -35 -164 -35 -11 0 -19 12 -24 36 -3
20 -5 37 -3 38 2 2 27 16 56 31 126 68 246 215 296 365 143 427 -175 880 -620
882 l-71 0 -36 136 -36 135 35 41 c19 22 47 65 61 96 23 47 27 68 27 145 0 85
-5 109 -111 470 -61 209 -180 616 -263 905 -345 1196 -315 1102 -376 1170 -85
94 -233 148 -339 123z"/>
<path d="M10577 6498 c-23 -20 -790 -1108 -816 -1157 -19 -35 -12 -59 27 -91
119 -98 351 -93 577 14 317 149 550 406 602 661 40 196 -48 387 -245 533 -86
64 -111 71 -145 40z"/>
<path d="M1390 4477 c-121 -36 -214 -92 -305 -182 -44 -45 -97 -110 -118 -145
-47 -81 -87 -204 -94 -291 l-6 -66 -102 -17 c-277 -45 -454 -130 -599 -286
-97 -105 -166 -261 -166 -375 0 -115 47 -239 115 -303 24 -22 55 -60 69 -84
48 -82 56 -141 59 -433 3 -282 2 -269 59 -505 16 -69 82 -198 132 -262 105
-132 262 -227 424 -255 96 -17 89 -18 302 14 19 2 140 -13 270 -35 373 -64
402 -67 615 -67 218 0 295 11 452 65 251 85 392 258 541 660 28 74 68 174 91
222 112 244 162 462 162 714 0 181 -22 308 -82 460 -68 174 -133 266 -263 370
-80 64 -240 150 -325 175 -37 11 -57 29 -144 133 -248 296 -432 435 -633 479
-192 43 -341 47 -454 14z m335 -117 c230 -30 391 -142 657 -456 l120 -142 76
-27 c228 -80 389 -210 477 -385 84 -167 120 -345 111 -555 -8 -206 -49 -379
-138 -578 -22 -51 -63 -150 -90 -222 -181 -482 -288 -594 -638 -671 -94 -21
-376 -24 -505 -5 -49 7 -211 33 -360 58 -269 45 -270 45 -332 29 -79 -21 -204
-21 -274 0 -186 56 -344 212 -399 394 -49 167 -53 197 -60 495 -4 172 -12 312
-19 345 -20 86 -66 173 -129 242 -76 84 -95 135 -91 242 4 71 9 92 42 158 43
89 142 193 232 248 115 69 308 122 492 136 l90 7 6 111 c7 130 29 212 84 305
49 82 161 187 243 229 120 60 203 69 405 42z"/>
<path d="M4880 3219 c-371 -3 -822 -7 -1002 -8 l-328 -1 0 -66 0 -65 108 5
c59 3 535 8 1057 12 523 3 953 8 957 12 4 4 4 33 1 65 l-6 57 -56 -2 c-31 -1
-360 -5 -731 -9z"/>
<path d="M12095 3015 c-264 -58 -584 -293 -718 -525 -81 -143 -91 -360 -18
-399 17 -9 53 -3 183 33 90 25 395 108 678 186 283 77 523 143 533 146 10 3
25 16 33 30 15 22 15 30 0 92 -9 37 -37 109 -62 159 -72 149 -177 242 -319
279 -63 17 -231 16 -310 -1z"/>
<path d="M3500 2305 l0 -65 1465 0 1465 0 0 65 0 65 -1465 0 -1465 0 0 -65z"/>
<path d="M3360 1585 l0 -65 1025 0 1025 0 0 65 0 65 -1025 0 -1025 0 0 -65z"/>
<path d="M6829 1402 c-69 -25 -91 -44 -91 -74 0 -15 140 -313 314 -665 247
-502 319 -641 340 -652 24 -14 31 -13 79 9 417 193 492 569 194 965 -113 150
-312 315 -459 380 -127 56 -284 72 -377 37z"/>
</g>
</svg>
