<svg xmlns="http://www.w3.org/2000/svg" version="1.0" width="977.000000pt" height="1280.000000pt" viewBox="0 0 977.000000 1280.000000" preserveAspectRatio="xMidYMid meet">
    <metadata>
        Created by potrace 1.15, written by Peter Selinger 2001-2017
    </metadata>
    <g transform="translate(0.000000,1280.000000) scale(0.100000,-0.100000)" fill="#000000" stroke="none">
        <path d="M5985 12782 c-112 -26 -175 -47 -290 -102 -211 -98 -374 -205 -798 -523 -361 -270 -488 -356 -627 -424 -113 -55 -196 -133 -230 -217 l-23 -53 -68 -7 c-37 -3 -265 -10 -506 -16 -477 -10 -470 -10 -749 -46 -462 -59 -1015 -172 -1218 -248 -314 -118 -433 -177 -666 -327 -372 -239 -460 -288 -623 -349 -67 -25 -86 -37 -83 -49 2 -9 15 -65 27 -125 12 -61 56 -207 96 -325 41 -119 99 -287 128 -373 103 -299 138 -476 138 -708 1 -173 -14 -272 -65 -429 -28 -88 -53 -148 -223 -541 -163 -376 -217 -645 -202 -1015 13 -323 86 -557 238 -766 153 -209 309 -316 493 -339 196 -24 522 70 748 215 196 127 367 374 522 751 190 464 238 980 132 1419 -96 399 -262 705 -509 942 -45 43 -94 95 -110 115 -15 21 -63 61 -107 89 -75 49 -80 54 -80 88 0 38 -16 104 -75 316 -45 161 -58 311 -30 338 90 91 541 313 938 463 181 69 232 83 413 113 351 58 876 87 1144 61 155 -14 563 -134 840 -246 214 -87 397 -194 483 -282 l38 -39 -45 -134 c-25 -74 -70 -231 -101 -349 -30 -118 -58 -222 -61 -230 -4 -11 -16 -3 -47 32 -23 25 -76 77 -117 114 -203 183 -392 286 -620 338 l-65 15 -53 -52 c-30 -29 -99 -103 -155 -165 -332 -371 -536 -746 -618 -1139 -131 -625 -27 -1710 208 -2177 102 -203 250 -337 432 -390 77 -23 209 -21 299 4 285 79 596 385 748 735 37 88 38 93 34 185 -9 233 -7 282 20 334 39 76 114 136 262 212 143 72 251 139 284 176 21 22 22 39 33 348 12 337 27 531 61 773 19 137 59 358 66 366 2 2 15 -11 30 -28 78 -93 528 -225 814 -238 141 -6 389 20 588 63 93 20 142 24 271 24 185 0 236 -10 371 -77 80 -39 109 -60 185 -137 73 -73 99 -108 133 -176 52 -106 72 -182 72 -280 0 -143 -50 -266 -148 -366 -140 -141 -268 -200 -786 -368 -508 -165 -728 -250 -1091 -425 -183 -89 -461 -255 -608 -364 -45 -33 -170 -146 -278 -251 -108 -105 -263 -256 -346 -336 -219 -211 -470 -534 -829 -1064 -101 -149 -249 -354 -329 -455 -80 -101 -153 -198 -162 -215 -8 -17 -37 -53 -63 -81 -156 -162 -292 -435 -346 -690 -15 -70 -19 -131 -19 -280 0 -175 3 -198 28 -295 15 -57 36 -113 45 -123 24 -27 129 -100 179 -126 377 -190 914 -64 1493 349 224 160 403 304 855 690 543 463 837 681 1150 852 293 161 596 268 759 268 208 0 301 -122 275 -359 -19 -170 -94 -307 -258 -472 -126 -127 -263 -229 -591 -443 -322 -210 -484 -332 -600 -452 -104 -108 -141 -157 -188 -251 -50 -99 -72 -193 -72 -311 0 -227 68 -362 242 -478 136 -91 292 -148 613 -226 116 -27 284 -68 374 -90 313 -75 528 -162 648 -262 50 -42 51 -44 36 -66 -19 -27 -35 -174 -26 -238 5 -38 11 -45 47 -64 114 -57 259 -193 468 -438 128 -150 184 -205 279 -275 95 -70 218 -127 325 -149 26 -6 40 -23 97 -121 98 -166 151 -226 241 -270 63 -31 87 -38 161 -43 l87 -5 -55 109 c-30 60 -116 244 -192 409 -224 490 -328 691 -467 897 -80 120 -202 269 -290 355 l-73 71 -195 67 c-597 205 -781 261 -1258 379 -348 87 -426 112 -535 168 -148 77 -212 167 -212 298 0 69 4 83 46 170 54 111 130 219 251 359 119 136 211 212 493 408 351 244 496 354 618 473 200 192 279 323 308 510 14 91 -3 206 -39 274 -37 69 -137 156 -235 205 -221 111 -586 101 -923 -25 -360 -134 -689 -347 -1259 -815 -302 -247 -489 -397 -575 -461 -113 -83 -732 -495 -840 -560 -387 -229 -611 -273 -786 -153 -114 78 -164 202 -165 405 0 126 17 231 57 354 47 146 99 229 244 391 40 44 91 107 113 140 23 33 82 110 132 170 117 141 300 373 549 698 256 335 430 540 641 756 244 250 494 459 747 625 154 101 232 143 373 201 50 20 106 46 125 57 36 21 351 163 710 320 113 50 324 137 469 195 491 195 637 278 748 420 324 418 69 985 -537 1193 -174 59 -429 78 -623 45 -133 -22 -397 -46 -502 -45 -116 2 -208 13 -352 46 -265 59 -451 132 -542 211 l-44 39 32 104 c45 143 133 363 196 490 l53 105 -36 70 c-19 39 -64 142 -99 230 -92 226 -146 326 -220 404 -35 36 -63 67 -63 69 0 15 135 153 369 376 152 145 326 318 386 385 295 328 419 563 402 763 -16 184 -174 354 -394 424 -77 24 -244 27 -338 6z m30 -457 c136 -29 282 -97 265 -124 -7 -12 -12 -12 -32 1 -46 30 -166 76 -243 93 -109 25 -271 17 -379 -18 -97 -32 -88 -19 13 17 130 47 254 57 376 31z m-2195 -1001 c85 -8 157 -18 160 -21 10 -10 -134 -273 -150 -273 -8 0 -64 5 -124 10 -113 11 -132 10 -486 -30 -255 -30 -345 -45 -644 -111 -254 -57 -466 -117 -620 -175 -88 -34 -216 -101 -435 -228 -291 -170 -428 -241 -569 -296 -29 -11 -35 -11 -51 7 -10 10 -39 27 -64 37 -44 16 -66 44 -52 65 12 21 177 123 340 211 94 51 204 116 245 143 75 50 210 172 210 189 0 10 -185 -85 -370 -190 -254 -144 -449 -295 -566 -437 l-33 -40 20 -70 c43 -153 86 -442 104 -696 l6 -87 -33 -5 c-18 -2 -56 -15 -85 -28 -49 -21 -53 -22 -71 -6 -25 22 -44 87 -32 103 6 6 36 14 67 17 49 5 72 17 73 38 0 3 -25 16 -55 28 -60 25 -103 68 -139 139 -39 76 -54 151 -81 395 -14 125 -35 262 -46 304 -10 42 -16 80 -12 84 5 4 58 35 118 70 118 67 359 218 574 362 73 49 145 93 160 97 14 4 132 46 261 93 271 98 414 133 855 207 360 61 629 97 805 109 180 13 528 5 720 -15z m242 -167 l3 -121 115 -41 c117 -42 293 -117 320 -136 20 -14 13 -12 -115 39 -55 22 -166 61 -247 88 l-148 48 0 127 c0 69 3 128 6 132 3 3 19 1 35 -5 l28 -10 3 -121z m-277 -427 c3 -5 1 -10 -4 -10 -6 0 -11 5 -11 10 0 6 2 10 4 10 3 0 8 -4 11 -10z m-2483 -1644 c-281 -296 -484 -672 -592 -1095 -105 -412 -79 -838 71 -1166 13 -27 23 -52 24 -55 0 -3 12 -25 27 -50 58 -99 61 -205 8 -317 -45 -98 -146 -186 -247 -217 -19 -6 -23 -4 -23 16 0 13 9 43 20 67 34 74 30 81 -45 81 -99 0 -145 -31 -145 -96 0 -37 -6 -29 -75 91 -105 183 -135 276 -156 495 -14 148 -6 437 15 586 84 570 320 1106 634 1436 164 173 377 295 521 297 l34 1 -71 -74z m347 -282 c6 -27 19 -92 30 -144 11 -52 35 -212 52 -355 26 -207 33 -298 33 -445 l0 -185 -46 -175 c-92 -352 -179 -533 -339 -704 -97 -104 -151 -130 -273 -129 -92 0 -165 16 -236 51 -34 17 -35 19 -33 75 3 84 41 301 69 389 29 91 68 134 109 118 22 -8 25 -7 25 13 0 12 16 67 35 121 37 106 43 151 22 180 -11 16 -15 12 -30 -37 -20 -65 -71 -119 -134 -143 -24 -9 -46 -14 -49 -11 -3 2 16 29 42 58 82 92 164 200 164 215 0 18 -31 18 -77 -1 -20 -8 -37 -14 -39 -13 -1 2 23 23 54 48 193 154 448 543 541 823 35 106 61 222 61 274 0 47 8 39 19 -23z m-1130 -2597 c19 -7 36 -18 39 -25 3 -10 -12 -12 -63 -10 -57 3 -70 6 -83 26 -14 22 -14 22 29 21 24 0 59 -5 78 -12z"/>
    </g>
</svg>