<svg xmlns="http://www.w3.org/2000/svg" version="1.0" width="1051.000000pt" height="1280.000000pt" viewBox="0 0 1051.000000 1280.000000" preserveAspectRatio="xMidYMid meet">
    <metadata>
        Created by potrace 1.15, written by Peter Selinger 2001-2017
    </metadata>
    <g transform="translate(0.000000,1280.000000) scale(0.100000,-0.100000)" fill="#000000" stroke="none">
        <path d="M5945 12784 c-77 -8 -247 -17 -377 -20 l-237 -5 -3 -26 c-3 -26 -3 -26 -94 -24 -102 2 -175 -12 -200 -40 -13 -15 -31 -19 -77 -19 -45 0 -70 -6 -101 -24 -23 -13 -57 -27 -76 -32 -19 -4 -37 -8 -40 -9 -3 -1 -25 -5 -50 -9 -25 -5 -54 -15 -65 -22 -11 -8 -29 -14 -40 -14 -11 0 -37 -11 -57 -25 -27 -18 -50 -25 -84 -25 -37 0 -54 -6 -73 -24 -18 -17 -50 -30 -98 -40 -39 -8 -84 -21 -100 -29 -15 -8 -34 -12 -40 -10 -7 3 -13 0 -13 -5 0 -12 -64 -54 -77 -51 -14 4 -47 -14 -68 -36 -11 -12 -38 -25 -60 -28 -21 -4 -52 -16 -67 -27 -15 -11 -34 -20 -43 -20 -9 0 -31 -11 -49 -25 -18 -14 -37 -25 -42 -25 -5 0 -38 -21 -74 -46 -36 -25 -79 -54 -97 -65 -17 -11 -41 -35 -52 -52 -11 -18 -38 -58 -60 -91 -23 -32 -41 -61 -41 -65 0 -12 -69 -69 -88 -73 -13 -2 -18 -15 -20 -51 -3 -42 -5 -47 -28 -47 -16 0 -24 -6 -24 -18 0 -10 -21 -38 -46 -62 -25 -24 -50 -55 -55 -68 -7 -19 -15 -23 -34 -20 -20 4 -24 1 -27 -21 -2 -20 -9 -27 -30 -29 -24 -3 -28 -8 -28 -34 0 -25 -21 -50 -130 -159 -72 -71 -125 -129 -118 -129 6 0 -12 -23 -40 -51 -29 -28 -50 -55 -47 -59 3 -5 -26 -39 -64 -76 -38 -38 -67 -72 -65 -76 3 -4 -4 -18 -15 -30 -12 -12 -21 -25 -21 -30 0 -4 -7 -8 -15 -8 -8 0 -15 -9 -15 -20 0 -23 -72 -119 -129 -173 -23 -20 -41 -42 -41 -47 0 -15 -66 -113 -89 -132 -12 -10 -26 -18 -33 -18 -6 0 -8 -3 -5 -7 4 -3 1 -13 -7 -22 -8 -9 -15 -20 -16 -26 -1 -5 -22 -32 -46 -59 -41 -46 -57 -75 -34 -61 15 9 12 0 -11 -39 -16 -28 -27 -36 -50 -36 -28 0 -29 -2 -29 -45 0 -34 -4 -45 -15 -45 -17 0 -30 -28 -45 -97 -7 -28 -21 -53 -38 -68 -15 -13 -60 -89 -102 -174 -54 -108 -80 -151 -92 -151 -13 0 -18 -8 -18 -30 0 -18 -17 -53 -46 -96 -31 -43 -43 -68 -36 -73 8 -5 2 -18 -17 -41 -32 -39 -48 -80 -32 -80 6 0 -5 -21 -24 -46 -19 -25 -35 -54 -35 -64 0 -9 -6 -23 -14 -29 -19 -16 -57 -105 -71 -166 -10 -43 -15 -50 -38 -53 -15 -2 -27 -5 -27 -6 0 -27 -34 -183 -42 -193 -6 -7 -10 -30 -10 -51 1 -32 -6 -45 -40 -78 -31 -29 -37 -40 -24 -42 21 -4 20 -18 -4 -57 -28 -45 -104 -229 -120 -290 -7 -27 -17 -54 -21 -59 -5 -6 -9 -27 -9 -48 0 -23 -9 -51 -25 -74 -24 -35 -29 -57 -26 -96 1 -9 -3 -19 -9 -23 -23 -14 -40 -80 -40 -156 0 -67 -4 -85 -24 -117 -24 -36 -59 -159 -50 -174 3 -5 2 -14 -3 -20 -4 -7 -22 -107 -38 -223 l-31 -210 -33 -3 c-31 -3 -32 -4 -14 -18 16 -12 16 -15 3 -24 -13 -8 -13 -10 3 -10 21 0 23 -26 2 -34 -24 -9 -57 -69 -42 -78 9 -6 9 -8 0 -8 -7 0 -13 -7 -13 -15 0 -10 -10 -15 -30 -15 -37 0 -119 -36 -140 -61 -3 -3 -24 -18 -48 -33 -39 -24 -132 -135 -132 -158 0 -5 -9 -21 -19 -36 -21 -29 -51 -187 -51 -266 0 -86 58 -208 115 -240 10 -6 40 -27 66 -47 45 -35 47 -38 33 -58 -9 -12 -32 -30 -53 -41 -21 -10 -53 -31 -71 -47 -40 -33 -155 -206 -140 -211 18 -6 10 -47 -15 -74 -14 -15 -25 -31 -25 -36 0 -5 -11 -21 -25 -36 -14 -15 -25 -29 -25 -32 0 -2 -17 -30 -39 -62 -76 -113 -81 -144 -81 -504 0 -315 0 -319 -23 -349 -21 -29 -22 -42 -25 -214 -3 -180 -3 -185 24 -252 15 -37 33 -93 40 -123 32 -133 63 -232 80 -251 14 -16 15 -22 5 -28 -9 -6 -2 -19 26 -49 31 -33 38 -49 38 -76 -1 -23 6 -43 20 -59 12 -13 30 -41 40 -63 10 -21 24 -46 31 -54 7 -8 13 -19 14 -25 1 -5 13 -26 26 -45 58 -84 94 -143 94 -152 0 -6 11 -19 25 -30 13 -10 24 -22 23 -26 -2 -12 21 -62 30 -62 4 0 19 -18 32 -39 14 -21 28 -34 31 -29 4 6 20 -10 37 -34 16 -24 48 -61 69 -83 22 -22 52 -58 66 -80 23 -33 27 -36 27 -17 0 21 2 21 47 -13 27 -18 71 -54 98 -79 28 -25 51 -41 53 -36 2 5 24 0 48 -11 25 -10 54 -19 64 -19 41 0 120 -24 120 -37 0 -7 10 -13 23 -13 22 -1 57 -21 57 -34 0 -11 22 -31 42 -39 10 -3 18 -11 18 -17 0 -5 5 -10 11 -10 5 0 7 5 4 10 -3 6 1 10 9 10 8 0 30 -21 48 -46 32 -45 33 -46 36 -20 l3 26 37 -25 c20 -14 40 -25 44 -25 4 0 32 -11 63 -25 30 -14 85 -33 122 -43 38 -9 69 -20 71 -24 6 -14 133 -8 189 8 41 12 61 13 77 6 l21 -11 -22 0 c-21 -1 -23 -6 -23 -56 0 -51 2 -56 30 -70 17 -9 34 -26 39 -38 51 -145 80 -212 103 -238 22 -24 28 -40 28 -75 l0 -44 56 0 56 0 -7 -52 c-3 -29 -9 -61 -11 -70 -5 -16 2 -18 45 -18 48 0 51 -2 51 -25 0 -24 3 -25 55 -25 30 0 55 1 55 3 0 2 -11 41 -25 88 -13 46 -25 91 -25 99 0 8 -7 28 -15 43 -13 26 -13 31 11 67 25 37 25 38 9 93 -9 30 -25 63 -35 72 -16 14 -20 31 -20 76 l0 58 42 -15 c24 -8 67 -29 97 -45 l54 -31 -7 54 c-4 29 -9 62 -12 73 -6 26 44 50 91 42 19 -3 44 1 60 9 15 8 42 14 61 14 23 0 32 4 29 13 -6 15 147 70 156 56 6 -10 74 14 84 30 3 6 11 8 18 5 7 -2 19 7 27 21 7 14 17 25 22 25 4 0 8 5 8 11 0 11 24 39 34 39 2 0 6 -8 8 -18 3 -12 11 -5 28 25 23 39 29 43 65 43 35 0 44 6 69 40 17 22 36 40 43 40 7 0 13 4 13 8 0 13 36 52 47 52 6 0 28 18 49 40 35 37 44 41 84 40 67 -2 70 -2 70 18 1 20 23 52 36 52 6 0 27 21 48 46 21 25 56 58 77 73 21 16 36 31 33 34 -6 6 10 39 29 59 7 7 23 34 34 59 12 26 37 59 55 73 26 20 29 26 14 26 -15 0 -17 5 -12 27 4 16 16 41 27 56 32 44 99 313 99 397 0 25 7 77 15 115 21 99 21 412 0 462 -9 22 -15 68 -15 121 0 83 -4 104 -55 272 l-22 75 31 5 31 5 -37 22 c-35 21 -58 65 -58 115 0 23 -45 124 -59 132 -14 9 -15 66 -1 66 14 0 -1 34 -29 66 -15 17 -20 29 -13 32 12 4 0 31 -30 65 -9 10 -19 29 -22 42 -3 13 -22 47 -41 76 -25 38 -31 55 -23 60 9 6 8 13 -5 27 -9 10 -17 22 -17 25 0 4 -16 31 -35 61 -19 29 -32 55 -30 58 2 2 -14 23 -36 47 -21 25 -39 50 -39 57 0 6 -11 22 -25 35 -13 13 -25 29 -25 35 0 6 -7 17 -15 24 -8 7 -13 16 -10 20 3 5 -34 49 -82 98 -91 92 -113 121 -113 146 0 7 -11 21 -25 30 -21 14 -105 89 -177 159 -10 9 -18 13 -18 8 0 -5 -27 17 -60 49 -33 32 -60 67 -60 78 0 16 -11 22 -64 32 -52 10 -74 20 -108 51 -24 21 -52 39 -63 39 -22 1 -55 22 -55 36 0 5 -12 17 -25 27 -22 15 -25 16 -25 2 0 -8 -4 -15 -10 -15 -5 0 -10 5 -10 10 0 6 -7 10 -15 10 -9 0 -18 6 -21 14 -3 8 -12 12 -20 9 -22 -8 -113 25 -142 52 -17 16 -29 21 -33 14 -4 -6 -15 -9 -25 -5 -11 3 -35 7 -56 10 -20 2 -47 12 -61 21 -31 20 -74 26 -186 28 l-84 2 -15 44 c-11 33 -12 46 -3 49 6 2 9 7 6 12 -3 4 6 43 20 86 14 44 30 116 37 161 10 71 15 83 32 85 19 3 21 12 26 103 5 95 7 103 37 140 20 24 29 42 22 46 -7 4 0 43 22 115 43 147 95 319 111 374 12 40 17 45 46 48 l32 3 0 63 c0 53 4 67 25 90 16 17 25 39 25 58 0 18 11 48 26 69 16 24 26 53 28 83 2 34 10 54 29 74 20 20 27 39 27 66 0 27 9 48 32 76 20 26 31 50 30 70 -1 26 8 37 49 68 48 35 49 37 25 40 -31 4 -33 13 -7 36 11 10 22 29 26 44 3 14 14 37 24 51 9 14 23 44 29 66 7 22 30 60 52 85 21 25 35 46 30 48 -10 4 8 63 24 77 6 6 18 24 26 40 8 17 23 40 34 53 11 12 21 32 23 44 2 13 8 27 13 32 6 6 10 18 10 28 0 33 23 67 63 95 31 21 36 29 23 31 -16 3 -14 8 10 33 15 16 38 29 51 29 22 0 23 4 23 68 0 70 11 95 38 85 10 -4 13 -1 10 8 -10 27 64 129 94 129 3 0 5 11 4 24 -5 38 28 79 76 97 l43 17 3 85 c2 69 6 86 20 92 9 3 18 2 20 -4 2 -6 13 -4 28 5 13 9 24 13 24 9 0 -5 16 8 35 28 20 21 40 37 45 37 5 0 11 9 15 20 3 11 19 27 35 36 16 10 26 23 23 31 -3 7 0 13 5 13 15 0 67 49 67 63 0 7 9 13 20 16 10 2 46 29 78 60 59 57 97 80 97 59 0 -6 14 8 30 30 17 23 34 42 38 42 5 0 33 23 62 50 47 44 55 48 62 33 3 -10 7 -13 7 -7 2 20 79 96 91 89 12 -7 50 27 50 45 0 9 29 15 53 11 4 0 7 2 7 6 0 5 13 23 29 42 23 27 30 30 32 17 3 -14 11 -10 42 19 23 21 47 35 63 35 16 0 34 10 46 25 22 29 48 33 48 8 0 -10 11 1 27 25 26 40 104 90 111 72 3 -9 91 50 112 75 7 8 23 15 36 15 17 0 23 -6 26 -27 3 -26 5 -25 38 25 25 36 42 52 58 52 12 0 22 -4 22 -10 0 -23 39 -7 61 25 25 36 59 47 59 19 0 -13 8 -10 38 12 20 15 39 31 42 34 8 11 217 90 237 90 11 0 25 6 31 12 10 10 14 10 21 0 5 -9 14 -6 31 13 20 21 33 25 81 25 46 0 58 -3 61 -17 2 -12 11 -4 31 25 l27 42 79 0 c49 0 81 -4 83 -11 2 -7 30 2 73 22 62 29 81 33 165 35 104 2 181 17 214 39 17 13 85 15 421 15 395 0 401 -1 505 -26 58 -14 139 -27 179 -30 75 -4 135 -18 159 -37 7 -5 39 -9 72 -8 58 1 60 0 60 -24 0 -24 3 -25 60 -25 56 0 130 -23 130 -41 0 -5 17 -11 38 -15 20 -4 47 -15 60 -25 13 -10 37 -21 55 -25 32 -7 148 -55 177 -74 8 -5 30 -17 48 -26 22 -11 32 -23 32 -40 0 -22 4 -24 48 -24 36 0 54 -5 67 -20 10 -11 23 -20 29 -20 7 0 32 -20 56 -45 30 -30 46 -41 51 -33 5 8 12 3 20 -15 7 -15 20 -29 31 -32 11 -4 18 -16 18 -31 0 -23 3 -24 65 -24 42 0 65 4 65 11 0 26 50 -65 56 -101 4 -22 10 -40 14 -40 12 0 90 -127 106 -172 8 -22 14 -56 14 -74 0 -27 4 -34 19 -34 23 0 51 -68 52 -125 0 -22 3 -34 6 -27 14 35 43 -18 43 -78 0 -33 3 -40 20 -40 12 0 21 -8 24 -22 26 -128 56 -292 56 -309 0 -12 11 -34 25 -51 24 -28 25 -35 25 -164 0 -128 1 -134 20 -134 19 0 20 -6 19 -62 -2 -43 3 -73 14 -95 9 -18 17 -39 17 -48 0 -8 4 -23 9 -33 17 -33 62 -647 82 -1132 13 -307 4 -532 -42 -1015 -11 -115 -22 -266 -25 -335 -5 -94 -10 -128 -22 -137 -12 -10 -13 -29 -8 -111 8 -104 -1 -163 -35 -230 -11 -20 -19 -42 -19 -49 0 -7 -9 -13 -19 -13 -16 0 -20 -8 -23 -37 -2 -30 -7 -38 -23 -38 -17 0 -19 -6 -17 -36 3 -30 -3 -41 -44 -82 -26 -26 -41 -47 -34 -47 19 0 -18 -39 -55 -57 -16 -9 -42 -25 -57 -37 -14 -12 -45 -34 -67 -51 -28 -19 -51 -49 -71 -90 -16 -33 -39 -71 -50 -83 -24 -25 -26 -36 -5 -28 17 6 21 -9 5 -19 -28 -18 -43 -72 -41 -149 l2 -80 -27 27 c-15 15 -31 27 -35 27 -5 0 -9 7 -9 15 0 8 -5 15 -10 15 -18 0 -71 54 -66 67 3 7 -5 18 -17 24 -12 7 -24 15 -27 18 -12 15 -78 59 -110 73 -19 9 -46 28 -59 42 -13 13 -29 22 -36 19 -12 -4 -40 6 -110 38 -43 20 -395 39 -532 28 -181 -14 -238 -22 -253 -33 -26 -21 -70 -36 -104 -36 -39 0 -95 -17 -117 -36 -10 -9 -41 -14 -88 -14 l-72 0 -51 -50 c-50 -49 -51 -50 -114 -50 -57 0 -64 -2 -64 -20 0 -17 -7 -20 -45 -20 -43 0 -45 -1 -45 -30 0 -24 -6 -33 -27 -41 -15 -5 -58 -31 -97 -57 -39 -26 -74 -47 -77 -47 -4 0 -22 -13 -40 -29 -33 -27 -97 -61 -111 -58 -4 1 -18 -12 -32 -28 -13 -17 -31 -30 -38 -30 -8 0 -32 -18 -53 -40 -21 -22 -46 -40 -54 -40 -9 0 -45 -31 -81 -69 -36 -39 -78 -76 -93 -84 -26 -14 -137 -113 -137 -123 0 -6 -48 -54 -54 -54 -10 0 -121 -123 -121 -134 0 -6 -15 -12 -32 -14 -25 -3 -33 -8 -33 -23 0 -21 -22 -49 -37 -49 -10 0 -38 -42 -35 -53 1 -4 -26 -37 -60 -73 -35 -36 -62 -70 -60 -75 6 -23 -20 -49 -48 -49 -27 0 -30 -3 -30 -33 0 -25 -9 -42 -35 -67 -19 -19 -35 -40 -35 -47 0 -7 -10 -24 -22 -39 -13 -14 -23 -29 -23 -33 0 -4 -24 -30 -52 -59 -37 -35 -53 -59 -53 -76 0 -16 -14 -41 -35 -63 -31 -33 -33 -38 -18 -44 17 -7 17 -7 1 -14 -10 -4 -18 -13 -18 -21 0 -8 -3 -14 -7 -14 -5 0 -13 -11 -19 -25 -9 -18 -9 -25 0 -28 6 -2 -11 -23 -37 -47 -26 -24 -43 -46 -38 -49 10 -7 3 -21 -43 -85 -15 -21 -16 -29 -6 -41 13 -16 13 -16 -48 -85 -18 -20 -19 -26 -7 -28 16 -4 21 -42 5 -42 -16 0 -40 -57 -40 -95 0 -31 -3 -35 -25 -35 -24 0 -25 -2 -25 -69 0 -51 -5 -79 -19 -103 -11 -18 -23 -51 -27 -73 -3 -22 -11 -45 -16 -52 -5 -7 -7 -17 -4 -22 4 -5 -5 -43 -19 -83 -35 -98 -41 -190 -26 -437 10 -161 18 -224 37 -287 27 -91 29 -114 13 -114 -6 0 0 -15 13 -32 45 -61 118 -195 118 -217 0 -12 6 -21 13 -20 6 1 28 1 48 0 35 -1 37 -3 42 -42 4 -28 18 -56 48 -92 24 -28 44 -60 44 -71 2 -25 26 -66 39 -66 12 0 35 -32 36 -48 0 -7 11 -24 25 -38 14 -14 25 -29 25 -34 0 -5 11 -26 25 -46 19 -28 25 -32 25 -17 0 11 10 25 24 31 16 7 26 22 31 49 4 21 10 43 15 48 9 11 13 37 11 78 -1 22 -6 27 -26 27 -18 0 -28 7 -35 24 -5 13 -15 28 -23 33 -33 20 -47 58 -47 126 0 43 4 66 10 62 14 -9 13 -3 -10 59 -12 30 -27 60 -35 66 -19 16 -21 229 -3 263 19 37 58 212 48 215 -27 9 0 172 28 172 12 0 41 59 30 62 -19 7 2 94 31 125 21 23 24 32 15 39 -17 12 3 71 37 108 19 20 25 36 23 66 -1 22 2 40 6 40 5 0 24 14 42 30 18 17 26 28 17 25 -14 -5 -16 0 -14 26 3 35 21 60 70 96 28 21 29 22 8 23 -30 0 -29 4 12 55 20 24 31 45 25 47 -5 1 5 21 24 42 18 22 31 46 29 55 -5 18 30 62 62 79 18 10 18 11 2 12 -30 0 -14 23 42 60 l53 35 -31 5 -31 5 39 42 c22 23 37 44 34 46 -2 3 10 20 27 38 17 19 26 35 21 37 -10 3 72 92 85 92 5 1 23 12 39 25 23 19 26 25 13 25 -24 0 -23 7 5 33 13 12 38 46 56 76 37 61 49 74 74 84 9 4 20 15 24 24 9 22 23 37 45 45 9 4 22 19 30 35 7 15 26 34 41 41 16 8 31 21 35 30 8 22 23 36 45 45 9 4 20 15 24 24 9 23 23 37 46 46 9 4 20 15 24 24 9 22 33 48 46 48 6 0 18 14 27 30 9 17 29 36 44 43 15 8 30 21 34 30 7 21 28 42 40 42 5 0 27 18 50 40 34 33 47 40 81 40 40 0 41 1 41 34 0 27 7 38 38 60 21 14 43 26 49 26 6 0 14 12 18 28 5 20 9 23 14 12 8 -21 29 -19 49 6 18 22 85 74 95 74 4 0 7 -8 7 -17 1 -16 2 -15 12 2 6 11 25 38 42 59 30 39 31 39 36 15 6 -24 6 -24 23 8 17 32 60 83 70 83 3 0 7 -7 9 -15 2 -12 9 -10 30 10 15 14 31 25 36 25 6 0 13 8 17 18 7 16 8 16 14 0 5 -15 14 -11 56 27 27 25 54 43 60 41 5 -2 24 7 41 20 17 12 44 26 60 30 16 4 43 14 59 23 17 9 44 16 60 16 17 1 40 4 53 9 17 6 22 4 22 -10 0 -12 13 -3 41 29 31 35 49 47 70 47 15 0 31 -5 34 -10 4 -6 25 3 52 22 l47 31 296 -10 c284 -9 298 -11 320 -31 l24 -22 -162 0 c-155 0 -162 -1 -162 -20 0 -11 -1 -20 -2 -20 -2 -1 -39 -7 -83 -15 -44 -8 -94 -15 -111 -15 -17 0 -51 -13 -77 -31 -39 -26 -54 -30 -82 -25 -34 7 -105 -19 -120 -44 -10 -15 -33 -12 -37 6 -2 12 -12 8 -43 -18 -22 -19 -53 -35 -69 -36 -16 -1 -37 -8 -45 -16 -29 -25 -79 -46 -83 -35 -2 6 -21 -8 -43 -30 -22 -22 -44 -40 -50 -40 -28 3 -44 -4 -72 -31 -25 -24 -32 -27 -35 -15 -2 12 -12 8 -41 -20 -31 -29 -44 -35 -82 -35 -36 0 -45 -3 -45 -17 0 -28 -65 -90 -102 -97 -23 -4 -53 -27 -98 -72 -36 -37 -85 -76 -109 -87 -25 -12 -75 -52 -113 -89 -37 -37 -79 -70 -93 -74 -16 -4 -25 -13 -25 -26 0 -19 -21 -48 -35 -48 -18 0 -106 -79 -125 -113 -28 -49 -283 -307 -304 -307 -11 0 -16 -9 -16 -27 0 -19 -12 -40 -40 -66 -21 -22 -38 -43 -37 -48 1 -5 -29 -40 -67 -79 -59 -61 -65 -70 -45 -70 21 0 19 -5 -27 -53 -77 -81 -91 -99 -71 -91 24 9 21 -3 -10 -41 -38 -45 -72 -101 -79 -130 -4 -16 -14 -25 -32 -27 -24 -3 -27 -8 -30 -43 -2 -22 -9 -47 -16 -55 -6 -8 -18 -27 -26 -42 -9 -19 -21 -28 -37 -28 -22 0 -23 -4 -23 -61 0 -64 -8 -87 -46 -128 -13 -14 -20 -27 -15 -29 15 -5 -5 -59 -33 -89 -16 -18 -22 -30 -14 -34 6 -4 7 -12 2 -20 -5 -8 -9 -21 -11 -29 -1 -8 -8 -19 -16 -25 -26 -19 -37 -53 -37 -113 0 -50 -3 -60 -22 -71 -13 -7 -31 -23 -41 -37 -15 -21 -16 -24 -2 -24 11 0 15 -11 15 -45 0 -38 -3 -45 -20 -45 -20 0 -20 -7 -22 -382 -1 -419 -1 -427 13 -445 6 -6 9 -17 8 -25 -4 -18 23 -58 38 -58 14 0 20 -20 27 -108 l6 -62 -29 0 c-15 0 -35 -8 -44 -18 -30 -33 -21 -64 35 -121 54 -55 83 -72 133 -78 49 -5 55 -11 55 -49 0 -36 0 -36 18 -16 23 27 79 20 84 -11 2 -16 19 -27 73 -45 97 -32 156 -38 193 -19 21 10 66 15 143 16 62 1 115 4 118 6 3 1 4 31 3 64 -2 34 -8 59 -13 55 -5 -3 -24 2 -42 11 -20 11 -54 16 -90 16 l-57 -1 -70 67 c-39 37 -70 76 -70 85 0 11 -7 18 -19 18 -13 0 -21 8 -23 22 -3 20 -10 23 -50 26 l-48 3 0 -40 c0 -23 5 -41 10 -41 6 0 10 -18 10 -39 0 -29 5 -41 18 -45 9 -3 37 -27 62 -52 l45 -47 -64 7 c-35 3 -72 6 -82 6 -19 0 -49 50 -49 82 0 14 8 18 32 18 l31 0 -47 31 c-60 40 -88 89 -51 89 25 0 17 14 -23 38 -21 13 -44 33 -51 44 -17 28 -40 847 -24 880 6 13 16 60 22 106 10 77 13 86 51 124 42 43 51 62 25 52 -30 -12 -17 53 21 108 20 29 31 54 25 56 -25 8 -2 80 33 104 6 4 10 24 9 45 -1 32 5 46 37 80 21 23 36 44 34 46 -3 2 14 24 36 48 30 33 37 45 25 47 -21 5 -19 39 6 65 11 12 33 45 49 72 16 28 48 68 70 90 33 31 38 40 26 45 -22 7 -6 29 48 64 22 15 32 26 22 26 -22 0 -20 13 4 35 12 11 28 34 36 52 9 18 37 54 62 80 25 26 46 53 46 60 1 18 50 92 61 93 6 0 25 23 44 50 18 27 36 48 40 47 6 -2 156 144 156 153 0 7 57 65 65 65 8 1 162 156 188 190 13 16 26 30 30 30 11 1 76 69 77 80 0 6 16 12 35 15 25 4 36 11 40 28 3 13 9 24 14 25 5 1 21 13 36 27 33 32 79 70 84 70 3 0 6 -8 8 -18 3 -13 11 -6 32 25 16 24 32 43 37 43 4 0 11 9 14 21 8 23 55 45 64 30 3 -5 31 13 60 40 39 36 57 46 62 37 6 -9 15 -6 37 15 33 32 42 34 42 10 0 -13 5 -11 18 10 9 15 20 27 24 27 5 0 8 5 8 11 0 11 24 39 34 39 2 0 6 -7 8 -16 2 -12 13 -6 45 25 40 40 44 41 107 41 63 0 65 1 68 26 2 22 11 29 46 39 23 7 42 10 42 7 0 -3 8 2 18 10 27 24 159 88 182 88 12 0 20 -7 20 -16 0 -14 3 -14 15 -4 12 10 15 10 15 -1 0 -7 16 6 36 29 l36 42 91 0 c74 0 98 4 125 20 23 14 50 20 91 20 76 0 272 -12 268 -17 -2 -1 -53 -8 -113 -14 -60 -6 -114 -15 -121 -20 -6 -6 -57 -9 -113 -8 -56 1 -105 -2 -108 -7 -18 -25 -65 -44 -104 -43 -42 2 -72 -9 -113 -42 -11 -9 -42 -22 -69 -28 -27 -7 -63 -24 -80 -38 -26 -22 -31 -23 -41 -9 -10 14 -15 12 -41 -13 -16 -15 -40 -32 -54 -36 -14 -4 -44 -21 -67 -36 -23 -16 -62 -32 -87 -35 -35 -5 -46 -11 -46 -25 0 -18 -55 -38 -68 -25 -3 4 -33 -20 -66 -52 -62 -59 -132 -100 -138 -81 -2 6 -19 -6 -38 -25 -19 -20 -55 -48 -80 -62 -25 -14 -57 -43 -72 -65 -23 -33 -33 -39 -63 -39 -32 0 -35 -2 -35 -30 0 -23 -7 -33 -32 -46 -43 -22 -167 -107 -195 -133 -12 -11 -24 -29 -28 -41 -3 -11 -10 -20 -14 -20 -9 0 -135 -122 -197 -190 -49 -55 -132 -130 -142 -130 -5 0 -30 -43 -58 -95 -40 -78 -53 -95 -72 -95 -13 0 -20 -4 -17 -10 7 -12 -115 -202 -142 -221 -22 -15 -53 -70 -53 -92 0 -8 -11 -19 -25 -25 -14 -6 -25 -19 -25 -27 0 -15 -80 -174 -141 -280 -28 -50 -48 -102 -69 -182 -6 -24 -17 -43 -26 -45 -16 -3 -83 -147 -84 -179 0 -27 -40 -109 -52 -109 -6 0 -9 -3 -5 -6 3 -3 -5 -18 -19 -33 -24 -25 -24 -26 -4 -29 15 -3 20 -11 20 -31 0 -68 10 -88 54 -105 66 -25 66 -25 66 69 0 84 0 85 25 85 22 0 25 4 25 38 0 59 28 132 51 132 17 0 19 8 19 75 0 68 2 75 20 75 13 0 21 9 25 28 16 74 29 113 41 123 8 6 14 23 14 36 0 15 12 36 30 53 21 19 30 37 30 59 0 17 4 31 10 31 5 0 18 20 29 44 10 24 49 75 85 112 44 47 61 70 51 72 -8 2 -15 7 -15 10 1 10 26 42 34 42 11 0 56 43 56 54 0 6 15 38 33 73 28 54 36 63 60 63 22 0 29 5 33 28 6 29 33 67 130 184 33 40 67 84 74 98 17 32 80 91 91 85 4 -3 16 9 25 26 24 48 123 144 174 170 25 13 77 52 117 88 39 36 86 70 105 77 20 7 32 17 32 28 -1 11 6 16 27 16 24 0 29 4 29 25 0 15 5 25 13 24 22 -4 48 13 58 38 5 14 22 30 38 36 16 6 34 21 40 34 12 26 38 31 43 8 2 -12 9 -10 30 10 32 29 38 31 38 9 0 -9 15 4 33 28 18 24 52 53 75 65 24 12 55 30 70 40 73 48 129 76 142 68 5 -3 30 8 56 25 59 37 64 37 64 3 l1 -28 17 28 c9 15 20 27 24 27 5 0 8 7 8 15 0 8 7 15 15 15 8 0 15 5 15 10 0 6 14 10 30 10 21 0 30 -5 30 -16 0 -12 9 -8 38 14 41 33 133 72 170 72 12 0 22 4 22 8 0 22 119 43 292 53 101 5 189 12 196 14 27 10 9 -32 -24 -52 -32 -21 -48 -23 -155 -23 -114 0 -119 -1 -119 -21 0 -19 -5 -21 -52 -19 -88 4 -102 1 -131 -26 -22 -21 -44 -28 -103 -35 -42 -6 -96 -17 -120 -25 -24 -8 -48 -13 -53 -10 -4 3 -22 -9 -40 -26 -22 -22 -42 -32 -67 -32 -24 -1 -45 -11 -70 -34 -40 -37 -41 -37 -46 -16 -2 13 -11 8 -38 -20 -19 -19 -56 -43 -82 -53 -27 -9 -48 -22 -48 -29 0 -15 -42 -26 -50 -13 -4 5 -34 -18 -67 -51 -55 -53 -96 -80 -77 -49 15 24 -17 2 -75 -54 -34 -31 -64 -57 -68 -58 -5 0 -16 -7 -25 -16 -9 -8 -21 -12 -26 -9 -5 3 -56 -42 -113 -99 -81 -82 -110 -105 -131 -105 -24 0 -28 -4 -28 -28 0 -22 -16 -44 -72 -99 -90 -87 -149 -157 -173 -203 -9 -19 -33 -52 -53 -72 -21 -22 -30 -38 -22 -38 7 0 -8 -20 -36 -45 -34 -31 -44 -44 -31 -45 27 0 20 -33 -18 -84 -33 -42 -36 -53 -40 -129 -3 -45 -5 -86 -6 -92 -1 -5 7 -50 16 -100 9 -49 20 -117 23 -150 6 -49 10 -60 25 -59 12 1 17 -5 17 -22 0 -22 4 -24 55 -24 30 0 55 3 55 8 0 4 -7 34 -15 67 -8 33 -14 102 -15 153 0 88 1 92 19 80 10 -6 17 -18 14 -25 -3 -7 0 -13 6 -13 6 0 11 -7 11 -15 0 -8 4 -14 9 -13 5 2 17 -6 25 -17 15 -20 15 -20 16 1 0 19 5 21 68 20 91 -1 188 11 215 28 24 15 77 30 77 21 0 -20 -53 -84 -74 -89 -19 -5 -30 -19 -45 -61 -12 -31 -21 -60 -21 -65 0 -5 -9 -12 -20 -15 -11 -3 -25 -15 -30 -26 -6 -10 -17 -19 -24 -19 -7 0 -32 -38 -55 -85 -42 -84 -43 -85 -79 -85 l-37 0 -21 -77 c-18 -71 -22 -78 -48 -83 -26 -5 -28 -9 -32 -63 -3 -45 -11 -69 -35 -104 -36 -51 -59 -119 -59 -171 0 -25 -7 -40 -25 -54 -35 -27 -72 -114 -92 -211 -8 -45 -19 -87 -24 -93 -5 -6 -10 -46 -11 -90 -3 -75 -1 -83 26 -118 l29 -39 32 89 c17 49 40 106 50 127 10 21 19 49 21 62 4 41 124 378 144 406 11 15 22 38 25 51 3 13 22 39 40 57 37 36 45 54 20 45 -22 -9 -18 4 14 45 30 38 104 166 126 216 7 17 31 55 54 85 22 30 41 58 41 62 0 5 7 8 15 8 8 0 12 6 9 14 -3 8 0 17 6 21 9 6 9 9 0 15 -8 5 2 18 28 39 22 17 57 53 78 81 32 42 43 50 71 50 26 0 33 4 33 20 0 11 7 20 15 20 9 0 27 28 45 66 16 37 30 67 30 68 0 1 -21 0 -47 -2 l-48 -3 25 22 c14 12 24 27 22 33 -1 7 16 22 38 35 22 12 39 25 37 29 -3 9 63 82 72 80 3 -1 23 15 44 35 21 20 33 37 26 37 -10 0 -10 3 -2 11 13 13 33 4 33 -15 0 -14 42 -26 91 -26 23 0 29 4 29 23 0 14 12 30 35 45 19 12 35 29 35 37 0 10 10 15 30 15 35 0 35 0 15 47 -8 19 -15 39 -15 43 0 4 23 8 50 8 43 0 63 7 133 50 45 27 97 57 115 66 25 13 32 23 32 47 0 28 2 30 28 25 15 -3 44 -8 65 -12 l37 -6 0 42 0 42 45 -26 45 -27 0 50 c0 40 3 49 15 45 8 -3 37 2 64 11 49 16 49 16 39 46 -6 17 -8 33 -4 36 3 3 46 -9 96 -27 50 -17 93 -30 96 -27 2 2 -9 34 -26 71 -16 38 -30 79 -30 92 0 23 -2 24 -75 24 l-75 0 0 -56 c0 -48 -2 -55 -17 -50 -44 14 -156 37 -159 33 -3 -2 0 -16 5 -31 l11 -26 -64 0 c-36 0 -66 -4 -68 -9 -1 -5 -43 -27 -93 -48 -83 -36 -90 -41 -93 -69 -3 -28 -6 -30 -33 -26 -38 6 -77 -14 -81 -42 -2 -12 -9 -20 -16 -18 -24 5 -78 -27 -132 -79 -52 -50 -106 -89 -122 -89 -5 0 -8 8 -8 18 0 22 55 77 68 68 6 -4 14 -1 17 4 4 6 25 25 47 41 23 16 35 29 27 29 -27 1 42 50 70 50 16 0 31 7 35 15 3 8 11 12 18 10 7 -3 24 5 38 18 14 12 41 34 60 47 19 13 41 32 47 41 7 9 36 23 64 30 33 9 57 22 66 36 13 19 24 23 69 23 52 0 54 1 54 28 0 26 2 27 45 24 l45 -4 0 56 0 55 -42 -15 c-24 -9 -75 -22 -115 -29 -40 -8 -89 -24 -110 -35 -21 -11 -41 -20 -46 -20 -4 0 -25 -11 -45 -25 -20 -14 -45 -25 -54 -25 -10 0 -35 -15 -55 -34 -21 -18 -48 -36 -60 -40 -11 -4 -27 -13 -33 -21 -7 -9 -29 -15 -51 -15 -29 0 -39 -4 -39 -16 0 -9 -11 -25 -24 -35 -14 -11 -27 -28 -31 -38 -3 -10 -20 -25 -37 -32 -18 -7 -47 -26 -65 -42 -18 -16 -33 -26 -33 -21 0 13 -50 -39 -72 -74 -11 -19 -52 -54 -90 -78 -38 -25 -67 -48 -64 -53 7 -11 -29 -42 -77 -67 -21 -10 -49 -33 -63 -51 -13 -17 -34 -35 -46 -38 -13 -4 -33 -18 -45 -32 -41 -46 -162 -59 -195 -21 -28 32 -18 104 17 136 19 16 22 22 11 22 -22 0 -21 3 28 67 45 59 116 129 127 126 3 -1 12 9 19 22 7 14 17 25 21 25 9 0 101 93 115 116 6 11 22 24 35 31 12 7 38 26 56 42 19 17 37 31 42 31 5 0 14 7 21 15 7 9 19 14 26 11 7 -3 20 7 30 22 19 30 53 57 71 57 6 0 23 10 37 23 15 12 29 22 33 22 3 0 25 16 49 35 51 42 58 43 49 8 l-6 -28 30 33 c17 18 31 36 31 40 0 4 12 15 25 25 25 18 25 18 25 -4 0 -18 4 -15 26 17 31 45 52 63 76 64 10 0 31 13 48 30 33 32 67 39 72 15 2 -12 12 -7 41 20 20 19 39 35 41 35 3 0 6 -12 8 -26 3 -24 5 -23 41 25 l37 51 85 0 c84 0 85 0 85 25 0 24 3 25 48 24 45 -2 75 9 113 39 23 18 191 45 199 32 4 -6 26 3 53 20 39 24 58 30 106 30 52 0 59 3 69 25 10 22 18 25 67 25 52 0 59 -3 98 -41 31 -29 43 -36 45 -25 5 24 34 19 70 -14 37 -32 40 -63 6 -68 -14 -2 -31 -21 -48 -53 l-27 -49 26 -10 c54 -21 79 -9 163 77 34 36 56 51 67 47 10 -4 15 -2 13 6 -5 22 44 40 110 40 55 0 62 2 62 20 0 30 18 24 22 -7 3 -28 3 -28 32 14 21 32 35 43 55 43 20 0 23 2 11 10 -13 8 -12 10 3 10 10 0 20 7 24 16 3 8 11 13 19 10 16 -6 106 83 100 100 -3 7 13 38 35 68 29 40 36 56 25 56 -27 0 -18 34 15 61 l31 25 5 130 c2 71 1 154 -4 184 -7 46 -13 57 -36 68 -30 15 -38 56 -12 66 25 9 17 52 -14 79 -43 36 -44 61 -4 65 30 3 32 1 37 -40 4 -24 8 -67 11 -96 3 -42 11 -61 37 -92 18 -21 45 -41 61 -45 30 -7 32 -16 16 -81 -9 -33 -9 -48 0 -58 10 -11 10 -47 0 -158 l-12 -143 -39 -39 c-21 -22 -38 -44 -38 -50 0 -18 -204 -216 -223 -216 -10 0 -17 -8 -17 -20 0 -11 -12 -26 -27 -34 -34 -18 -165 -148 -169 -167 -2 -8 -9 -30 -16 -49 -10 -27 -12 -88 -8 -255 5 -197 9 -230 33 -317 53 -196 83 -442 56 -474 -8 -9 -22 -33 -32 -53 -16 -32 -17 -33 -12 -8 3 16 6 109 6 208 -1 137 -4 184 -15 202 -8 12 -17 50 -21 85 -5 42 -13 66 -24 75 -23 15 -36 68 -21 77 8 5 0 19 -24 42 -24 23 -36 44 -36 62 0 22 -8 31 -42 46 -24 11 -55 20 -69 20 -21 0 -28 7 -35 33 -9 31 -12 32 -65 35 -45 2 -56 7 -64 25 -10 22 -14 22 -236 25 l-227 2 -11 -44 c-6 -25 -11 -47 -11 -50 0 -13 318 -29 367 -18 l42 10 3 -45 3 -44 110 -37 c61 -20 102 -38 93 -40 -10 -2 -18 -6 -18 -8 0 -3 22 -25 49 -50 32 -30 50 -55 54 -77 3 -18 9 -47 13 -66 l7 -33 -34 17 c-18 10 -55 40 -80 66 -44 46 -50 49 -98 49 -48 0 -51 2 -51 25 l0 25 -230 0 -230 0 0 -25 c0 -22 -4 -25 -35 -25 -26 0 -35 4 -35 17 0 13 -3 14 -12 5 -7 -7 -29 -12 -51 -12 -33 0 -39 -4 -49 -30 -7 -21 -18 -32 -36 -36 -64 -12 -109 -27 -139 -44 -17 -10 -57 -23 -90 -30 -90 -18 -93 -19 -93 -46 0 -14 -6 -24 -15 -24 -7 0 -18 -6 -22 -13 -4 -8 -32 -27 -61 -42 -30 -16 -89 -63 -132 -105 -90 -87 -156 -140 -176 -140 -7 0 -28 -18 -45 -40 -26 -32 -39 -40 -66 -40 -30 0 -33 -3 -33 -30 0 -24 -15 -44 -81 -107 -46 -44 -93 -80 -108 -83 -21 -4 -30 -16 -46 -60 -23 -64 -90 -160 -112 -160 -8 0 -12 -4 -9 -9 3 -5 -1 -15 -10 -22 -9 -7 -29 -39 -45 -71 -16 -31 -38 -62 -49 -68 -11 -6 -43 -50 -71 -98 -28 -48 -64 -106 -80 -129 -16 -23 -29 -53 -29 -67 0 -14 -5 -28 -10 -31 -6 -4 -19 -24 -30 -46 -17 -32 -26 -39 -50 -39 -28 0 -30 -3 -30 -36 0 -20 -9 -81 -21 -137 -19 -94 -23 -103 -65 -146 -33 -35 -40 -47 -28 -49 13 -3 15 -13 11 -45 -3 -23 -13 -133 -23 -244 -16 -185 -19 -203 -36 -203 -18 0 -18 -1 -1 -25 10 -13 21 -25 25 -25 14 0 47 -34 42 -42 -15 -23 17 -2 60 40 35 34 44 48 32 50 -14 3 -16 26 -16 178 0 147 2 174 15 174 25 0 46 45 47 99 0 31 4 51 11 51 7 0 4 5 -5 11 -16 9 -15 14 12 66 17 31 30 66 30 79 0 15 6 24 15 24 8 0 18 12 21 27 4 16 20 55 36 88 15 33 28 68 28 78 0 10 11 22 24 26 23 9 35 35 36 76 1 11 15 29 33 40 18 11 33 30 35 43 2 16 10 22 27 22 20 0 25 7 34 51 17 77 49 144 87 178 18 17 37 31 41 31 13 1 69 50 56 50 -24 0 2 43 58 94 33 29 59 60 59 69 0 9 14 25 30 37 18 13 30 30 30 43 0 26 89 117 113 117 9 0 23 13 32 30 18 36 33 44 108 60 55 13 57 14 57 45 0 37 44 85 78 85 17 0 22 6 22 24 0 25 23 40 51 34 8 -2 15 7 17 20 3 19 9 22 53 22 46 0 49 2 49 25 0 14 6 25 13 25 16 0 57 42 57 58 0 8 18 12 50 12 47 0 50 2 50 25 0 23 4 25 45 25 41 0 45 2 45 25 0 24 3 25 55 25 l55 0 0 35 0 35 66 0 c64 0 66 1 77 30 7 19 17 28 25 25 8 -3 112 -5 233 -5 200 0 220 -2 226 -17 10 -29 35 -53 55 -53 12 0 18 -7 18 -24 0 -19 7 -26 29 -31 25 -5 31 -14 51 -81 29 -98 48 -208 56 -319 5 -71 2 -112 -14 -195 -12 -58 -31 -161 -42 -230 -28 -175 -27 -170 -54 -170 -19 0 -24 -7 -29 -33 -9 -56 -25 -87 -46 -87 -14 0 -23 -13 -36 -53 -9 -28 -31 -67 -48 -85 -17 -17 -26 -32 -19 -32 18 0 15 -15 -14 -57 -14 -21 -37 -62 -50 -91 -13 -30 -28 -51 -33 -48 -5 4 -20 -12 -32 -34 -13 -22 -33 -47 -46 -55 -13 -9 -23 -23 -23 -33 0 -10 -20 -37 -45 -60 -25 -23 -45 -51 -45 -62 0 -15 -7 -20 -25 -20 -21 0 -25 -5 -25 -30 0 -22 -7 -33 -27 -44 -16 -8 -41 -31 -58 -51 -58 -71 -222 -230 -272 -264 -5 -3 -12 -14 -16 -24 -4 -9 -20 -20 -37 -23 -27 -6 -30 -10 -30 -45 0 -33 4 -41 31 -55 18 -9 44 -14 60 -12 20 3 29 0 31 -11 2 -10 14 2 33 31 16 25 43 54 59 63 44 25 101 81 149 145 22 30 61 75 86 100 46 47 103 115 109 131 2 5 15 9 28 9 19 0 24 5 24 23 0 16 9 28 25 35 14 6 25 18 25 25 0 8 10 22 21 33 12 10 25 28 30 39 17 37 51 90 74 115 13 14 33 46 45 72 14 30 36 56 63 75 42 28 42 28 15 31 -27 3 -27 4 -12 28 9 13 20 21 25 18 5 -3 9 6 9 21 0 40 28 75 60 75 24 0 29 -5 32 -27 l3 -28 24 36 c13 19 42 48 64 64 32 23 37 30 23 35 -14 4 -9 12 24 45 22 21 40 47 40 57 0 10 15 46 33 81 17 34 38 77 45 95 8 18 19 38 25 45 26 28 37 55 24 60 -7 3 2 19 26 44 40 42 45 53 22 53 -25 0 -17 34 15 65 25 24 30 37 30 74 1 65 15 120 36 135 16 12 16 27 6 217 -7 112 -19 233 -27 269 -9 36 -17 86 -19 112 -1 26 -14 69 -29 98 -25 48 -27 61 -27 180 l0 127 40 28 c23 16 36 31 30 35 -20 12 -3 71 31 106 40 41 88 45 145 12 34 -20 48 -21 183 -19 80 1 150 6 156 12 14 14 25 11 25 -7 0 -11 9 -5 28 18 46 58 59 68 91 68 27 0 31 3 31 28 0 32 77 122 104 122 16 0 17 17 14 193 -2 105 -7 201 -12 211 -7 14 -6 17 2 12 7 -4 12 -3 12 2 0 6 -16 19 -35 31 -21 12 -35 28 -35 40 0 11 -4 23 -10 26 -17 11 -11 45 8 45 10 0 -1 12 -29 30 -40 26 -52 44 -100 142 l-54 113 -3 160 c-2 90 1 188 7 225 55 317 77 550 91 980 20 574 4 1284 -39 1765 -12 127 -21 236 -21 243 0 6 -9 12 -20 12 -19 0 -20 7 -20 100 0 79 -3 100 -14 100 -25 0 -59 90 -64 165 -2 39 -10 77 -17 85 -7 8 -16 44 -20 80 -4 36 -15 83 -26 106 -10 22 -22 67 -28 100 -5 32 -25 93 -45 136 -19 42 -33 78 -30 80 2 3 -7 35 -21 72 -14 36 -25 84 -25 106 l0 40 -42 0 -43 0 3 75 c2 49 0 75 -7 75 -6 0 -11 7 -11 15 0 8 -4 15 -10 15 -5 0 -10 8 -10 19 0 10 -8 29 -18 42 -21 27 -72 132 -72 149 0 6 -7 27 -17 48 -9 20 -15 40 -15 45 1 4 -5 7 -13 7 -8 0 -15 7 -15 15 0 8 -8 23 -18 33 -10 10 -17 23 -15 28 2 5 -11 24 -28 42 -31 32 -31 32 -8 32 24 1 24 1 -3 18 -16 9 -28 20 -28 24 0 5 -7 8 -16 8 -9 0 -14 6 -11 14 3 7 -6 25 -19 39 -13 14 -24 30 -24 35 0 5 -45 54 -100 108 -55 54 -100 102 -100 106 0 3 7 8 15 10 18 4 -34 64 -85 98 -64 43 -100 82 -100 111 0 23 -6 30 -37 40 -26 8 -69 43 -131 105 -52 52 -98 92 -103 88 -5 -3 -36 22 -70 55 -50 50 -67 61 -94 61 -18 0 -38 -7 -45 -15 -7 -8 -16 -12 -21 -9 -24 15 -3 -19 51 -82 32 -38 59 -75 60 -83 0 -11 -5 -10 -20 4 -11 10 -20 23 -20 29 0 6 -25 37 -56 70 -30 32 -53 61 -49 64 3 3 -3 11 -13 16 -28 16 -82 64 -82 73 0 4 -15 18 -33 31 -17 12 -25 22 -18 22 8 0 -6 15 -31 33 -25 17 -43 38 -41 45 3 6 0 12 -5 12 -16 0 -73 51 -67 59 2 5 -7 14 -20 21 -14 7 -25 17 -25 22 0 4 -5 8 -10 8 -6 0 -27 18 -47 40 -20 23 -42 39 -49 36 -6 -2 -22 6 -35 20 -12 13 -28 24 -36 24 -7 0 -28 15 -46 33 -58 55 -127 100 -127 83 0 -24 -18 -19 -22 6 -2 17 -16 27 -53 41 -27 10 -60 28 -72 39 -12 11 -34 21 -50 23 -15 1 -75 25 -133 52 -58 27 -120 55 -137 62 -18 8 -33 17 -33 21 0 4 -24 11 -52 14 -29 4 -62 13 -73 20 -11 7 -44 19 -72 25 -46 11 -53 16 -53 37 0 23 -2 24 -85 24 -58 0 -93 5 -108 14 -28 19 -170 48 -211 44 -27 -3 -31 0 -34 25 l-3 27 -180 0 c-106 0 -188 4 -200 10 -10 6 -43 12 -72 14 -28 2 -86 6 -127 9 -41 3 -138 -1 -215 -9z m599 -162 c8 -13 202 -61 256 -64 53 -2 180 -32 208 -49 40 -23 43 -23 36 -4 -5 13 -2 14 22 4 16 -6 71 -26 122 -45 51 -18 99 -37 105 -41 7 -4 20 -9 31 -10 10 -2 48 -15 85 -30 36 -15 76 -26 87 -25 16 1 24 -6 28 -23 4 -16 13 -25 26 -25 24 0 110 -41 110 -52 0 -5 9 -19 20 -30 31 -34 2 -44 -32 -11 -14 14 -31 23 -36 19 -5 -3 -21 3 -35 14 -14 11 -40 20 -60 20 -20 0 -39 5 -42 11 -10 15 -142 74 -211 94 -42 12 -54 19 -43 26 11 7 10 9 -6 9 -10 0 -34 14 -52 32 -31 30 -33 31 -33 10 0 -12 -6 -22 -14 -22 -16 0 -117 40 -131 52 -5 4 -40 8 -77 8 -65 0 -68 1 -68 24 0 23 -4 25 -72 29 -40 3 -107 15 -148 28 -74 23 -79 24 -582 24 -280 0 -508 3 -508 6 0 24 73 28 527 28 265 1 484 -3 487 -7z m-1131 -49 c-7 -2 -19 -2 -25 0 -7 3 -2 5 12 5 14 0 19 -2 13 -5z m-78 -14 c-16 -5 -43 -11 -58 -14 -16 -3 -46 -17 -67 -30 -34 -21 -52 -25 -122 -25 -108 0 -92 16 32 30 52 7 102 18 110 25 15 14 52 22 105 23 l30 0 -30 -9z m-395 -114 c0 -16 -53 -21 -99 -8 -23 6 -23 7 -5 14 10 4 38 8 62 8 31 1 42 -3 42 -14z m1541 0 c24 -8 53 -19 64 -25 11 -5 65 -11 120 -12 81 -3 109 -8 145 -27 35 -17 60 -22 111 -22 62 1 67 0 73 -22 5 -21 14 -25 85 -34 63 -8 85 -16 107 -37 16 -14 35 -24 42 -21 12 4 72 -18 179 -66 23 -10 51 -19 62 -19 19 0 71 -40 71 -54 0 -4 5 -12 10 -19 6 -7 17 -21 25 -32 14 -19 14 -19 15 8 l0 28 29 -20 c16 -12 32 -21 36 -21 3 0 21 -11 39 -25 18 -14 37 -25 42 -25 5 0 34 -25 63 -55 33 -34 57 -52 61 -45 8 13 40 -31 40 -55 0 -16 7 -18 57 -15 28 1 47 -14 172 -138 126 -124 171 -183 126 -166 -8 4 -13 10 -10 14 3 4 -12 19 -33 33 -20 14 -52 39 -70 56 -38 35 -42 37 -42 15 0 -10 -15 -1 -42 26 -32 31 -44 38 -46 26 -5 -23 -9 -21 -54 24 -23 22 -46 40 -51 40 -6 0 -19 7 -29 17 -10 9 -18 11 -18 5 0 -15 -43 1 -78 28 -17 14 -40 20 -73 20 -47 0 -49 1 -49 29 l0 29 -46 -14 c-26 -7 -50 -11 -55 -8 -5 3 -9 23 -9 45 l0 39 -50 0 c-38 0 -50 4 -50 15 0 8 -5 15 -10 15 -6 0 -23 11 -38 25 -21 20 -28 22 -30 10 -2 -10 -15 -15 -40 -15 -29 0 -47 9 -82 40 -33 29 -46 36 -48 25 -2 -10 -11 -13 -28 -10 -13 3 -36 7 -50 11 -15 3 -42 16 -60 30 -19 15 -50 27 -71 29 -21 2 -85 6 -143 10 -63 4 -112 12 -124 21 -30 21 -884 21 -924 0 -15 -8 -103 -24 -197 -35 -93 -12 -213 -31 -265 -43 -52 -11 -111 -23 -130 -27 -23 -4 -38 -14 -45 -29 -9 -20 -16 -22 -92 -22 -77 0 -82 -1 -85 -22 -2 -17 -11 -24 -32 -26 -16 -2 -32 2 -37 9 -5 9 -16 6 -43 -14 -19 -15 -43 -27 -52 -27 -14 0 -15 -3 -6 -12 23 -23 12 -28 -63 -28 -70 0 -76 -2 -86 -24 -9 -19 -21 -25 -63 -28 -28 -3 -106 -27 -173 -53 -109 -43 -122 -51 -125 -74 -2 -19 -10 -27 -33 -31 -39 -9 -86 -33 -160 -84 -33 -23 -101 -61 -151 -85 -85 -41 -93 -47 -103 -82 -7 -22 -21 -43 -34 -50 -12 -6 -68 -38 -124 -72 -78 -47 -103 -67 -103 -83 0 -12 -10 -25 -23 -31 -15 -7 -34 -36 -54 -82 l-32 -71 30 0 c22 0 32 -6 39 -26 12 -30 12 -34 3 -33 -37 6 -63 -3 -63 -21 0 -14 -7 -20 -21 -20 -21 0 -21 -1 5 -25 15 -14 30 -25 33 -25 3 0 20 -11 38 -24 22 -17 57 -28 123 -39 l92 -14 0 39 c0 34 2 38 18 30 9 -6 36 -13 58 -17 l42 -6 16 48 c23 67 89 133 134 133 26 0 32 4 30 18 -2 13 5 18 35 20 28 2 37 8 37 21 0 12 11 21 33 27 27 8 33 15 35 43 3 29 10 36 58 58 29 13 58 22 64 18 5 -3 26 5 46 19 21 14 41 23 45 20 4 -2 16 7 26 20 24 29 97 68 116 60 10 -3 20 5 28 25 10 23 20 31 40 31 15 0 43 7 62 15 20 8 48 15 62 15 19 0 29 9 42 35 12 25 23 35 40 35 20 0 23 -4 17 -27 -6 -27 -6 -27 34 11 32 31 56 43 109 56 68 16 68 17 65 48 l-4 32 76 0 76 0 0 29 c0 23 -7 32 -34 45 -19 9 -48 19 -65 22 -28 6 -44 24 -21 24 5 0 25 14 45 31 36 32 36 32 51 11 l14 -21 35 20 c25 15 35 28 35 45 0 23 -3 24 -72 24 -70 0 -71 0 -53 -20 18 -20 17 -20 -16 -19 -19 0 -56 4 -83 7 -47 7 -48 8 -29 24 20 18 231 69 280 67 16 0 22 -3 16 -6 -14 -5 44 -82 62 -83 5 0 29 7 53 17 34 13 42 20 40 37 -3 18 -12 22 -68 26 l-65 5 55 22 c82 34 148 52 233 63 42 5 112 15 155 21 51 7 214 9 482 5 400 -5 407 -6 559 -36 85 -17 156 -32 158 -34 2 -2 -126 -6 -284 -10 -158 -3 -373 -9 -477 -13 l-188 -6 5 -44 c2 -24 7 -47 10 -50 3 -3 196 0 429 6 233 6 453 11 489 11 l67 0 16 41 c12 30 21 39 34 35 9 -2 67 -12 127 -22 112 -17 158 -34 95 -34 -19 0 -59 -3 -87 -6 -47 -6 -53 -9 -53 -30 0 -23 3 -24 78 -24 42 0 101 -3 130 -6 l52 -7 0 -43 0 -44 90 0 c50 0 90 -4 90 -9 0 -5 26 -17 58 -26 55 -16 72 -23 154 -59 20 -9 41 -15 46 -14 9 3 62 -51 62 -62 0 -3 9 -6 20 -7 11 -1 20 2 20 8 0 17 15 9 53 -27 21 -20 40 -34 43 -31 10 10 81 -28 130 -70 27 -23 60 -51 74 -61 38 -31 15 -38 -24 -8 -19 14 -41 26 -48 26 -7 0 -29 10 -48 22 -36 22 -40 24 -75 26 -11 1 -38 17 -60 36 -33 28 -41 32 -50 20 -8 -12 -17 -13 -45 -3 -19 6 -40 17 -45 24 -17 20 -84 45 -123 45 -23 0 -47 9 -70 27 -32 24 -43 26 -112 24 -70 -1 -79 1 -105 25 -20 18 -30 22 -35 13 -5 -8 -18 -9 -36 -4 -16 4 -76 6 -133 6 -82 -1 -106 1 -115 14 -9 12 -58 17 -276 25 -434 17 -542 13 -570 -21 -12 -14 -38 -20 -119 -28 -58 -5 -108 -8 -113 -5 -4 3 -22 -2 -40 -10 -23 -11 -72 -16 -168 -18 l-135 -3 0 -25 c0 -23 -5 -26 -65 -36 -36 -6 -88 -23 -117 -38 -39 -21 -60 -26 -83 -21 -36 8 -120 -21 -120 -41 0 -9 -15 -12 -54 -10 -46 2 -59 -1 -80 -21 -14 -13 -32 -23 -40 -23 -16 0 -87 -31 -96 -41 -3 -3 -23 -9 -45 -13 -22 -4 -59 -20 -82 -37 -43 -30 -63 -36 -63 -19 0 18 -16 10 -59 -31 -25 -23 -50 -38 -58 -35 -8 3 -29 -5 -47 -19 -18 -14 -38 -25 -45 -25 -7 0 -27 -11 -45 -25 -18 -14 -35 -22 -38 -20 -13 13 -97 -33 -143 -78 -38 -38 -50 -45 -55 -32 -4 12 -14 7 -45 -25 -31 -32 -46 -40 -76 -40 -31 0 -45 -9 -98 -60 -35 -33 -66 -58 -71 -55 -4 3 -27 -15 -51 -40 -23 -24 -46 -42 -49 -40 -4 2 -30 -18 -58 -45 -27 -28 -54 -50 -59 -50 -4 0 -19 -10 -33 -23 -14 -12 -49 -40 -79 -62 -69 -50 -411 -392 -411 -411 0 -10 -13 -14 -45 -14 -38 0 -45 3 -45 20 0 17 -7 20 -43 20 -36 0 -49 6 -77 35 -18 19 -36 32 -40 30 -4 -3 -15 4 -25 15 -10 11 -34 25 -54 31 -31 11 -86 43 -101 60 -3 3 -20 11 -37 18 -18 8 -33 20 -33 28 0 8 -5 11 -10 8 -6 -4 -16 -3 -23 2 -7 5 -31 15 -54 23 -54 17 -91 49 -71 61 7 5 28 9 46 9 31 0 32 2 32 40 0 33 7 47 40 81 22 23 38 44 35 48 -2 4 14 25 36 47 23 21 50 58 61 82 30 63 115 145 169 164 27 9 29 14 29 58 0 46 2 50 38 72 20 13 38 29 40 37 4 16 52 61 66 61 4 0 6 6 3 14 -6 15 39 63 49 53 4 -4 23 17 43 45 20 28 45 56 55 62 11 6 29 19 40 29 11 9 24 17 29 17 5 0 7 7 3 15 -8 22 11 66 46 102 17 17 27 36 24 41 -9 14 4 42 19 42 7 0 15 7 19 15 3 8 15 15 27 15 17 0 19 3 10 13 -8 11 -1 22 31 50 37 32 39 37 20 37 -32 0 -27 13 19 55 30 27 44 34 49 25 6 -10 17 -4 41 19 40 37 59 40 59 9 0 -19 4 -16 27 17 38 57 55 73 61 57 6 -18 16 -15 45 14 14 14 38 26 52 28 15 2 47 21 71 44 28 26 59 44 82 48 20 4 50 15 67 26 39 24 55 23 55 -3 0 -17 6 -14 41 22 32 34 43 39 50 28 7 -11 9 -11 9 4 0 13 9 17 44 17 41 0 63 16 58 43 -1 4 18 7 43 7 25 0 45 -5 45 -10 0 -12 33 6 68 38 28 25 48 28 55 10 4 -10 7 -10 18 0 7 6 20 12 29 12 8 0 27 11 41 24 16 15 41 25 67 28 36 3 42 1 42 -15 0 -16 4 -15 29 9 59 60 97 75 177 72 47 -1 78 2 86 10 7 7 23 12 36 12 17 0 22 4 19 14 -5 12 15 16 116 19 67 2 142 9 167 16 52 15 329 27 646 29 175 2 231 -1 265 -13z m-1741 -46 c0 -7 -11 -9 -27 -6 -16 3 -43 -1 -62 -9 -34 -14 -34 -14 -16 6 20 22 105 29 105 9z m-145 -53 c-11 -7 -38 -16 -60 -20 -22 -4 -50 -17 -63 -29 -15 -14 -37 -21 -73 -23 -40 -1 -58 -7 -79 -28 -28 -26 -60 -35 -60 -16 0 6 7 10 16 10 9 0 31 13 49 29 18 15 50 32 71 35 22 4 48 16 59 26 24 22 45 27 110 29 44 1 47 0 30 -13z m-384 -137 c-12 -13 -21 -19 -21 -14 0 11 32 46 38 41 2 -3 -5 -15 -17 -27z m3558 -16 c18 -15 42 -28 54 -30 12 -2 26 -8 31 -13 6 -6 16 -10 24 -10 8 0 44 -27 80 -61 49 -46 67 -58 73 -47 7 10 24 -3 69 -51 33 -36 60 -68 60 -73 0 -4 6 -8 14 -8 7 0 25 -18 40 -41 21 -32 31 -39 47 -34 16 6 36 -9 95 -69 42 -41 80 -73 87 -70 7 2 25 -17 41 -42 19 -30 31 -42 36 -33 8 11 18 -4 69 -100 7 -14 30 -46 49 -71 41 -52 58 -71 48 -52 -4 6 -5 12 -2 12 6 0 66 -60 66 -67 0 -18 40 -83 70 -115 20 -20 54 -65 75 -100 21 -35 47 -69 57 -76 10 -7 18 -19 18 -25 0 -16 57 -127 76 -148 9 -9 17 -31 19 -49 3 -18 11 -40 19 -49 8 -9 27 -43 42 -75 15 -32 36 -68 47 -79 15 -15 17 -21 6 -28 -13 -7 -2 -24 51 -79 10 -10 40 -108 40 -129 0 -12 5 -19 10 -16 6 3 10 2 10 -4 0 -5 11 -22 25 -37 28 -30 32 -54 10 -54 -9 0 -21 -11 -27 -25 -12 -26 -38 -34 -38 -11 0 7 -11 25 -25 40 -27 30 -32 46 -12 46 6 0 4 5 -5 11 -10 5 -18 15 -18 20 0 6 -10 19 -21 28 -16 12 -23 32 -27 71 -3 38 -11 59 -26 71 -17 14 -18 19 -7 33 11 14 11 16 -3 16 -21 0 -21 18 0 22 12 2 6 13 -25 45 -29 29 -37 43 -26 45 10 2 5 14 -20 43 -39 44 -43 55 -19 55 11 0 -1 18 -35 53 -28 28 -51 57 -51 63 0 6 -11 21 -25 34 -25 23 -34 60 -15 60 6 0 10 5 10 11 0 5 -4 8 -9 4 -6 -3 -13 1 -18 8 -4 7 -16 16 -26 20 -9 4 -20 15 -24 24 -4 10 -9 20 -13 23 -13 11 -55 86 -55 100 0 16 -50 70 -65 70 -10 0 -58 70 -56 81 1 4 -7 16 -17 27 -11 12 -16 25 -13 30 3 5 -12 21 -34 36 -22 14 -39 30 -37 34 1 4 -15 23 -35 41 -21 18 -38 38 -38 45 0 7 -27 36 -60 66 -50 45 -60 59 -60 87 0 31 -2 33 -33 33 -23 0 -41 8 -57 25 -14 15 -18 25 -11 25 7 0 -14 18 -48 41 -33 22 -79 60 -102 84 -23 24 -52 46 -64 49 -12 3 -25 15 -28 26 -3 11 -14 20 -24 20 -11 0 -30 11 -43 24 -12 14 -35 28 -51 31 -19 4 -29 13 -29 24 0 12 -13 22 -39 31 -51 16 -111 66 -111 91 0 26 20 24 59 -8z m-3677 -33 c-15 -16 -30 -30 -35 -30 -13 0 36 59 50 59 6 1 -1 -12 -15 -29z m88 20 c0 -5 -4 -10 -10 -10 -5 0 -10 5 -10 10 0 6 5 10 10 10 6 0 10 -4 10 -10z m-170 -55 c0 -9 -10 -20 -22 -25 -13 -6 -38 -19 -55 -30 -35 -21 -46 -11 -15 12 11 7 24 23 31 36 14 26 61 31 61 7z m-120 -55 c0 -11 -4 -20 -8 -20 -4 0 -36 -22 -70 -50 -34 -27 -62 -45 -62 -40 0 18 32 60 45 60 7 0 27 16 46 35 39 40 49 43 49 15z m-159 -108 c-5 -2 -27 -17 -48 -33 -21 -17 -45 -28 -55 -26 -10 3 -18 0 -18 -8 0 -7 -9 -24 -21 -39 -11 -14 -15 -26 -9 -26 6 0 -3 -14 -20 -31 -23 -23 -28 -34 -19 -40 9 -5 3 -18 -21 -46 -18 -21 -41 -43 -50 -50 -10 -7 -20 -26 -23 -42 -10 -50 -56 -111 -83 -111 -17 0 -24 6 -24 19 0 11 5 23 10 26 6 3 10 13 10 20 0 16 103 125 135 143 17 10 18 11 3 12 -20 0 -22 3 -9 28 5 9 14 29 20 45 6 15 17 27 25 27 8 0 17 9 21 19 7 23 103 127 114 124 4 -1 20 9 37 22 l29 23 3 -26 c2 -15 -1 -28 -7 -30z m1209 -126 c19 -1 24 -6 22 -21 -5 -26 2 -22 -82 -40 -43 -9 -103 -32 -145 -55 -82 -45 -88 -47 -83 -23 2 12 35 30 98 54 l95 36 3 41 3 40 32 -16 c18 -9 43 -16 57 -16z m118 -123 c-3 -25 -8 -28 -73 -41 -38 -8 -74 -20 -78 -28 -4 -8 -22 -14 -39 -14 -48 0 -26 13 100 60 20 8 31 18 28 26 -3 8 5 14 22 17 15 2 31 5 35 6 5 0 7 -11 5 -26z m-446 -33 c-12 -11 -31 -20 -42 -20 -12 0 -19 -4 -16 -8 2 -4 -35 -28 -84 -52 -59 -30 -91 -52 -94 -66 -4 -14 -19 -24 -55 -33 -27 -7 -55 -19 -62 -27 -9 -11 -72 -35 -100 -38 -4 -1 -22 -14 -40 -30 -19 -15 -50 -38 -69 -51 -39 -26 -110 -42 -110 -25 0 5 5 10 11 10 6 0 27 13 45 30 69 60 302 189 394 217 74 23 90 31 90 48 0 16 13 25 63 41 83 28 96 29 69 4z m188 -94 c0 -23 -4 -25 -50 -24 -27 0 -50 1 -50 3 0 2 15 12 33 24 44 28 67 27 67 -3z m-110 -33 c-1 -21 -23 -38 -64 -48 -49 -13 -54 -11 -32 11 8 7 16 19 19 26 3 10 7 10 17 1 10 -9 16 -8 27 3 15 15 33 19 33 7z m-1352 -72 c3 -17 -4 -25 -28 -34 -25 -10 -31 -17 -28 -39 2 -22 -10 -39 -64 -91 -37 -36 -69 -62 -72 -59 -3 3 -6 -1 -6 -8 0 -7 -61 -74 -135 -148 -74 -74 -135 -138 -135 -143 0 -5 8 -9 18 -9 11 0 -10 -26 -60 -75 -43 -41 -78 -81 -78 -88 0 -8 -9 -22 -20 -32 -11 -10 -20 -24 -20 -32 0 -8 -25 -39 -55 -70 -38 -39 -51 -59 -43 -64 9 -6 8 -10 -5 -15 -10 -4 -23 -2 -30 5 -6 6 -7 11 -2 11 4 0 0 9 -10 20 -15 17 -16 20 -3 20 10 0 18 13 22 35 4 21 25 55 55 87 26 29 53 63 60 76 6 12 19 22 29 22 9 0 30 20 47 45 16 24 40 49 52 56 12 7 20 15 18 20 -3 4 -1 19 5 33 7 20 16 26 40 26 26 0 30 3 30 29 0 21 11 38 45 67 25 22 45 44 45 49 0 6 30 39 67 75 38 36 68 68 68 72 0 9 56 62 67 64 5 1 13 2 18 3 6 0 10 10 10 21 0 11 5 20 10 20 6 0 10 5 10 12 0 17 52 69 65 65 5 -2 11 -14 13 -26z m1212 12 c-1 -20 -20 -34 -65 -48 -27 -8 -51 -13 -53 -11 -4 4 99 65 111 66 4 0 7 -3 7 -7z m4319 -57 c13 -11 41 -43 62 -69 21 -26 40 -46 43 -45 9 5 144 -133 183 -185 19 -26 38 -45 43 -42 13 8 132 -119 150 -162 10 -22 41 -66 69 -97 28 -31 51 -65 51 -76 0 -10 5 -22 10 -25 18 -11 11 -25 -12 -25 -21 -1 -20 -2 7 -17 17 -9 32 -19 35 -23 3 -3 12 -9 21 -12 17 -7 49 -61 49 -83 0 -7 7 -15 15 -19 8 -3 15 -12 15 -19 0 -20 28 -73 45 -87 8 -7 15 -20 15 -30 0 -9 9 -29 20 -42 10 -14 16 -29 12 -32 -4 -4 1 -12 11 -17 9 -6 17 -17 17 -24 0 -8 4 -15 9 -15 7 0 31 -51 31 -66 0 -2 -31 -4 -69 -4 -61 0 -70 3 -76 20 -9 27 -29 36 -100 44 -80 9 -93 22 -87 91 3 37 1 55 -7 55 -6 0 -11 6 -11 13 0 8 -11 24 -25 37 -34 32 -33 60 3 60 l27 1 -27 17 c-16 9 -28 20 -28 24 0 5 -7 8 -16 8 -8 0 -12 5 -9 10 3 6 -1 10 -9 10 -9 0 -16 5 -16 10 0 6 5 10 11 10 5 0 7 5 3 11 -3 6 -1 14 5 18 8 5 -3 18 -30 37 -30 21 -38 30 -26 32 24 5 21 12 -24 57 -23 22 -48 56 -56 75 -8 19 -24 47 -34 62 -11 14 -19 38 -19 52 0 14 -4 26 -9 26 -5 0 -12 8 -15 18 -13 32 -31 62 -38 62 -5 0 -8 9 -8 21 0 11 -4 18 -9 15 -11 -7 -21 17 -21 49 0 18 -6 24 -27 27 -24 3 -29 9 -37 48 -8 37 -23 58 -85 121 -42 41 -83 83 -91 93 -14 18 -13 18 10 11 14 -4 36 -17 49 -29z m-4509 -51 c0 -10 -10 -15 -32 -15 -31 1 -32 1 -14 15 25 19 46 19 46 0z m-107 -52 c-7 -18 -22 -33 -35 -33 -13 0 -9 38 5 43 25 11 36 7 30 -10z m4103 -48 l17 -30 -29 25 c-16 14 -32 27 -36 30 -4 3 1 6 11 6 11 0 27 -14 37 -31z m-4436 -9 c0 -8 -27 -27 -60 -42 -36 -16 -76 -45 -101 -71 l-40 -44 3 33 c3 30 11 37 98 85 52 29 96 53 98 53 1 0 2 -6 2 -14z m260 -10 c0 -9 -10 -13 -25 -12 -23 1 -24 2 -8 14 22 16 33 15 33 -2z m4354 -18 c-3 -4 13 -25 36 -48 22 -22 40 -49 40 -60 0 -13 5 -18 15 -14 9 4 15 0 15 -10 0 -25 -25 -19 -40 9 -7 14 -17 25 -22 25 -4 0 -8 9 -8 19 0 17 -8 20 -47 23 -49 3 -75 28 -29 28 23 0 26 4 26 33 0 23 3 28 9 17 6 -8 8 -17 5 -22z m-4424 -6 c0 -4 -27 -27 -60 -50 -53 -38 -60 -40 -60 -22 0 12 16 32 42 50 39 28 78 39 78 22z m-184 -145 c-10 -7 -26 -20 -35 -30 -58 -68 -100 -107 -114 -107 -10 0 -17 -7 -17 -15 0 -13 -12 -15 -67 -13 -87 4 -95 24 -11 30 36 3 64 10 66 17 2 6 26 23 53 36 34 18 49 31 49 45 0 13 12 25 33 34 41 18 70 20 43 3z m-1427 -623 c34 -7 43 -34 10 -34 -15 0 -27 -15 -49 -64 -16 -36 -34 -67 -39 -71 -13 -8 -67 -87 -91 -136 -11 -21 -27 -39 -35 -39 -8 0 -15 -7 -15 -15 0 -8 -4 -15 -10 -15 -5 0 -12 -11 -16 -25 -3 -13 -12 -29 -20 -36 -8 -6 -19 -29 -25 -51 -5 -22 -29 -63 -52 -92 -24 -28 -49 -66 -56 -83 -8 -21 -18 -30 -27 -26 -10 3 -12 0 -8 -10 5 -15 -33 -92 -63 -128 -8 -10 -15 -31 -15 -48 -1 -17 -9 -38 -20 -47 -10 -10 -18 -30 -18 -46 0 -15 -4 -28 -9 -28 -14 0 -51 -64 -51 -87 0 -11 -9 -28 -20 -38 -10 -9 -24 -34 -31 -54 -6 -20 -17 -43 -24 -51 -7 -8 -29 -67 -50 -130 -25 -77 -45 -122 -61 -135 -13 -11 -27 -36 -30 -54 -4 -19 -14 -36 -24 -38 -12 -3 -21 -23 -29 -61 -12 -56 -69 -194 -83 -200 -5 -2 -8 -10 -8 -18 0 -8 -11 -27 -25 -42 -20 -21 -22 -28 -10 -30 22 -5 19 -26 -9 -59 -15 -19 -25 -45 -28 -80 -4 -47 -10 -57 -49 -92 -31 -29 -39 -40 -26 -41 18 0 20 -10 11 -59 -5 -24 -12 -31 -30 -31 -22 0 -23 -4 -26 -72 -3 -67 -5 -73 -25 -76 -21 -3 -23 -8 -23 -73 0 -68 -1 -69 -26 -69 l-26 0 3 -96 c3 -95 2 -97 -24 -116 -25 -19 -27 -24 -27 -99 0 -71 -2 -79 -19 -79 -15 0 -20 -9 -23 -42 -6 -55 -61 -262 -71 -266 -4 -2 -4 -8 -1 -14 3 -5 3 -25 0 -44 -6 -31 -10 -34 -41 -34 l-35 0 0 54 c0 104 20 209 47 251 14 21 21 41 16 42 -11 4 7 130 25 174 5 14 8 46 5 73 -5 42 -3 50 24 79 21 22 32 46 36 74 3 24 14 62 25 85 12 24 30 77 40 118 13 51 25 76 36 78 13 3 16 17 16 73 0 60 2 69 18 69 15 0 24 20 46 103 16 56 29 119 30 140 1 31 6 42 27 53 23 12 27 21 33 82 6 59 11 73 36 97 29 27 41 53 20 40 -5 -3 -10 0 -10 9 0 24 11 46 24 46 12 1 46 62 46 84 0 7 16 34 35 60 26 33 32 46 20 46 -16 0 -21 30 -6 46 5 5 18 34 28 64 17 53 20 55 56 58 l37 3 0 48 c0 27 9 65 20 89 11 22 20 45 20 50 0 5 11 19 25 32 17 16 25 34 25 57 0 29 3 33 25 33 23 0 25 3 25 49 0 40 4 50 20 54 11 3 22 17 25 33 8 40 30 79 42 77 6 -1 14 13 17 32 4 19 15 40 24 47 10 7 26 32 36 56 13 27 25 42 38 42 14 0 18 8 18 34 0 28 4 35 23 38 19 3 22 10 25 49 2 38 7 48 27 57 16 8 25 20 25 35 0 29 15 48 65 81 32 21 36 26 18 26 -21 0 -20 2 10 50 23 36 38 50 56 50 15 0 21 5 18 14 -3 7 15 32 40 57 27 26 40 45 32 48 -8 2 -3 10 12 22 27 21 33 22 78 13z m195 -143 c26 -13 51 -32 53 -42 4 -15 15 -19 57 -19 46 -1 53 -4 71 -33 12 -19 41 -42 74 -58 30 -15 58 -35 64 -45 15 -28 28 -34 70 -34 32 0 37 -3 37 -23 0 -18 11 -26 60 -45 53 -21 59 -26 50 -42 -6 -10 -14 -22 -20 -25 -5 -3 -7 -12 -3 -20 3 -8 1 -15 -5 -15 -15 0 -72 -62 -66 -71 3 -5 -6 -21 -20 -36 -15 -15 -26 -33 -26 -39 0 -5 -14 -23 -31 -40 l-30 -29 23 -6 c21 -6 21 -7 -9 -14 -21 -5 -33 -14 -33 -24 0 -9 -7 -25 -15 -35 -8 -11 -15 -27 -15 -36 0 -18 -52 -93 -87 -126 -27 -25 -29 -34 -7 -34 10 0 1 -14 -25 -42 -27 -26 -37 -44 -30 -49 12 -7 -5 -49 -21 -49 -4 0 -16 -21 -26 -47 -10 -27 -28 -59 -41 -73 -15 -16 -19 -26 -11 -31 8 -5 4 -20 -12 -51 -12 -23 -42 -83 -67 -133 -25 -49 -50 -92 -55 -93 -13 -5 -40 -61 -34 -71 3 -5 -3 -20 -14 -34 -12 -14 -20 -40 -20 -61 0 -32 -3 -36 -25 -36 -24 0 -25 -2 -25 -74 0 -65 -2 -74 -20 -79 -11 -3 -23 -13 -26 -24 -3 -10 -16 -43 -29 -73 -13 -30 -27 -75 -31 -100 -5 -35 -17 -56 -52 -92 -26 -27 -40 -48 -33 -48 16 0 5 -58 -15 -81 -8 -8 -14 -35 -14 -58 0 -26 -4 -40 -10 -36 -5 3 -10 -2 -10 -12 0 -10 -14 -31 -30 -47 -18 -18 -26 -32 -20 -36 6 -4 -28 -115 -92 -296 -84 -240 -102 -301 -106 -361 -3 -64 -6 -73 -23 -73 -17 0 -19 -8 -19 -94 0 -79 -4 -103 -26 -152 -39 -88 -74 -121 -74 -69 0 25 -1 25 -85 25 -61 0 -85 -4 -86 -12 0 -7 -6 3 -13 22 -12 33 -17 35 -81 48 -50 10 -74 20 -88 38 -16 21 -27 24 -78 24 -56 0 -59 1 -59 25 0 24 -2 25 -71 25 l-70 0 5 43 c3 23 13 103 21 177 20 171 23 189 36 169 6 -10 9 -4 9 22 0 20 6 52 14 70 9 21 12 52 9 82 -5 45 -5 47 20 47 21 0 26 6 31 36 4 19 14 38 23 41 13 5 12 8 -7 15 -15 6 -21 14 -17 26 4 9 19 64 36 121 16 58 36 110 43 115 18 13 30 42 33 79 2 15 14 45 28 66 14 22 27 57 29 82 3 36 7 44 23 44 23 0 37 50 29 100 -6 33 13 59 71 102 l30 22 -27 1 c-20 0 -28 5 -28 18 0 27 21 44 37 31 10 -9 13 -6 14 12 1 81 9 114 39 172 18 35 50 82 71 103 42 43 47 54 24 54 -31 0 -12 54 36 104 26 27 27 30 11 42 -16 11 -15 13 9 22 21 9 28 20 37 66 6 31 22 71 35 89 14 18 22 38 20 45 -3 7 4 23 15 35 11 12 30 43 42 69 13 29 37 57 63 75 40 28 40 28 14 31 -15 2 -27 5 -27 8 0 3 18 24 40 47 35 36 38 42 23 49 -17 6 -17 7 0 7 9 1 17 8 17 16 0 7 8 19 18 24 9 6 13 11 8 11 -5 0 -3 7 4 15 6 8 9 18 6 23 -3 5 3 21 14 35 11 13 24 35 30 48 28 62 49 91 103 142 45 44 57 62 57 86 0 17 5 31 12 31 9 0 9 3 0 12 -17 17 -15 23 11 35 12 6 35 36 51 67 15 32 30 55 33 52 6 -6 43 31 43 43 0 5 7 12 16 15 8 3 12 11 8 17 -6 11 65 92 76 86 3 -2 27 -13 54 -26z m6946 -152 c0 -43 19 -60 64 -58 23 2 48 -1 55 -5 7 -5 18 -1 26 10 17 24 16 25 50 -125 40 -182 43 -189 68 -193 19 -3 24 -13 34 -77 7 -41 19 -81 27 -90 8 -9 20 -54 26 -101 9 -66 17 -91 36 -111 22 -23 24 -33 24 -118 0 -81 3 -96 24 -124 24 -33 39 -132 81 -532 9 -77 27 -237 40 -355 25 -210 25 -227 20 -715 -2 -275 -7 -637 -10 -804 l-6 -303 -24 6 c-51 13 -104 -66 -105 -156 0 -26 3 -28 39 -28 44 0 40 9 54 -119 4 -39 -21 -97 -54 -125 -21 -18 -22 -21 -17 -213 3 -107 1 -188 -3 -181 -5 7 -9 29 -9 48 0 19 -3 52 -6 73 l-7 37 -56 0 -57 0 4 40 c3 26 0 40 -7 40 -21 0 -90 -39 -99 -57 -8 -14 -11 -11 -16 14 -7 29 -38 53 -69 53 -8 0 -17 -27 -24 -76 -6 -41 -14 -78 -17 -82 -4 -3 -19 6 -33 21 -27 26 -27 28 -15 83 6 31 19 62 29 70 17 13 17 13 1 14 -13 0 -18 8 -19 28 -3 123 -1 117 -33 114 -72 -9 -76 -14 -76 -100 l0 -79 -62 9 c-35 5 -76 13 -93 19 -23 9 -45 9 -83 0 -29 -6 -58 -11 -63 -11 -12 0 18 55 49 90 18 20 19 26 7 28 -20 5 -19 8 10 40 13 14 20 29 15 32 -10 6 38 131 63 160 11 13 18 39 19 71 0 33 5 53 14 56 10 4 14 27 14 86 0 44 9 150 20 236 11 86 26 244 35 351 28 358 46 1214 26 1236 -5 5 -14 146 -21 314 -8 214 -19 354 -36 470 -27 183 -29 214 -14 205 19 -12 10 12 -14 39 -27 28 -46 106 -46 187 0 36 -6 55 -25 77 -23 27 -25 38 -25 127 0 92 -1 98 -25 117 -24 19 -25 24 -25 128 l0 109 -32 3 -33 3 54 28 c29 16 57 25 61 20 4 -4 13 -30 20 -58 7 -27 21 -64 30 -82 10 -17 26 -69 35 -115 9 -46 25 -99 35 -119 10 -20 18 -52 17 -72 -1 -21 6 -44 16 -55 9 -10 17 -31 17 -46 0 -16 4 -25 10 -21 7 4 10 -18 9 -64 -1 -39 3 -77 9 -84 10 -12 56 -226 66 -307 10 -79 48 -330 61 -405 24 -131 35 -432 35 -920 0 -472 -15 -923 -31 -940 -5 -5 -9 -19 -9 -32 0 -14 -6 -23 -15 -23 -13 0 -15 -22 -15 -135 l0 -135 -80 0 c-44 0 -80 -2 -80 -4 0 -2 9 -25 21 -51 l21 -48 119 6 119 5 0 -24 c0 -17 8 -27 25 -34 19 -7 25 -17 25 -40 l0 -30 60 0 c57 0 60 -1 60 -25 0 -23 3 -25 50 -25 l50 0 0 49 0 50 -47 3 c-46 3 -47 3 -48 38 0 31 -3 35 -27 38 -22 3 -28 9 -28 28 0 29 -2 29 -62 7 -26 -9 -50 -15 -53 -12 -4 5 49 314 62 354 4 11 5 127 4 258 -2 210 -1 237 13 237 14 0 16 46 16 430 0 376 -2 430 -15 430 -13 0 -15 38 -15 280 0 167 -4 288 -10 300 -5 11 -15 29 -20 40 -6 12 -10 77 -9 149 1 103 -3 141 -20 198 -12 39 -30 111 -40 159 -11 49 -29 130 -40 179 -10 50 -21 104 -22 120 -2 17 -14 43 -28 58 -21 23 -26 38 -26 85 0 40 4 56 13 55 21 -5 14 11 -23 50 -28 30 -35 45 -35 77 0 22 5 40 11 40 6 0 -3 24 -20 54 -17 29 -34 74 -37 100 -6 43 -5 46 16 46 27 0 60 26 60 47 0 8 5 11 10 8 6 -3 10 -15 10 -26z m-390 -19 c0 -5 -4 -10 -10 -10 -5 0 -10 5 -10 10 0 6 5 10 10 10 6 0 10 -4 10 -10z m-8235 -3187 c-19 -21 -22 -29 -11 -31 8 -2 16 -20 20 -45 3 -23 8 -61 12 -84 5 -35 3 -43 -10 -43 -21 0 -39 -37 -32 -66 5 -20 11 -24 29 -18 30 9 31 10 31 48 0 34 0 34 46 32 45 -1 45 -1 48 34 2 19 7 38 11 42 4 4 4 34 1 66 -5 57 -5 58 17 54 13 -2 26 -8 29 -13 3 -5 34 -9 70 -9 35 0 64 -4 64 -9 0 -5 20 -17 45 -26 47 -19 114 -14 117 8 0 7 4 -8 7 -33 l6 -45 83 -3 c74 -3 82 -5 82 -22 0 -18 7 -20 85 -20 68 0 85 -3 85 -15 0 -8 12 -22 28 -32 15 -9 29 -18 31 -19 1 -2 -4 -13 -13 -26 -9 -12 -16 -29 -16 -38 0 -12 -21 -18 -97 -27 -54 -7 -132 -21 -173 -32 -41 -10 -77 -15 -80 -10 -3 5 -18 -3 -32 -16 -15 -14 -55 -34 -90 -45 -35 -12 -71 -25 -80 -31 -13 -6 -18 -6 -18 3 0 6 -18 -7 -40 -30 -21 -23 -48 -42 -60 -42 -11 0 -20 -4 -20 -10 0 -5 -6 -10 -12 -10 -7 0 -32 -18 -55 -40 -33 -32 -107 -68 -140 -70 -2 0 -3 23 -3 50 l0 50 -45 0 c-56 0 -68 -18 -59 -95 l7 -57 -69 -69 c-74 -75 -120 -105 -128 -85 -2 6 -5 1 -5 -11 -1 -22 -5 -23 -69 -23 -68 0 -69 0 -100 39 -37 46 -41 66 -12 58 32 -8 23 6 -20 33 -40 24 -40 25 -40 85 1 37 6 67 15 79 8 11 15 35 15 53 0 24 10 43 35 70 19 20 32 40 30 44 -3 4 14 26 36 49 41 42 97 72 197 104 57 19 155 108 127 114 -13 3 -13 8 0 38 8 19 21 42 30 50 9 9 15 33 15 60 0 42 1 44 30 44 17 0 30 5 30 10 0 6 9 10 20 10 20 0 19 -2 -5 -27z m1208 -514 c110 -10 125 -13 150 -37 23 -22 29 -24 37 -12 8 13 17 12 66 -5 32 -11 64 -26 73 -35 9 -8 27 -24 40 -35 21 -18 24 -18 18 -2 -5 13 -1 17 18 17 14 0 25 -4 25 -8 0 -5 19 -17 43 -27 23 -10 66 -41 95 -69 34 -33 55 -47 60 -40 12 19 49 -2 74 -40 13 -20 28 -36 35 -36 7 0 17 -8 22 -17 6 -10 11 -12 11 -6 0 9 10 7 33 -6 39 -22 86 -67 140 -136 22 -27 43 -50 47 -50 26 0 146 -143 145 -172 0 -7 30 -43 68 -81 65 -67 80 -92 55 -92 -7 0 15 -28 48 -62 49 -51 144 -196 144 -221 0 -3 -7 -7 -16 -9 -12 -2 -7 -12 22 -40 25 -25 38 -48 39 -69 2 -18 10 -36 19 -41 8 -5 26 -43 39 -86 36 -114 39 -132 25 -132 -7 0 5 -18 26 -39 29 -30 42 -54 52 -101 14 -60 12 -86 -7 -75 -15 10 -9 -9 10 -32 11 -13 24 -23 29 -23 13 0 20 -32 31 -143 7 -68 13 -93 30 -111 21 -22 21 -29 21 -402 l0 -380 -32 -42 c-18 -23 -36 -42 -40 -42 -4 0 -8 -4 -8 -10 0 -5 7 -7 15 -4 18 7 18 4 3 -72 -9 -47 -20 -67 -51 -99 -29 -30 -35 -41 -23 -43 34 -7 16 -47 -81 -187 -16 -21 -31 -47 -35 -57 -4 -10 -12 -18 -17 -18 -6 0 -8 -6 -6 -12 3 -7 -33 -51 -80 -97 -47 -47 -85 -79 -85 -73 0 7 -13 -1 -30 -18 -16 -16 -36 -30 -45 -30 -8 0 -24 -6 -35 -12 -17 -11 -22 -10 -30 2 -8 12 -14 10 -38 -13 l-28 -27 -350 0 c-295 0 -361 3 -426 17 -43 10 -78 21 -78 25 0 5 -20 8 -45 8 -32 0 -47 5 -51 15 -5 11 -10 13 -19 5 -8 -7 -25 3 -61 35 -35 33 -50 41 -52 30 -5 -24 -31 -18 -59 15 -13 17 -33 30 -42 30 -10 0 -26 9 -36 20 -10 11 -26 20 -35 20 -25 0 -118 66 -194 138 -36 34 -70 61 -75 59 -5 -1 -21 11 -36 27 -17 19 -29 25 -34 18 -7 -11 -68 56 -64 70 2 4 -19 22 -45 41 -26 19 -59 48 -74 64 -14 15 -58 59 -97 97 -39 38 -74 78 -77 89 -4 11 -17 32 -30 46 -13 14 -24 30 -24 34 0 5 -16 25 -35 45 -19 20 -35 42 -35 47 0 6 -11 22 -25 37 -30 32 -31 38 -7 38 12 0 10 5 -10 18 -16 9 -28 20 -28 24 0 5 -7 8 -16 8 -10 0 -14 6 -11 14 4 9 -12 32 -39 58 -46 43 -84 104 -84 133 0 10 9 15 28 15 l27 0 -30 25 c-16 13 -35 24 -41 25 -18 0 -26 32 -12 42 10 6 10 10 2 16 -7 4 -30 29 -53 57 -28 34 -41 59 -41 80 0 21 -9 40 -29 59 -24 23 -28 34 -25 69 3 24 -2 54 -10 72 -23 48 -36 174 -19 184 11 5 6 15 -21 41 -26 26 -32 38 -24 47 8 10 6 13 -6 13 -14 0 -16 32 -16 320 0 344 -1 335 52 394 10 11 16 28 12 38 -9 30 27 201 47 224 11 11 19 27 19 35 0 34 22 88 38 93 10 3 32 35 50 70 18 35 46 75 63 88 16 12 40 39 51 58 12 19 35 49 50 65 24 26 28 27 28 10 0 -17 2 -17 17 5 31 46 120 123 132 116 4 -3 23 8 42 24 35 30 55 37 61 20 2 -5 18 4 37 20 18 17 42 30 52 30 11 0 27 4 37 10 9 5 103 14 207 18 280 13 315 13 448 1z m-1315 -381 c-18 -27 -38 -35 -38 -15 0 8 10 19 23 25 31 15 31 15 15 -10z m-30 -85 c-2 -38 -7 -49 -23 -53 -11 -3 -29 -25 -41 -48 -11 -23 -23 -39 -27 -36 -4 4 -7 -2 -7 -13 0 -26 -28 -93 -38 -93 -5 0 -18 -18 -30 -40 -11 -22 -17 -40 -11 -40 12 0 12 -57 -1 -65 -6 -3 -17 -20 -26 -36 -13 -25 -15 -87 -15 -404 0 -381 5 -444 39 -472 9 -7 12 -21 9 -33 -3 -12 1 -40 9 -62 8 -22 14 -53 14 -69 0 -16 5 -29 10 -29 6 0 10 -8 10 -18 0 -25 30 -114 45 -132 20 -24 25 -59 9 -62 -9 -2 0 -18 26 -46 22 -24 40 -46 41 -50 6 -39 4 -82 -3 -82 -6 0 7 -16 27 -36 24 -23 35 -41 30 -51 -3 -11 6 -28 27 -50 17 -18 28 -33 23 -33 -5 0 2 -11 14 -24 12 -13 23 -36 25 -51 2 -15 15 -40 29 -55 15 -16 27 -32 27 -38 0 -5 12 -22 27 -38 15 -16 28 -32 28 -36 0 -10 91 -131 114 -152 12 -11 21 -27 21 -36 0 -10 7 -20 15 -24 8 -3 15 -11 15 -17 0 -6 8 -19 18 -28 10 -9 31 -33 47 -55 16 -21 31 -34 32 -29 5 13 143 -129 143 -146 0 -7 4 -10 9 -7 5 3 20 -12 35 -34 26 -40 43 -53 32 -25 -9 25 12 17 53 -20 21 -19 43 -35 48 -35 5 0 28 -22 52 -49 27 -30 58 -53 82 -61 22 -7 58 -30 81 -51 23 -21 45 -36 49 -33 4 2 12 -3 19 -11 7 -8 19 -15 28 -15 18 0 56 -39 79 -83 l18 -32 3 28 c3 26 6 28 30 22 15 -4 34 -12 42 -19 8 -7 34 -19 58 -26 28 -9 41 -18 38 -27 -4 -9 4 -13 25 -13 38 0 129 -29 129 -41 0 -5 10 -9 23 -9 13 0 28 -5 35 -12 7 -7 35 -11 71 -10 52 2 66 -2 137 -42 80 -44 97 -49 74 -21 -11 13 10 15 194 15 113 0 206 -2 206 -5 0 -11 -79 -44 -85 -35 -8 14 -41 -4 -85 -46 l-35 -33 -126 11 c-153 14 -385 1 -400 -23 -6 -10 -9 -3 -9 23 l0 36 -75 18 c-41 10 -75 21 -75 26 0 4 -8 8 -17 8 -10 0 -31 14 -48 31 -23 24 -31 27 -33 15 -5 -24 -63 -21 -85 4 -9 11 -28 20 -43 20 -16 0 -40 14 -67 41 -23 22 -43 36 -45 30 -7 -20 -23 -12 -70 34 -25 25 -51 45 -57 45 -33 0 -109 52 -179 122 -47 46 -85 77 -93 74 -8 -3 -16 1 -20 10 -3 8 -11 13 -18 10 -7 -2 -25 9 -41 25 -17 18 -22 29 -14 29 8 0 -8 14 -36 32 -27 17 -43 33 -36 35 7 3 -7 18 -33 35 -25 16 -43 34 -40 38 3 5 -13 21 -34 37 -29 20 -39 34 -37 49 3 15 -6 27 -35 45 -22 13 -37 29 -35 36 3 6 -19 35 -49 64 -30 29 -52 56 -49 61 3 5 10 6 15 3 5 -4 9 -3 9 2 -1 4 -21 21 -46 37 -25 16 -42 31 -37 35 16 12 12 31 -9 42 -37 20 -72 57 -73 78 -1 12 4 21 10 21 7 0 -16 30 -51 67 -35 36 -64 70 -64 74 0 4 12 9 26 11 24 3 23 5 -25 41 -48 35 -69 66 -36 53 27 -10 16 10 -30 56 -33 32 -47 55 -52 83 -3 21 -17 54 -30 73 -13 19 -23 50 -23 68 0 19 -11 49 -25 70 -28 42 -32 64 -10 64 10 0 4 15 -21 50 -30 41 -34 53 -24 65 10 12 9 15 -4 15 -23 0 -24 107 -1 112 12 2 10 8 -9 29 -23 25 -25 39 -41 240 -9 118 -22 297 -28 399 l-12 185 -25 3 c-14 1 -35 -6 -47 -15 -22 -18 -23 -19 -23 -363 -1 -351 3 -392 38 -432 11 -13 14 -35 10 -93 -4 -52 -1 -83 8 -101 8 -15 14 -42 14 -61 0 -19 4 -32 9 -29 4 3 14 -14 20 -37 7 -23 19 -55 26 -72 24 -52 35 -109 25 -115 -6 -4 -1 -15 11 -26 12 -10 31 -39 42 -64 11 -25 29 -58 40 -73 11 -17 20 -47 21 -73 1 -35 8 -52 32 -77 34 -37 69 -89 66 -99 -1 -4 12 -22 28 -39 16 -18 32 -45 35 -60 4 -15 19 -41 36 -58 16 -17 29 -39 29 -50 0 -26 54 -121 81 -141 3 -3 12 -15 18 -28 8 -14 18 -21 27 -18 8 3 14 0 14 -6 0 -6 11 -26 25 -44 14 -18 25 -36 25 -41 1 -11 90 -128 98 -128 13 0 80 -66 107 -105 15 -21 32 -37 38 -34 7 2 25 -17 41 -43 17 -25 31 -42 33 -36 7 19 38 3 77 -38 21 -21 41 -37 45 -34 4 2 25 -14 46 -36 21 -22 44 -38 51 -35 18 7 54 -22 48 -39 -4 -11 1 -15 17 -15 16 0 42 -19 74 -52 37 -38 51 -47 53 -35 5 23 17 21 39 -7 11 -13 34 -27 53 -31 59 -11 70 -16 70 -29 0 -7 6 -13 13 -14 31 -2 64 -13 87 -30 14 -10 44 -24 67 -30 23 -7 49 -19 57 -27 8 -8 24 -15 35 -15 12 0 21 -3 21 -7 0 -5 11 -13 25 -20 20 -9 25 -8 25 3 0 8 10 14 23 14 12 0 40 2 62 5 22 3 34 3 28 -1 -16 -7 -17 -24 -2 -24 6 0 34 -10 62 -23 l52 -22 -65 -6 c-127 -13 -187 -10 -206 8 -11 11 -30 17 -58 15 -52 -2 -103 14 -135 44 -14 13 -30 24 -35 24 -5 0 -18 7 -28 17 -17 15 -18 15 -18 0 0 -24 -25 -21 -56 5 -16 15 -39 23 -64 24 -21 0 -45 8 -55 17 -9 9 -21 17 -26 17 -6 0 -32 23 -60 52 -31 33 -49 45 -49 35 0 -22 -11 -21 -36 1 -10 10 -48 35 -84 57 -36 22 -90 65 -121 97 -31 31 -68 62 -83 68 -15 5 -25 14 -22 19 3 5 -12 21 -34 36 -22 15 -38 31 -35 35 3 4 -13 20 -35 35 -22 15 -40 33 -40 39 -1 6 -23 28 -51 49 -27 21 -47 42 -45 46 3 4 -28 43 -69 86 -73 77 -86 95 -65 95 6 0 -8 19 -32 41 -27 26 -38 43 -30 46 7 3 -5 17 -30 35 -51 36 -68 56 -68 80 0 11 5 15 15 12 8 -4 15 -1 15 4 0 6 -8 13 -17 16 -43 14 -106 90 -82 98 5 2 -4 18 -21 35 -17 17 -32 42 -34 55 -4 39 -22 71 -64 114 -30 31 -41 51 -46 87 -4 26 -11 47 -16 47 -11 0 -40 86 -40 119 0 14 -11 44 -25 66 -13 22 -25 46 -25 53 0 7 -11 28 -25 46 -20 27 -25 44 -25 93 0 47 -4 64 -20 78 -21 19 -27 45 -10 45 6 0 10 5 10 10 0 6 -7 10 -15 10 -12 0 -15 20 -15 120 l0 120 -49 0 -49 0 -9 -87 c-6 -61 -6 -113 3 -172 14 -107 50 -250 67 -271 21 -25 37 -69 37 -102 0 -19 9 -42 23 -57 13 -15 34 -55 47 -91 12 -36 25 -70 27 -77 3 -6 -3 -13 -11 -15 -12 -2 -8 -13 19 -47 34 -42 46 -69 25 -56 -16 10 -12 -11 5 -25 8 -7 13 -15 10 -19 -2 -4 7 -19 21 -34 13 -14 24 -29 24 -32 0 -3 16 -27 35 -54 29 -40 33 -50 20 -53 -12 -2 -6 -13 25 -44 23 -23 42 -52 43 -63 1 -12 18 -39 38 -61 50 -53 110 -136 107 -147 -2 -5 21 -32 50 -61 28 -29 52 -59 52 -66 0 -16 344 -360 365 -364 17 -4 119 -102 145 -140 8 -12 28 -24 45 -26 16 -3 31 -10 33 -16 2 -5 10 -10 17 -10 14 0 65 -42 65 -53 0 -8 -97 26 -148 52 -57 29 -147 99 -197 153 -23 24 -66 56 -97 71 -84 42 -261 238 -340 377 -14 25 -38 56 -52 69 -14 14 -26 30 -26 36 0 7 -9 20 -20 30 -11 10 -17 21 -15 26 3 4 -10 23 -30 42 -29 28 -35 41 -35 76 0 38 -2 41 -27 41 -27 1 -27 1 -9 15 17 13 18 15 3 15 -11 0 -17 8 -17 23 0 27 -10 41 -33 50 -21 8 -22 24 -1 29 12 2 8 11 -20 38 -38 36 -86 125 -105 194 -5 21 -20 49 -32 62 -12 13 -29 55 -40 100 -10 43 -23 80 -29 84 -6 4 -16 38 -23 76 -6 38 -14 71 -18 74 -14 10 -39 117 -60 255 -18 112 -22 184 -22 360 0 246 6 320 29 311 11 -4 14 5 14 42 0 63 12 81 29 45 13 -27 14 -27 25 -8 6 10 29 36 51 57 29 28 35 38 21 38 -15 0 -16 5 -10 33 4 17 7 52 5 77 -2 42 1 47 46 87 41 37 45 42 26 43 -19 0 -23 6 -23 30 0 23 6 33 23 39 30 12 33 8 41 -48 5 -37 11 -50 26 -54 49 -13 74 14 72 78 -1 40 -27 58 -74 50 -47 -8 -49 5 -6 39 31 24 32 24 46 5 9 -13 25 -19 53 -19 l39 0 0 43 c0 36 6 48 41 82 22 22 36 41 29 43 -12 4 11 48 35 67 87 70 95 79 84 86 -8 4 2 14 27 28 21 11 43 20 47 21 4 0 7 -21 5 -47z m8398 -164 c93 -16 90 -13 86 -64 l-4 -45 56 0 56 0 0 -34 c0 -28 5 -36 29 -44 15 -5 37 -25 48 -43 18 -31 19 -47 15 -176 l-4 -142 -37 -24 c-20 -13 -70 -52 -111 -86 -51 -41 -84 -61 -102 -61 -15 0 -50 -5 -77 -11 l-50 -11 26 -39 c25 -37 28 -39 79 -39 l54 0 0 45 0 45 78 0 c81 0 109 11 148 57 11 12 30 23 44 25 24 3 25 0 26 -47 l1 -50 52 -3 51 -3 0 40 c0 30 4 41 15 41 8 0 15 4 15 9 0 5 9 11 20 14 18 4 20 14 20 74 l0 69 -33 12 c-52 19 -87 16 -87 -8 0 -11 -7 -20 -15 -20 -12 0 -15 8 -11 33 3 17 8 57 11 87 l6 55 52 21 c44 16 53 24 57 49 3 17 10 28 15 26 56 -22 69 -36 40 -47 -8 -4 -15 -10 -15 -16 0 -16 -28 -38 -49 -38 -19 0 -21 -6 -21 -65 l0 -65 35 0 35 0 0 -77 0 -78 -41 -40 c-22 -22 -36 -41 -30 -43 20 -7 11 -20 -65 -98 -83 -85 -111 -104 -155 -104 -22 0 -29 -5 -29 -20 0 -18 -7 -20 -60 -20 -53 0 -66 4 -120 41 -33 23 -60 45 -60 49 0 11 -49 29 -89 34 -46 5 -131 47 -131 65 0 8 -20 36 -45 62 -40 43 -59 89 -37 89 10 0 32 -44 32 -63 0 -7 12 -20 25 -30 20 -14 35 -17 70 -11 39 5 45 9 45 31 0 16 -7 27 -20 30 -14 4 -20 14 -20 34 0 26 -3 29 -34 29 -30 0 -34 4 -40 31 -3 17 -6 45 -6 61 0 23 -4 29 -16 24 -9 -3 -21 -6 -29 -6 -7 0 -18 -13 -25 -30 -7 -16 -16 -30 -21 -30 -19 0 -40 65 -46 140 -5 68 -4 80 10 80 10 0 13 6 10 18 -3 13 8 27 38 48 37 25 40 29 21 32 -18 3 -21 8 -16 30 7 30 43 74 55 67 4 -3 17 10 28 29 22 34 87 86 110 86 8 0 11 -7 8 -20 -8 -31 8 -24 34 15 13 19 27 35 30 35 3 0 32 -5 65 -11z m208 -28 c3 -4 -6 -6 -19 -3 -14 2 -25 6 -25 8 0 8 39 4 44 -5z m151 -142 c-4 -5 1 -9 9 -9 10 0 16 -9 16 -25 0 -18 -5 -25 -19 -25 -11 0 -26 -3 -35 -6 -14 -5 -16 4 -16 62 l1 69 24 -28 c14 -16 23 -33 20 -38z m145 20 c0 -5 -4 -9 -10 -9 -5 0 -10 7 -10 16 0 8 5 12 10 9 6 -3 10 -10 10 -16z m-1698 -53 c26 -17 99 -35 141 -36 15 0 44 -11 63 -24 l35 -24 -73 -6 c-317 -29 -361 -36 -404 -61 -44 -26 -100 -33 -106 -14 -4 11 -67 -19 -99 -47 -22 -19 -47 -18 -51 4 -3 14 -11 10 -43 -22 -31 -31 -48 -40 -76 -40 -24 -1 -48 -10 -70 -28 -18 -16 -39 -28 -46 -28 -7 0 -15 0 -18 0 -3 0 -26 -12 -51 -26 -32 -18 -49 -22 -53 -15 -5 7 -25 -6 -54 -34 -36 -34 -55 -45 -79 -45 -23 0 -43 -12 -79 -45 -26 -25 -55 -45 -64 -45 -22 0 -63 -28 -113 -77 -24 -24 -47 -41 -52 -38 -4 2 -16 -5 -26 -17 -11 -11 -35 -31 -55 -44 -20 -12 -57 -43 -83 -68 -25 -25 -52 -46 -59 -46 -6 0 -23 -12 -36 -25 -13 -14 -29 -25 -35 -25 -17 0 -592 -578 -588 -591 1 -6 -9 -22 -23 -35 -14 -12 -25 -27 -25 -33 0 -18 -133 -151 -152 -151 -14 0 -18 -8 -18 -40 0 -36 -7 -48 -60 -102 -54 -56 -77 -90 -50 -73 17 11 11 -5 -20 -51 -22 -31 -38 -44 -55 -44 -31 0 -34 -7 -36 -68 -2 -44 -7 -54 -42 -88 -30 -30 -36 -40 -23 -42 21 -5 20 -8 -9 -40 -23 -24 -30 -42 -26 -65 1 -5 -6 -11 -16 -13 -20 -6 -56 -82 -74 -157 -7 -27 -18 -51 -25 -54 -8 -3 -12 -8 -9 -12 2 -4 -7 -30 -20 -57 -14 -27 -25 -57 -25 -66 0 -9 -5 -20 -11 -23 -18 -12 -31 -58 -30 -106 0 -41 -4 -51 -41 -90 -35 -36 -39 -45 -24 -47 16 -3 18 -12 14 -70 -3 -53 -8 -68 -26 -80 -22 -14 -22 -15 -22 -358 0 -310 -2 -344 -16 -344 -13 0 -15 7 -12 31 4 26 -2 38 -34 70 -30 30 -39 45 -36 66 2 16 8 27 16 26 21 -5 14 11 -23 50 l-35 37 0 299 c0 297 0 298 24 344 21 38 24 55 19 100 -5 47 -2 59 22 94 16 25 31 68 38 107 11 63 12 66 39 66 25 0 28 4 28 32 0 17 8 40 17 50 16 18 16 18 0 12 -13 -5 -17 0 -17 21 0 25 19 55 37 55 4 1 22 12 38 25 l30 25 -27 0 c-21 0 -28 5 -28 19 0 11 4 21 8 23 4 2 21 20 36 41 22 29 25 37 12 37 -33 0 -16 38 32 69 38 25 43 31 25 31 -29 0 -29 7 0 50 13 19 22 40 20 46 -2 6 11 24 29 39 18 16 32 33 30 38 -2 5 4 17 13 27 13 14 13 19 3 23 -9 4 -6 8 8 12 11 4 26 22 33 42 12 33 65 93 82 93 5 0 9 5 9 11 0 5 -4 8 -10 4 -23 -14 20 47 64 91 27 26 43 50 37 52 -18 6 -13 17 32 64 23 24 49 57 57 72 8 16 36 48 63 71 38 35 44 44 30 48 -14 3 -12 6 10 15 15 6 27 15 27 20 0 12 112 127 121 125 4 -2 17 11 29 27 11 16 30 32 42 36 16 5 18 8 7 15 -11 6 -11 9 1 13 49 15 52 17 47 36 -4 15 1 20 22 22 19 2 27 10 29 28 5 30 20 51 36 48 11 -2 81 59 81 71 0 3 20 26 44 50 29 29 46 39 51 32 5 -8 12 -4 23 13 9 14 29 36 44 50 23 22 29 23 33 10 5 -12 12 -6 33 23 27 38 71 83 83 83 8 0 78 53 82 63 2 4 8 7 14 7 6 0 28 14 49 31 52 41 120 76 142 73 9 -1 17 1 17 4 0 4 14 23 30 42 22 26 30 30 30 18 0 -15 9 -12 49 17 26 19 51 35 54 35 3 0 4 -12 1 -27 l-4 -28 21 25 c11 14 29 35 40 48 10 12 19 27 19 32 0 6 5 10 10 10 6 0 10 -7 10 -15 0 -25 24 -17 55 20 24 28 38 36 68 37 20 1 37 5 37 9 0 13 124 68 131 58 3 -5 25 4 50 21 40 27 51 30 120 29 66 -1 85 3 135 27 57 29 60 29 221 27 124 -2 167 -5 185 -17z m2063 -116 c3 -19 3 -29 -1 -22 -3 6 -14 12 -24 12 -16 0 -17 3 -7 30 13 35 25 28 32 -20z m37 -72 c7 -13 14 -27 14 -33 5 -31 18 -52 37 -60 30 -14 74 -82 74 -116 0 -16 7 -37 16 -47 10 -10 17 -26 17 -35 0 -9 5 -17 11 -17 8 0 10 -26 8 -79 -3 -66 -8 -84 -27 -103 -16 -18 -22 -36 -22 -70 0 -42 -5 -50 -67 -117 -38 -39 -72 -71 -76 -71 -5 0 -20 -9 -34 -20 -19 -14 -41 -20 -80 -20 -34 0 -52 4 -48 10 3 6 1 10 -4 10 -6 0 -20 9 -32 21 -20 20 -20 22 -3 40 9 10 22 18 28 17 10 -2 80 60 81 72 0 3 17 23 38 45 28 30 34 41 22 43 -8 2 -15 6 -15 9 0 8 83 83 92 83 4 0 8 5 8 10 0 6 -9 10 -20 10 -24 0 -26 26 -6 75 10 24 22 35 35 35 20 0 21 6 21 90 0 79 -2 90 -17 90 -12 0 -29 23 -50 69 -18 38 -33 71 -33 75 0 14 20 4 32 -16z m-522 -203 c0 -30 -2 -55 -4 -55 -2 0 -16 22 -30 49 l-25 50 22 4 c12 2 25 5 30 6 4 0 7 -24 7 -54z m-2070 -1472 c0 -15 -85 -93 -102 -93 -10 0 -18 -6 -18 -13 0 -15 -80 -101 -159 -171 -29 -25 -49 -46 -45 -46 11 0 -130 -136 -149 -143 -9 -3 -17 -4 -17 -1 0 9 41 59 48 60 8 0 82 70 82 77 0 9 98 106 124 123 16 10 24 20 18 22 -12 4 67 86 93 95 9 4 19 16 22 26 3 12 15 21 32 23 18 2 27 10 29 26 2 14 10 22 23 22 10 0 19 -3 19 -7z m50 -143 c0 -5 -5 -10 -11 -10 -5 0 -7 5 -4 10 3 6 8 10 11 10 2 0 4 -4 4 -10z m-780 -275 c0 -8 5 -15 10 -15 6 0 10 -5 10 -12 0 -6 -9 -3 -20 7 -22 20 -26 35 -10 35 6 0 10 -7 10 -15z m125 -29 c11 0 37 4 58 8 33 7 37 6 37 -13 0 -16 -6 -21 -25 -21 -22 0 -25 -4 -25 -40 0 -22 -3 -40 -6 -40 -3 0 -25 12 -49 26 -29 16 -42 30 -38 40 3 8 -1 14 -11 14 -9 0 -16 8 -16 20 0 17 4 19 28 13 15 -4 36 -7 47 -7z m2559 -113 c-10 -7 -19 -12 -20 -10 -1 1 5 34 14 72 l17 70 3 -60 c3 -47 0 -62 -14 -72z m-47 -100 c-3 -10 -5 -4 -5 12 0 17 2 24 5 18 2 -7 2 -21 0 -30z m-7882 -633 c8 -13 -5 -13 -25 0 -13 8 -13 10 2 10 9 0 20 -4 23 -10z m695 -330 c0 -11 -4 -20 -10 -20 -5 0 -10 9 -10 20 0 11 5 20 10 20 6 0 10 -9 10 -20z m2754 -339 c34 -35 27 -51 -20 -51 -36 0 -41 10 -28 58 8 29 15 28 48 -7z"/>
        <path d="M5628 11973 l-58 -4 0 -34 0 -35 60 0 60 0 0 40 c0 22 -1 39 -2 38 -2 -1 -29 -3 -60 -5z"/>
        <path d="M5637 11883 c-2 -5 -2 -28 2 -53 l6 -45 153 -3 c83 -1 152 -1 152 0 0 2 -9 26 -19 53 l-19 50 -135 3 c-75 1 -137 -1 -140 -5z"/>
        <path d="M5500 11833 c-58 -9 -246 -54 -258 -62 -22 -13 4 -88 33 -95 32 -8 82 2 135 27 28 13 73 22 118 25 l72 4 0 54 0 54 -37 -1 c-21 -1 -49 -4 -63 -6z"/>
        <path d="M9637 6228 l2 -123 48 0 48 0 3 123 3 122 -53 0 -53 0 2 -122z"/>
        <path d="M2348 5528 c-19 -19 -35 -26 -62 -25 -33 1 -45 -7 -116 -78 -44 -44 -80 -84 -80 -90 0 -6 -13 -24 -29 -41 -21 -21 -27 -37 -25 -59 2 -22 1 -26 -6 -15 -8 13 -10 12 -10 -3 0 -10 -13 -31 -30 -47 -33 -33 -36 -40 -16 -40 10 0 13 -42 12 -225 0 -157 3 -228 11 -236 6 -6 9 -17 7 -23 -2 -6 5 -21 16 -33 24 -27 26 -60 4 -65 -12 -2 -3 -16 35 -53 28 -27 51 -54 51 -61 0 -6 12 -21 26 -35 30 -28 46 -61 33 -70 -5 -3 9 -24 31 -46 22 -23 40 -46 40 -52 0 -15 77 -91 93 -91 7 0 28 -16 47 -35 19 -20 52 -45 73 -56 21 -11 41 -28 44 -37 4 -9 9 -19 13 -22 3 -3 14 -16 23 -30 16 -23 17 -24 17 -3 l0 21 47 -23 c25 -13 50 -22 54 -19 5 3 28 -8 51 -23 43 -28 45 -28 206 -28 126 0 161 -3 157 -12 -10 -29 12 -10 33 27 18 32 28 40 51 40 21 0 42 14 84 59 32 33 57 69 57 80 0 11 7 27 16 36 9 9 19 36 22 60 4 37 1 47 -21 69 -14 14 -30 26 -34 26 -5 0 -14 -24 -21 -52 -6 -29 -19 -57 -29 -63 -9 -5 -34 -28 -55 -50 -52 -55 -48 -32 12 59 40 62 46 76 30 71 -19 -6 -20 -2 -20 104 0 61 4 111 9 111 5 0 -11 61 -35 136 -24 75 -44 142 -44 149 0 7 -11 27 -25 43 -29 35 -31 42 -8 42 14 0 13 3 -5 20 -20 19 -26 32 -23 52 0 3 -15 20 -35 37 -19 17 -33 35 -30 39 3 5 -7 21 -22 37 -15 16 -26 33 -25 37 3 9 -207 218 -220 218 -5 0 -34 18 -63 40 -29 22 -58 40 -64 40 -5 0 -10 6 -10 13 0 9 -2 9 -9 -1 -11 -19 -79 -5 -112 22 -22 19 -24 24 -11 36 12 11 32 11 114 2 106 -13 163 -35 212 -83 33 -32 49 -37 40 -14 -4 8 -2 15 3 15 18 0 43 -36 43 -61 0 -18 2 -21 9 -10 8 12 12 12 25 2 12 -10 16 -10 16 -2 0 7 16 -4 35 -25 20 -21 34 -42 32 -48 -2 -6 15 -28 37 -49 23 -21 40 -42 39 -46 -1 -5 13 -26 32 -47 36 -40 42 -54 25 -54 -18 0 -10 -15 30 -55 21 -22 39 -49 40 -59 0 -11 10 -30 22 -43 19 -21 24 -46 40 -211 9 -103 20 -211 24 -239 6 -47 4 -53 -12 -53 -14 0 -6 -13 33 -51 l51 -52 47 49 c34 37 42 50 30 52 -14 3 -16 25 -14 176 2 161 1 174 -19 202 -26 36 -66 169 -56 185 5 8 2 10 -8 6 -15 -5 -38 28 -38 54 0 6 -10 24 -21 41 -34 47 -67 117 -57 120 5 2 -46 59 -114 126 -99 98 -120 124 -108 132 12 8 10 10 -8 10 -15 0 -43 20 -77 54 -48 48 -54 51 -59 32 -5 -19 -9 -17 -48 23 -32 32 -44 39 -46 27 -4 -19 -21 -20 -47 -3 -33 22 -131 39 -234 40 -93 2 -98 1 -123 -25z"/>
        <path d="M200 4915 l0 -145 35 0 35 0 0 145 0 145 -35 0 -35 0 0 -145z"/>
        <path d="M8454 4385 c-7 -19 -14 -42 -14 -50 0 -18 -4 -19 108 19 l66 23 -64 21 c-35 12 -68 22 -72 22 -5 0 -16 -16 -24 -35z"/>
        <path d="M5681 2263 c-13 -26 -20 -101 -31 -358 -15 -333 -15 -361 1 -380 30 -35 53 -55 65 -55 8 0 9 -12 4 -40 l-7 -40 41 0 c40 0 41 1 41 35 0 21 -5 35 -12 35 -10 0 -13 76 -13 347 0 327 -1 350 -21 410 -23 66 -48 83 -68 46z"/>
        <path d="M2631 2027 c-64 -33 -81 -71 -81 -183 l0 -91 36 -24 c28 -19 47 -47 83 -124 26 -55 55 -106 64 -114 10 -8 17 -28 17 -47 0 -26 4 -34 18 -34 21 0 73 -53 95 -96 9 -17 23 -34 32 -37 8 -4 15 -13 15 -21 0 -7 21 -36 46 -62 25 -27 53 -61 62 -76 9 -16 21 -27 27 -27 24 3 32 -2 43 -26 7 -15 20 -25 32 -25 14 0 20 -7 20 -24 0 -18 6 -25 28 -27 52 -7 70 1 82 35 12 37 6 61 -23 94 l-20 22 23 0 c20 0 18 3 -16 26 -53 35 -124 109 -124 128 0 11 -9 16 -29 16 -24 0 -36 10 -67 53 -21 28 -68 84 -104 123 -36 39 -74 86 -85 104 -17 28 -103 87 -150 103 -6 2 -5 14 2 30 10 21 20 27 43 27 35 0 36 7 15 95 -8 33 -14 93 -15 133 0 82 -2 83 -69 49z"/>
        <path d="M2542 1410 l-21 -50 75 0 75 0 -27 50 c-22 41 -32 50 -54 50 -23 0 -30 -7 -48 -50z"/>
        <path d="M8107 1423 c-27 -27 -28 -28 -43 -9 -13 19 -14 18 -14 -11 0 -28 -6 -33 -76 -67 l-75 -36 3 -52 3 -53 88 -3 c85 -3 87 -2 87 20 0 16 9 27 28 35 21 10 30 23 39 61 11 46 7 142 -6 142 -4 0 -19 -12 -34 -27z"/>
        <path d="M6490 1425 c-8 -9 -14 -55 -17 -113 l-4 -97 31 35 c41 46 50 70 50 136 0 50 -2 54 -24 54 -13 0 -29 -7 -36 -15z"/>
        <path d="M6719 1360 c-5 -31 6 -128 16 -144 7 -12 18 -37 24 -57 7 -23 21 -39 39 -47 50 -21 -86 -5 -156 19 -35 12 -64 20 -66 18 -1 -2 -10 -37 -18 -77 l-16 -72 32 -8 c26 -7 32 -15 40 -50 7 -33 13 -42 30 -42 46 0 272 42 299 55 30 15 52 12 42 -6 -10 -15 4 -10 23 9 11 9 28 25 38 34 39 34 41 41 26 70 -7 16 -25 31 -40 35 -15 3 -35 17 -45 30 -10 13 -25 23 -32 23 -15 0 -65 60 -65 78 0 7 -3 12 -8 12 -14 0 -36 45 -41 84 l-6 38 -58 2 c-31 0 -57 -1 -58 -4z"/>
        <path d="M2700 1205 c0 -31 3 -35 25 -35 23 0 25 -4 25 -45 0 -50 25 -85 61 -85 11 0 17 -4 14 -10 -4 -6 1 -22 9 -35 14 -22 24 -25 72 -25 41 0 55 3 50 13 -3 6 -24 59 -48 116 -29 73 -44 98 -48 85 -5 -12 -9 -14 -14 -6 -4 7 -16 12 -27 12 -14 0 -19 7 -19 25 0 23 -3 25 -50 25 l-50 0 0 -35z"/>
        <path d="M6520 1205 l0 -35 50 0 50 0 0 35 0 35 -50 0 -50 0 0 -35z"/>
        <path d="M7685 1190 c-5 -22 -14 -31 -33 -36 -15 -3 -69 -18 -119 -34 -51 -17 -106 -30 -122 -30 l-30 0 22 -50 22 -50 83 0 c45 0 82 4 82 9 0 5 28 14 62 20 42 7 70 19 88 36 15 14 44 31 66 36 48 14 54 22 54 82 l0 47 -84 0 -84 0 -7 -30z"/>
        <path d="M6375 1154 c-11 -3 -41 -14 -67 -26 l-47 -21 23 -27 c12 -15 29 -56 36 -90 12 -55 15 -61 34 -55 12 3 36 8 54 12 18 3 40 16 50 28 9 12 22 20 27 18 7 -2 12 26 14 69 1 40 5 76 7 80 3 4 -5 8 -18 8 -13 0 -39 2 -58 4 -19 3 -44 2 -55 0z"/>
        <path d="M7141 993 c-20 -72 -18 -76 41 -69 65 9 96 25 131 70 l28 36 -95 0 -95 0 -10 -37z"/>
        <path d="M6080 925 c0 -18 -5 -25 -20 -25 -18 0 -20 -7 -20 -65 l0 -65 55 0 c30 0 55 -4 55 -10 0 -5 -9 -10 -20 -10 -16 0 -20 -7 -20 -35 0 -21 -5 -35 -12 -35 -7 0 -23 -3 -35 -6 -16 -4 -23 0 -28 15 -4 15 -15 21 -36 21 -23 0 -41 -12 -81 -55 -69 -75 -85 -98 -70 -103 7 -2 12 -22 12 -43 0 -33 -6 -45 -31 -66 -17 -15 -42 -44 -55 -65 -13 -21 -31 -38 -39 -38 -9 0 -18 -6 -21 -14 -3 -8 -16 -17 -30 -20 -13 -4 -36 -20 -51 -36 -14 -17 -31 -30 -37 -30 -6 0 -31 -20 -56 -45 -25 -24 -53 -44 -63 -45 -10 0 -20 -7 -23 -15 -4 -8 -12 -15 -20 -15 -10 0 -14 -15 -14 -60 l0 -60 33 0 c25 0 42 9 67 35 19 19 37 35 41 35 33 0 239 179 239 207 0 7 9 13 20 13 11 0 20 -7 20 -15 0 -10 11 -15 35 -15 24 0 35 5 35 15 0 10 10 15 33 15 32 0 34 2 56 70 17 53 27 70 41 70 18 0 40 -44 40 -82 0 -23 -96 -128 -117 -128 -8 0 -11 -5 -8 -11 4 -6 -1 -17 -11 -24 -17 -13 -17 -14 -2 -15 12 0 18 -10 20 -38 3 -31 7 -37 28 -40 21 -2 42 14 110 84 56 57 102 94 136 109 67 30 114 85 114 130 0 19 4 35 10 35 22 0 80 64 96 106 15 40 18 42 30 27 12 -17 13 -16 14 5 0 12 6 22 13 22 8 0 11 17 9 60 -4 55 -6 60 -27 60 -13 0 -25 7 -27 16 -2 11 -19 0 -60 -40 -49 -46 -58 -61 -58 -90 0 -28 -5 -36 -28 -44 -22 -8 -35 -25 -59 -83 -26 -62 -35 -73 -54 -73 -21 -1 -24 5 -27 47 -3 45 -5 47 -33 47 -22 0 -29 5 -29 20 0 13 7 20 20 20 18 0 20 7 20 55 0 30 5 55 10 55 6 0 10 16 10 35 0 31 3 35 25 35 22 0 25 4 25 35 0 33 -2 35 -35 35 -26 0 -35 4 -35 16 0 11 6 15 20 11 18 -5 20 0 20 59 l0 64 -60 0 c-57 0 -60 -1 -60 -25z"/>
    </g>
</svg>