<svg width="25" height="25" viewBox="0 0 30 25" fill="none" xmlns="http://www.w3.org/2000/svg">
    <g clip-path="url(#clip0_12_17190)">
        <path d="M15.2336 12.0694H8.00642V9.20955H15.2336C15.6558 9.20955 15.9493 9.28314 16.0966 9.41163C16.2439 9.54013 16.3352 9.77846 16.3352 10.1266V11.1535C16.3352 11.5203 16.2439 11.7586 16.0966 11.8871C15.9493 12.0156 15.6558 12.0705 15.2336 12.0705V12.0694ZM15.7294 6.51331H4.94141V18.7436H8.00642V14.7646H13.6549L16.3352 18.7436H19.7674L16.8123 14.7459C17.9017 14.5845 18.391 14.2506 18.7944 13.7004C19.1979 13.1501 19.4002 12.2704 19.4002 11.0964V10.1793C19.4002 9.48302 19.3265 8.93279 19.1979 8.51105C19.0693 8.08932 18.8494 7.7225 18.5372 7.39302C18.2074 7.08111 17.8402 6.86146 17.3993 6.71429C16.9585 6.58579 16.4077 6.51221 15.7294 6.51221V6.51331Z" fill="currentColor"></path>
        <path d="M36.8183 0.396693C36.8183 7.15191 31.3421 12.6281 24.5869 12.6281C23.2135 12.6281 21.8929 12.4017 20.6605 11.9843C20.6869 11.6936 20.6985 11.3965 20.6985 11.0966V10.1795C20.6985 9.40085 20.6172 8.71448 20.4398 8.13279C20.2485 7.50551 19.9203 6.96566 19.4799 6.50089L19.4555 6.47509L19.4296 6.45067C18.9603 6.00685 18.4284 5.69001 17.8112 5.48396L17.7875 5.47603L17.7634 5.46903C17.1759 5.29778 16.4976 5.21512 15.7305 5.21512H14.4332V5.21622H13.3416C12.7069 3.73729 12.3555 2.10804 12.3555 0.396693C12.3555 -6.35853 17.8317 -11.8347 24.5869 -11.8347C31.3421 -11.8347 36.8183 -6.35853 36.8183 0.396693Z" fill="currentColor"></path>
    </g>
    <rect x="0.30883" y="0.582268" width="24.0912" height="24.0912" rx="5.76463" stroke="currentColor" stroke-width="0.371567"></rect>
    <defs>
        <clipPath id="clip0_12_17190">
            <rect x="0.123047" y="0.396484" width="24.4628" height="24.4628" rx="5.95041" fill="white"></rect>
        </clipPath>
    </defs>
</svg>